<?xml version="1.0" encoding="UTF-8"?>
<svg id="uuid-44ad4bf2-4ada-42c1-aa84-0fb34bba71b8" data-name="Layer 2" xmlns="http://www.w3.org/2000/svg" viewBox="0 0 127.29 49.4">
  <defs>
    <style>
      .uuid-c399f367-0696-4f19-a997-fc1a4c6caad1 {
        stroke: #84c225;
        stroke-width: 0px;
      }

      .uuid-96228d5a-bd44-4a50-8e6c-14a5e839f4d8 {
        fill-rule: evenodd;
      }
    </style>
  </defs>
  <g id="uuid-f70f041f-32b0-4890-abdc-741e493771e3" data-name="Layer 1">
    <g id="uuid-bdf50ca0-169a-4c87-ae91-b6af2cdece4e" data-name="Layer_1">
      <g id="uuid-6621455f-9f8c-49fb-a50f-cff643548836" data-name=" 124358848">
        <path id="uuid-e3ede385-68a8-4d12-ba8c-452725fe424f" data-name=" 124446920" class="uuid-96228d5a-bd44-4a50-8e6c-14a5e839f4d8" d="m0,39.24s7.96-.04,19.89-.11c5.97-.02,12.93-.04,20.39-.06,7.46,0,15.41-.02,23.37-.03,7.96,0,15.91.02,23.37.03,7.46.02,14.42.04,20.39.06,11.93.07,19.89.11,19.89.11,0,0-7.96.04-19.89.11-5.97.02-12.93.04-20.39.06-7.46,0-15.41.02-23.37.03-7.96,0-15.91-.02-23.37-.03-7.46-.02-14.42-.04-20.39-.06-11.93-.07-19.89-.11-19.89-.11h0Z"/>
        <path id="uuid-1df2bc3d-5bd1-4f10-8f3c-e86b58e16f83" data-name=" 124446368" class="uuid-96228d5a-bd44-4a50-8e6c-14a5e839f4d8" d="m15.89,28.19h-.7c-.09,0-.15-.02-.2-.05-.04-.04-.07-.09-.07-.17,0-.07.03-.13.08-.18.02-.02.05-.03.09-.04.04,0,.08,0,.14,0h.65s0-.07,0-.07v-.09c0-.43.13-.76.39-.99.26-.22.64-.33,1.13-.33.34,0,.61.06.83.19.21.13.32.3.32.51,0,.12-.04.21-.11.28-.07.07-.17.1-.3.1s-.23-.03-.31-.08c-.08-.05-.11-.12-.11-.21,0-.04,0-.08.02-.13l.02-.12s-.03-.06-.09-.08c-.06-.02-.15-.03-.26-.03-.27,0-.48.07-.62.21-.14.14-.21.35-.21.62v.19s.73-.01.73-.01c.08,0,.14,0,.18,0,.04,0,.08.02.11.04.07.04.1.1.1.18,0,.08-.03.13-.08.17-.05.04-.13.06-.24.06h-.81v2.51c0,.25.02.41.06.48.04.06.13.1.27.1l.14-.02.21-.02c.13,0,.22.02.28.07.06.04.09.11.09.21,0,.08-.03.15-.09.19-.03.02-.06.04-.1.05-.04.01-.09.02-.15.02h-2.08c-.12,0-.21-.02-.27-.06-.05-.04-.08-.11-.08-.19,0-.09.03-.16.09-.21.06-.05.16-.07.28-.07l.13.02.12.02c.17,0,.28-.03.34-.09.06-.06.09-.22.09-.49v-2.51h0Zm6.07,2.53v-1.68s-.1-.63-.16-.72c-.06-.09-.18-.14-.35-.13h-.32c-.11-.01-.18-.03-.22-.06-.04-.03-.06-.1-.06-.19,0-.07.03-.14.09-.19.06-.05.22-.01.22-.01h1.18c.06,0,.11,0,.15.01.04.01.07.02.09.05.04.04.06.14.06.28v2.64c0,.25.03.4.08.48.06.07.17.1.34.1h.13s.1-.03.1-.03c.12,0,.22.02.28.07.06.04.09.11.09.2s-.03.15-.08.19c-.05.04-.14.06-.26.06h-2.04c-.13,0-.22-.02-.28-.06-.05-.04-.08-.1-.08-.19s.03-.15.09-.2c.06-.05.16-.07.28-.07h.13s.12.03.12.03c.17,0,.28-.03.34-.1.06-.07.08-.23.08-.48h0Zm-.34-3.85c0-.13.05-.24.14-.32.09-.09.2-.13.34-.13s.24.04.33.13c.09.09.13.2.13.32s-.04.23-.13.32c-.09.09-.2.13-.33.13s-.25-.04-.34-.13c-.09-.09-.14-.19-.14-.32h0Zm5.48.87c.05-.06.09-.07.11-.09.02-.02.03-.05-.08-.1v-.8c.11-.08.13-.14.19-.19.06-.05.13-.07.22-.07s.17.03.23.08c.06.05.02.18.02.18v.78s.08.11.09.13c.01.02.05.03.1.08h.89c.11-.06.19-.03.25.01.06.05.09.12.09.2,0,.09-.03.17-.1.21-.06.05-.16.07-.29.02h-.85c-.04.05-.07.07-.1.11-.02.03-.03.09-.1.18v1.76c.07.47.11.76.2.89.09.13.24.2.47.2.19,0,.34-.06.45-.19.11-.12.16-.3.16-.52l-.15-.21v-.27c0-.13.03-.22.08-.29.05-.07.12-.1.21-.1.12,0,.21.04.27.13.05.09.08.24.08.44,0,.49-.11.87-.33,1.13-.22.27-.54.4-.95.4s-.7-.1-.89-.31c-.18-.21-.27-.55-.27-1.04v-2.07c0-.1,0-.17-.03-.19-.02-.03-.05-.04-.09-.04h-.26s-.18.03-.23-.01c-.05-.04-.07-.12-.07-.21s.03-.17.07-.21c.05-.05.13-.07.24-.01h.34Zm10.14,1.77c0-.51-.09-.87-.26-1.09-.18-.22-.47-.33-.88-.33-.46,0-.79.15-1.01.45-.21.3-.32.78-.32,1.43v.85c0,.18.02.29.06.35.02.03.05.05.09.07.04.02.09.03.16.03h.13s.18-.03.18-.03c.12,0,.21.02.26.07.06.04.09.11.09.21,0,.07,0,.11,0,.14,0,.03-.03.04-.07.05-.01.03-.03.05-.05.06-.02,0-.05.01-.09.01h-2.13c-.06,0-.11,0-.16-.01-.04,0-.08-.02-.11-.04-.05-.04-.08-.1-.08-.19,0-.1.03-.16.1-.21.06-.05.16-.08.28-.08h.13s.11.03.11.03c.17,0,.29-.03.35-.09.06-.06.09-.2.09-.41v-2.04c0-.21-.03-.36-.08-.43-.05-.07-.16-.11-.31-.11h-.25c-.1,0-.18-.02-.23-.04-.05-.03-.08-.08-.08-.15,0-.08.03-.14.09-.18.06-.05.14-.07.24-.07h1.01c.05,0,.1,0,.13.01.04.01.07.03.09.05.04.04.06.13.06.27v.3c.21-.25.42-.43.65-.54.23-.11.49-.16.81-.16.59,0,1.01.14,1.28.41.27.27.4.72.4,1.33v1.3c0,.27.03.43.08.49.05.05.16.08.33.08h.13s.1-.03.1-.03c.12,0,.21.03.27.07.06.05.1.12.1.21,0,.08-.03.14-.08.18-.05.04-.14.06-.27.06h-1.98c-.1,0-.18-.02-.23-.06-.05-.04-.08-.11-.08-.2,0-.09.03-.17.08-.21.05-.05.14-.07.25-.07h.18s.14.03.14.03c.12,0,.2-.03.24-.1.04-.07.06-.22.06-.46v-1.2h0Zm5.62.26v.02c0,.46.12.83.36,1.11.24.28.56.42.96.42.24,0,.45-.04.61-.12.17-.08.32-.21.46-.4.02-.04.05-.08.08-.13.03-.05.05-.12.09-.2.09-.22.2-.34.34-.34.08,0,.16.03.22.08.06.06.09.13.09.21,0,.1-.04.22-.11.37-.07.15-.16.29-.28.44-.18.22-.39.38-.64.48-.25.11-.55.16-.89.16-.61,0-1.1-.2-1.46-.59-.36-.39-.54-.92-.54-1.59s.18-1.19.54-1.59c.36-.39.85-.59,1.46-.59s1.06.17,1.41.5c.35.33.53.78.53,1.34,0,.16-.03.27-.09.32-.06.05-.17.08-.34.08h-2.81Zm.02-.45h2.45v-.05c0-.33-.11-.61-.33-.81-.22-.21-.51-.31-.87-.31-.17,0-.33.03-.48.08-.14.05-.27.13-.39.24-.22.21-.35.49-.39.86h0Zm7.4,2.15v.11s-.08.19-.13.25c-.05.06-.12.09-.22.09s-.17-.03-.21-.08c-.02-.02-.03-.05-.05-.1-.01-.05-.02-.09-.07-.14v-1.3c.05-.08.08-.16.14-.21.06-.06.13-.09.21-.09.09,0,.16.03.2.09.04.06.12.32.12.32v.08c0,.24.12.44.35.6.23.15.55.23.96.23.3,0,.54-.06.71-.18.17-.12.25-.3.25-.52,0-.09-.02-.17-.08-.25-.05-.08-.13-.15-.23-.2-.07-.04-.24-.08-.51-.11-.27-.03-.49-.06-.66-.09-.42-.08-.73-.22-.92-.4-.1-.09-.17-.2-.21-.32-.05-.12-.07-.26-.07-.42,0-.35.14-.63.42-.84.28-.21.65-.32,1.13-.32.12,0,.23,0,.32.02.09.01.19.04.29.07.19.06.36.14.5.26v-.04s0-.13,0-.13c0-.08.02-.14.06-.19.04-.05.1-.07.17-.07.06,0,.12.02.16.07.04.05.06.12.06.2v1.16s.02.09,0,.13c-.01.02-.04.05-.08.1-.04.04-.1.07-.19.07s-.15-.02-.19-.07c-.03-.05,0-.24,0-.24v-.11c0-.24-.09-.43-.28-.57-.1-.07-.21-.12-.33-.16-.12-.04-.27-.05-.44-.05-.31,0-.55.06-.72.18-.17.12-.26.28-.26.5,0,.1.02.17.05.24.03.06.08.12.15.17.13.1.41.18.84.22.09,0,.16,0,.21,0,.05,0,.11.02.21.04.48.06.82.19,1.04.36.22.18.33.43.33.75,0,.4-.16.73-.47.98-.31.26-.72.38-1.23.38-.29,0-.54-.04-.77-.12-.22-.07-.41-.19-.55-.33h0Zm7.19,0v.11s-.02.19-.07.25c-.05.06-.12.09-.22.09s-.17-.03-.21-.08c-.02-.02-.04-.05-.05-.1-.01-.05-.02-.09-.13-.14v-1.3c.11-.08.14-.16.2-.21.06-.06.13-.09.21-.09.1,0,.17.03.2.09.04.06.06.32.06.32v.08c0,.24.12.44.35.6.24.15.55.23.96.23.31,0,.54-.06.71-.18.17-.12.25-.3.25-.52,0-.09-.03-.17-.08-.25-.05-.08-.13-.15-.23-.2-.07-.04-.24-.08-.51-.11-.27-.03-.49-.06-.66-.09-.42-.08-.73-.22-.92-.4-.09-.09-.16-.2-.21-.32-.05-.12-.07-.26-.07-.42,0-.35.14-.63.42-.84.28-.21.65-.32,1.13-.32.12,0,.23,0,.32.02.1.01.19.04.29.07.19.06.36.14.5.26v-.04s0-.13,0-.13c0-.08.02-.14.06-.19.04-.05.1-.07.17-.07.06,0,.11.02.16.07.04.05.07.12.07.2v1.16s.09.09.06.13c-.01.02-.04.05-.08.1-.04.04-.1.07-.19.07s-.15-.02-.19-.07c-.03-.05-.06-.24-.06-.24v-.11c0-.24-.09-.43-.28-.57-.1-.07-.21-.12-.33-.16-.12-.04-.27-.05-.44-.05-.31,0-.55.06-.72.18-.17.12-.26.28-.26.5,0,.1.02.17.05.24.03.06.08.12.14.17.14.1.42.18.84.22.1,0,.16,0,.21,0,.05,0,.12.02.21.04.48.06.82.19,1.04.36.22.18.33.43.33.75,0,.4-.16.73-.47.98-.31.26-.72.38-1.23.38-.29,0-.54-.04-.77-.12-.23-.07-.41-.19-.56-.33h0Zm12.81,0v.11s.02.19-.02.25c-.05.06-.12.09-.22.09-.1,0-.17-.03-.21-.08-.02-.02-.04-.05-.05-.1-.01-.05-.02-.09-.17-.14v-1.3c.15-.08.19-.16.25-.21.06-.06.13-.09.21-.09.1,0,.17.03.2.09.04.06.01.32.01.32v.08c0,.24.12.44.35.6.24.15.55.23.95.23.31,0,.55-.06.71-.18.17-.12.25-.3.25-.52,0-.09-.02-.17-.08-.25-.05-.08-.13-.15-.23-.2-.07-.04-.24-.08-.51-.11-.27-.03-.49-.06-.66-.09-.42-.08-.73-.22-.92-.4-.1-.09-.17-.2-.21-.32-.05-.12-.07-.26-.07-.42,0-.35.14-.63.42-.84.28-.21.65-.32,1.13-.32.12,0,.22,0,.32.02.1.01.19.04.29.07.19.06.36.14.5.26v-.04s0-.13,0-.13c0-.08.02-.14.06-.19.04-.05.1-.07.17-.07.06,0,.11.02.15.07.04.05.07.12.07.2v1.16s.13.09.11.13c-.01.02-.04.05-.08.1-.04.04-.1.07-.19.07s-.15-.02-.19-.07c-.04-.05-.1-.24-.1-.24v-.11c0-.24-.1-.43-.29-.57-.1-.07-.21-.12-.33-.16-.12-.04-.27-.05-.44-.05-.31,0-.55.06-.72.18-.17.12-.26.28-.26.5,0,.1.02.17.05.24.03.06.08.12.14.17.14.1.42.18.84.22.09,0,.16,0,.21,0,.04,0,.12.02.21.04.48.06.83.19,1.04.36.22.18.32.43.32.75,0,.4-.16.73-.47.98-.31.26-.72.38-1.23.38-.29,0-.54-.04-.77-.12-.22-.07-.41-.19-.55-.33h0Zm6.9-3.72c.05-.06.08-.07.1-.09.02-.02.03-.05-.03-.1v-.8c.06-.08.09-.14.15-.19.06-.05.13-.07.22-.07s.17.03.23.08c.06.05.07.18.07.18v.78s.04.11.05.13c.01.02.05.03.1.08h.89c.11-.06.19-.03.25.01.06.05.09.12.09.2,0,.09-.03.17-.1.21-.06.05-.16.07-.29.02h-.84c-.04.05-.08.07-.1.11-.02.03-.03.09-.05.18v1.76c.03.47.07.76.16.89.09.13.24.2.47.2.19,0,.34-.06.45-.19.11-.12.16-.3.16-.52l-.11-.21v-.27c0-.13.03-.22.08-.29.05-.07.12-.1.21-.1.12,0,.21.04.27.13.05.09.08.24.08.44,0,.49-.11.87-.33,1.13-.22.27-.54.4-.95.4s-.7-.1-.89-.31c-.18-.21-.27-.55-.27-1.04v-2.07c0-.1-.01-.17-.03-.19-.02-.03-.05-.04-.09-.04h-.31s-.18.03-.23-.01c-.05-.04-.07-.12-.07-.21,0-.09.02-.17.08-.21.05-.05.13-.07.24-.01h.34,0Zm6.81,1.02c0-.26-.02-.42-.06-.48-.03-.06-.12-.09-.25-.09h-.39s-.22-.05-.28-.08c-.05-.04-.08-.11-.08-.2,0-.08.03-.14.08-.18.05-.04.14-.06.25.02h1.11c.11-.08.18-.06.21-.02.03.04.05.17.1.37v1.81c-.05.53.04.9.22,1.12.18.22.47.33.87.33.46,0,.8-.15,1.01-.45.21-.3.37-1.44.37-1.44v-.72s-.07-.41-.11-.48c-.03-.06-.12-.1-.24-.07h-.31c-.13-.03-.21-.05-.27-.09-.05-.04-.07-.1-.07-.2,0-.09.03-.15.08-.19.05-.04.13-.06.24.02h1.04c.11-.08.18-.06.21-.02.03.04.11.37.11.37v2.31s-.04.62.01.72c.05.1.17.15.34.21h.3c.11-.06.18-.04.22,0,.04.03.07.09.07.18,0,.09-.03.16-.08.21-.05.05-.24.07-.24.07h-1.02c-.06,0-.1,0-.13-.01-.03,0-.06-.03-.09-.05-.04-.04-.06-.14-.06-.28v-.31c-.22.26-.43.45-.66.55-.23.11-.5.16-.81.16-.59,0-1.01-.14-1.28-.41-.27-.27-.4-.73-.4-1.35v-1.32h0Zm11.46,1.27v-.53c0-.44-.11-.78-.34-1.03-.23-.25-.53-.38-.92-.38-.42,0-.75.15-1,.44-.25.29-.37.69-.37,1.18,0,.52.13.93.37,1.21.25.28.6.42,1.05.42.42,0,.72-.1.92-.32.19-.21.29-.54.29-.99h0Zm0-2.53v-.17s-.11-.49-.19-.57c-.07-.08-.21-.12-.42-.15h-.27c-.12.03-.2.01-.25-.03-.05-.04-.08-.1-.08-.18s.03-.15.09-.19c.06-.05.26-.05.26-.05h1.21c.06,0,.11,0,.15.01.04,0,.07.02.1.05.04.04.07.14.07.28v4.25c0,.27.03.43.08.48.06.06.17.09.34.09h.14s.22-.01.28.03c.06.04.09.11.09.2,0,.09-.03.15-.09.19-.05.04-.15.06-.27.03h-1.14c-.08.03-.14.01-.17-.03-.03-.04-.04-.13-.16-.27v-.07c-.04.15-.24.26-.46.34-.22.08-.46.12-.71.12-.62,0-1.12-.19-1.49-.57-.37-.38-.55-.89-.55-1.53,0-.69.18-1.24.53-1.64.35-.4.83-.61,1.43-.61.31,0,.58.05.8.16.22.11.42.28.67.51v-.7s0,0,0,0Zm5.62,3.21v-1.68s.06-.63,0-.72c-.06-.09-.18-.14-.35-.13h-.32c-.11-.01-.18-.03-.22-.06-.04-.03-.06-.1-.06-.19,0-.07.03-.14.09-.19.06-.05.22-.01.22-.01h1.02c.06,0,.11,0,.15.01.04.01.07.02.09.05.04.04.06.14.06.28v2.64c0,.25.03.4.08.48.05.07.17.1.33.1h.13s.1-.03.1-.03c.12,0,.22.02.28.07.06.04.09.11.09.2s-.03.15-.08.19c-.05.04-.14.06-.26.06h-2.03c-.13,0-.22-.02-.27-.06-.05-.04-.08-.1-.08-.19s.03-.15.09-.2c.06-.05.16-.07.28-.07h.13s.12.03.12.03c.17,0,.28-.03.34-.1.06-.07.09-.23.09-.48h0Zm-.18-3.85c0-.13.05-.24.14-.32.09-.09.2-.13.34-.13s.24.04.33.13c.09.09.13.2.13.32s-.04.23-.13.32c-.09.09-.2.13-.33.13s-.25-.04-.34-.13c-.09-.09-.14-.19-.14-.32h0Zm5.93,2.85c0,.51.13.91.39,1.2.26.28.63.43,1.12.43s.83-.14,1.1-.43c.27-.28.4-.68.4-1.19,0-.51-.13-.91-.4-1.2-.27-.29-.64-.43-1.1-.43s-.84.15-1.11.44c-.27.29-.4.69-.4,1.19Zm-.7,0c0-.67.2-1.19.59-1.58.4-.39.93-.58,1.61-.58s1.22.19,1.62.58c.4.39.59.91.59,1.58,0,.67-.2,1.2-.59,1.59-.39.39-.94.59-1.63.59s-1.2-.2-1.6-.59c-.4-.4-.6-.92-.6-1.59h0Z"/>
        <path id="uuid-bd6de963-a3b4-4cb8-a544-abb2ce58bcd6" data-name=" 124446464" class="uuid-96228d5a-bd44-4a50-8e6c-14a5e839f4d8" d="m23.01,6.87l-2.08,5.57-.1.32v.13c0,.08.04.15.1.19.05.02.1.03.16.03.06,0,.16.01.3.01h3.05c.22,0,.37-.02.44-.05.07-.04.11-.1.11-.2l-.03-.18-.07-.25-1.89-5.58h0Zm-2.45,7.83c-.16,0-.29.05-.4.15-.11.11-.2.28-.3.53l-.63,1.76-.12.45-.05.47c0,.14.08.27.22.38.15.1.34.15.56.15.19,0,.41-.02.66-.05l.56-.04c.32,0,.57.07.75.2.18.13.26.33.26.58s-.08.46-.24.6c-.16.14-.39.21-.7.21h-6.37c-.29,0-.53-.08-.73-.23-.2-.15-.31-.33-.31-.56,0-.21.08-.4.25-.56.16-.16.34-.25.53-.25l.4.04.34.05c.52,0,.92-.1,1.18-.29.26-.2.49-.56.7-1.1l4.25-10.78c.22-.54.44-.9.68-1.09.23-.19.53-.28.89-.28.45,0,.78.09,1,.27.24.17.48.57.72,1.19l4.08,10.69c.19.52.41.88.68,1.08.26.21.6.31,1.04.31l.24-.05.23-.04c.48,0,.81.06.97.18.16.12.25.33.25.62,0,.22-.1.4-.3.56-.2.16-.44.23-.73.23h-6.3c-.3,0-.52-.07-.67-.21-.15-.14-.22-.34-.22-.6,0-.24.08-.43.25-.57.17-.14.41-.21.71-.21l.54.04.64.05c.19,0,.35-.07.48-.2.13-.13.2-.31.2-.51l-.04-.36-.1-.37-.6-1.76c-.07-.19-.18-.35-.34-.49-.16-.14-.31-.21-.48-.21h-4.58s0,0,0,0Z"/>
        <path id="uuid-85f2be7d-3566-4370-91d6-3f5cf40ef56f" data-name=" 124446944" class="uuid-96228d5a-bd44-4a50-8e6c-14a5e839f4d8" d="m52.41,18.98c-.26.63-.51,1.05-.75,1.24-.24.2-.56.3-.96.3s-.69-.1-.92-.3c-.23-.19-.48-.65-.76-1.36l-4.23-11.04c-.2-.55-.43-.92-.69-1.13-.27-.21-.61-.31-1.05-.31l-.23.05-.4.05c-.42,0-.72-.06-.88-.19-.16-.13-.23-.34-.23-.63,0-.22.1-.41.32-.59.21-.16.46-.25.74-.25h6.8c.29,0,.5.08.66.23.16.15.24.37.24.67,0,.25-.09.44-.27.57-.17.13-.42.2-.77.2l-.58-.05-.67-.05c-.21,0-.39.07-.55.2-.14.14-.2.32-.2.52l.04.37c.02.13.06.26.12.39l3.63,10.09,3.65-10.1.12-.45.05-.47c0-.16-.08-.3-.24-.4-.14-.11-.33-.17-.56-.17-.13,0-.25,0-.37,0-.14.02-.25.04-.32.05l-.58.05c-.32,0-.58-.07-.76-.2-.18-.13-.28-.32-.28-.57,0-.29.09-.5.25-.66.17-.16.4-.24.72-.24h6.76c.29,0,.54.08.75.24.21.16.32.36.32.6,0,.22-.09.41-.26.58-.17.17-.35.25-.55.25l-.45-.05-.39-.05c-.52,0-.9.1-1.16.31-.25.2-.49.58-.71,1.13l-4.39,11.15h0Z"/>
        <path id="uuid-1171a9fa-4bbe-4067-bd31-43ca53efd16a" data-name=" 124446800" class="uuid-96228d5a-bd44-4a50-8e6c-14a5e839f4d8" d="m75.67,7.65c0-.45-.1-.78-.3-.99-.2-.21-.51-.32-.94-.32-.22,0-.5.02-.84.07l-.63.07c-.15,0-.27-.01-.36-.05-.1-.03-.2-.09-.3-.18-.17-.14-.26-.34-.26-.59,0-.28.09-.49.26-.63.17-.14.44-.21.78-.21h7.42c.34,0,.6.07.78.21.18.14.27.35.27.64,0,.24-.09.44-.27.59-.18.15-.41.23-.68.23l-.64-.07c-.31-.05-.59-.07-.83-.07-.42,0-.72.11-.92.32-.2.21-.3.54-.3.99v9.61c0,.44.1.78.29,1.01.2.21.5.32.92.32.15,0,.27,0,.35-.01.08,0,.24-.03.47-.07l.64-.08c.27,0,.49.08.68.23.18.15.27.34.27.58,0,.28-.09.49-.27.64-.18.14-.44.21-.78.21h-7.42c-.34,0-.6-.07-.78-.2-.18-.14-.26-.35-.26-.65,0-.24.09-.43.26-.58.17-.15.39-.23.66-.23.11,0,.32.03.63.08.18.02.33.04.46.06.13.01.26.02.38.02.41,0,.71-.11.93-.33.21-.23.32-.56.32-1V7.65s0,0,0,0Z"/>
        <polygon id="uuid-0887447b-ba39-4517-90ce-496c43a916d3" data-name=" 124446752" class="uuid-96228d5a-bd44-4a50-8e6c-14a5e839f4d8" points="86.46 .99 86.46 5.49 85.11 5.49 85.11 .99 86.46 .99"/>
        <path id="uuid-c8e8e94a-f4fe-4495-8499-2376bc27b794" data-name=" 124446416" class="uuid-96228d5a-bd44-4a50-8e6c-14a5e839f4d8" d="m102.15,18.95l.03.29v.16c0,.31-.07.55-.21.7-.14.16-.38.23-.69.23-.24,0-.45-.09-.63-.27-.18-.18-.26-.41-.26-.69v-4.99c0-.36.08-.64.23-.84.16-.2.37-.3.66-.3.3,0,.53.11.68.32.15.22.22.54.22.98v.76c0,1.02.37,1.84,1.11,2.46.74.62,1.72.94,2.93.94,1.13,0,2.01-.26,2.65-.77.64-.51.96-1.21.96-2.11,0-.74-.2-1.28-.62-1.65-.41-.36-1.49-.73-3.25-1.1l-.19-.04c-1.8-.35-2.97-.7-3.49-1.04-.53-.34-.93-.77-1.23-1.28-.29-.52-.43-1.09-.43-1.74,0-1.31.47-2.36,1.41-3.18.94-.82,2.16-1.22,3.67-1.22.7,0,1.36.1,1.98.3.63.2,1.19.49,1.68.89v-.09c0-.26.06-.46.19-.61.13-.15.31-.23.53-.23.23,0,.43.06.59.17.16.11.24.26.24.43,0,.26-.01.47-.01.64-.03,1.18-.05,2.02-.05,2.52,0,.35,0,.65.01.91,0,.25.03.42.05.51,0,.34-.06.59-.18.74-.12.15-.33.23-.62.23-.2,0-.38-.05-.54-.14-.14-.1-.24-.25-.29-.44-.06-.19-.08-.53-.08-1s-.02-.86-.07-1.14c-.09-.63-.46-1.14-1.11-1.52-.65-.38-1.44-.57-2.38-.57s-1.63.23-2.15.68c-.53.45-.79,1.08-.79,1.87,0,.68.23,1.21.69,1.59.46.37,1.48.73,3.05,1.05l.65.13c1.7.33,2.8.69,3.31,1.08.45.34.79.75,1.02,1.25.23.5.34,1.06.34,1.71,0,1.45-.49,2.6-1.48,3.47-.98.86-2.31,1.29-3.99,1.29-.84,0-1.6-.11-2.27-.32-.67-.22-1.31-.56-1.91-1.03h0Z"/>
        <polygon id="uuid-98102f8f-05f6-4f25-85be-c20d7e7563a7" data-name=" 124446104" class="uuid-96228d5a-bd44-4a50-8e6c-14a5e839f4d8" points="37.46 .32 37.46 24.37 36.79 24.37 36.79 .32 37.46 .32"/>
        <polygon id="uuid-52cbea67-0174-4948-9602-e46541e8d49e" data-name=" 124446032" class="uuid-96228d5a-bd44-4a50-8e6c-14a5e839f4d8" points="65.1 .32 65.1 24.37 64.43 24.37 64.43 .32 65.1 .32"/>
        <polygon id="uuid-a530c720-3f5e-4ef3-bd99-ee8e9944babe" data-name=" 124445984" class="uuid-96228d5a-bd44-4a50-8e6c-14a5e839f4d8" points="95.22 .32 95.22 24.37 94.55 24.37 94.55 .32 95.22 .32"/>
        <path id="uuid-4d057888-481a-4fd3-8413-c61bf1101200" data-name=" 124446200" class="uuid-c399f367-0696-4f19-a997-fc1a4c6caad1" d="m114.34,1.44c0,.8-.64,1.44-1.44,1.44s-1.44-.64-1.44-1.44S112.1,0,112.9,0s1.44.65,1.44,1.44Z"/>
        <path id="uuid-b1dac5d7-4b4b-4ede-901e-cbac5f5cc0a1" data-name=" 124445840" class="uuid-96228d5a-bd44-4a50-8e6c-14a5e839f4d8" d="m112.53,1.44h.28c.29,0,.47-.16.47-.4,0-.27-.2-.39-.48-.39-.13,0-.22.01-.27.03v.76h0Zm-.22-.94c.14-.03.34-.05.52-.05.29,0,.48.06.61.17.1.09.17.23.17.4,0,.27-.18.46-.4.53v.02c.17.06.27.2.33.42.07.29.13.49.17.57h-.3c-.04-.06-.09-.24-.15-.5-.07-.29-.19-.39-.45-.4h-.27v.9h-.22V.5Z"/>
        <path id="uuid-ba9183db-a25c-4ec7-84cc-2cf16d89e3a4" data-name=" 124445696" class="uuid-96228d5a-bd44-4a50-8e6c-14a5e839f4d8" d="m8.37,47.11c-.16.12-.24.27-.24.45s.08.32.24.45c.16.12.35.19.58.19s.41-.06.57-.19c.16-.12.24-.27.24-.45,0-.18-.08-.34-.25-.46-.16-.12-.35-.18-.57-.18-.23,0-.42.06-.58.19h0Z"/>
        <polygon id="uuid-5806c6f8-0761-4bc4-a2ff-7f3557c7eac8" data-name=" 124446320" class="uuid-96228d5a-bd44-4a50-8e6c-14a5e839f4d8" points="12.06 48.86 12.06 49.31 13.64 49.31 13.64 48.86 13.19 48.86 13.19 46.38 14.69 49.31 14.82 49.31 16.33 46.38 16.33 48.86 15.66 48.86 15.66 49.31 17.46 49.31 17.46 48.86 17.01 48.86 17.01 46.17 17.46 46.17 17.46 45.72 15.93 45.72 14.75 48.18 13.58 45.72 12.06 45.72 12.06 46.17 12.51 46.17 12.51 48.86 12.06 48.86"/>
        <path id="uuid-02f46afb-de65-4609-bdbf-0cbd93d6d270" data-name=" 124445768" class="uuid-96228d5a-bd44-4a50-8e6c-14a5e839f4d8" d="m20.63,47.13c-.35-.24-.72-.36-1.15-.36s-.81.12-1.14.36c-.33.24-.5.55-.5.93s.17.71.51.94c.34.23.75.35,1.23.35.31,0,.61-.05.89-.16.29-.1.51-.26.69-.48l-.55-.19c-.25.27-.59.4-1.02.4-.29,0-.54-.07-.72-.21-.19-.14-.31-.32-.35-.55h2.64c-.01-.47-.19-.82-.53-1.06h0Zm-2.09.83c.04-.2.15-.36.33-.49.17-.13.39-.19.63-.19.27,0,.49.07.68.21.19.14.31.3.35.47h-1.98Z"/>
        <path id="uuid-4ac904c8-2b6b-43d6-b23b-b1b2723532aa" data-name=" 124446272" class="uuid-96228d5a-bd44-4a50-8e6c-14a5e839f4d8" d="m21.73,46.84v.45h.45v1.57h-.67v.45h1.8v-.45h-.67v-1.31c.36-.21.68-.31.97-.31.1,0,.19.03.27.08.08.06.11.18.11.37v1.62h1.12v-.45h-.45v-1.19c0-.21-.02-.37-.06-.48-.04-.11-.13-.2-.24-.27-.13-.08-.29-.11-.48-.11-.31,0-.65.11-1.02.33v-.3h-1.12Z"/>
        <path id="uuid-3e0917db-e851-41e4-b4eb-33312367f026" data-name=" 124446176" class="uuid-96228d5a-bd44-4a50-8e6c-14a5e839f4d8" d="m27.49,47.11c-.16.12-.24.27-.24.45s.08.32.24.45c.16.12.35.19.58.19s.41-.06.57-.19c.16-.12.24-.27.24-.45,0-.18-.08-.34-.25-.46-.16-.12-.35-.18-.57-.18-.23,0-.42.06-.58.19h0Z"/>
        <polygon id="uuid-1dcc305b-8435-4ec0-bb4e-1f6a58150f86" data-name=" 124446248" class="uuid-96228d5a-bd44-4a50-8e6c-14a5e839f4d8" points="32.62 49.31 33.64 46.5 34.67 49.31 35.32 49.31 36.46 46.17 37.01 46.17 37.01 45.72 35.44 45.72 35.44 46.17 35.87 46.17 35.06 48.52 34.25 46.17 34.76 46.17 34.76 45.72 32.74 45.72 32.74 46.17 33.25 46.17 32.4 48.52 31.51 46.17 32.07 46.17 32.07 45.72 30.27 45.72 30.27 46.17 30.82 46.17 31.98 49.31 32.62 49.31"/>
        <path id="uuid-7e852e85-0b92-4647-b05e-2232802ef249" data-name=" 124358272" class="uuid-96228d5a-bd44-4a50-8e6c-14a5e839f4d8" d="m37.16,49.03c.31.24.7.36,1.18.36s.84-.12,1.16-.36c.33-.24.49-.55.49-.94s-.16-.7-.49-.94c-.33-.24-.71-.36-1.16-.36s-.86.12-1.18.36c-.32.24-.48.55-.48.93s.16.69.48.93h0Zm.46-1.52c.19-.16.43-.24.72-.24.27,0,.51.08.7.23.19.16.29.35.29.6s-.09.44-.29.6c-.19.16-.43.23-.71.23s-.52-.08-.71-.23-.29-.35-.29-.6.09-.43.29-.59h0Z"/>
        <path id="uuid-1574ba38-b246-44c1-82ff-da7e7af7dd6e" data-name=" 124357888" class="uuid-96228d5a-bd44-4a50-8e6c-14a5e839f4d8" d="m40.38,48.86v.45h1.8v-.45h-.67v-1.31c.38-.21.7-.32.94-.32.15,0,.26.04.32.11.06.07.09.19.09.35v1.62h1.12v-.45h-.45v-1.31c.35-.21.67-.32.95-.32.1,0,.18.02.25.06.07.04.11.09.13.15.02.06.03.16.03.3v1.57h1.12v-.45h-.67v-1.21c0-.21-.02-.37-.07-.48-.05-.1-.13-.19-.27-.26-.13-.07-.3-.1-.51-.1-.35,0-.74.13-1.14.38-.14-.25-.39-.38-.75-.38s-.72.11-1.09.35v-.31h-1.12v.45h.45v1.57h-.45Z"/>
        <path id="uuid-2f9d5ef2-85bf-4b9c-88bb-012beddea3b7" data-name=" 124358176" class="uuid-96228d5a-bd44-4a50-8e6c-14a5e839f4d8" d="m49.03,47.13c-.35-.24-.72-.36-1.15-.36s-.81.12-1.14.36c-.33.24-.5.55-.5.93s.17.71.51.94c.34.23.75.35,1.23.35.31,0,.61-.05.89-.16.29-.1.51-.26.69-.48l-.55-.19c-.25.27-.59.4-1.02.4-.29,0-.54-.07-.73-.21-.19-.14-.31-.32-.35-.55h2.64c-.01-.47-.19-.82-.53-1.06h0Zm-2.09.83c.04-.2.15-.36.33-.49.17-.13.39-.19.63-.19.27,0,.49.07.68.21.19.14.31.3.35.47h-1.98Z"/>
        <path id="uuid-12fe90ac-7212-48ae-b7c8-a51f4189922b" data-name=" 124357792" class="uuid-96228d5a-bd44-4a50-8e6c-14a5e839f4d8" d="m50.05,46.84v.45h.45v1.57h-.45v.45h1.8v-.45h-.67v-1.31c.36-.21.68-.31.97-.31.1,0,.19.03.27.08.08.06.11.18.11.37v1.62h1.12v-.45h-.67v-1.19c0-.21-.02-.37-.06-.48-.04-.11-.13-.2-.24-.27-.13-.08-.29-.11-.48-.11-.31,0-.65.11-1.02.33v-.3h-1.12,0Z"/>
        <path id="uuid-7acb1d14-9a8c-4711-b57b-65c33a4146df" data-name=" 124358152" class="uuid-96228d5a-bd44-4a50-8e6c-14a5e839f4d8" d="m55.89,47.11c-.16.12-.24.27-.24.45,0,.17.08.32.24.45.16.12.35.19.58.19s.41-.06.57-.19c.16-.12.24-.27.24-.45,0-.18-.08-.34-.25-.46-.16-.12-.35-.18-.57-.18-.23,0-.42.06-.58.19h0Z"/>
        <path id="uuid-9e34bbd5-0e40-4f5a-91fd-91461ba13da5" data-name=" 124358104" class="uuid-96228d5a-bd44-4a50-8e6c-14a5e839f4d8" d="m59.26,48.86v.45h1.8v-.45h-.45v-2.7h.67v-.45h-2.02v.45h.67v2.7h-.67Zm2.72,0h-.48v.45h1.8v-.45h-.5l-1.46-1.45,1.43-1.25h.53v-.45h-1.8v.45h.53l-1.48,1.25,1.43,1.45Z"/>
        <path id="uuid-5326f0d8-c778-4030-8da0-078116ceded5" data-name=" 124358512" class="uuid-96228d5a-bd44-4a50-8e6c-14a5e839f4d8" d="m64.18,46.23c.07.06.16.09.27.09.1,0,.19-.03.26-.08.07-.06.11-.13.11-.21,0-.08-.04-.15-.11-.21-.07-.06-.16-.08-.26-.08-.11,0-.2.03-.27.09-.07.06-.11.12-.11.2,0,.08.03.15.11.2h0Zm-.43,2.63v.45h1.57v-.45h-.45v-2.02h-1.12v.45h.45v1.57h-.45Z"/>
        <path id="uuid-a3abcf50-d740-4ada-b398-a384bc15e2a4" data-name=" 124358416" class="uuid-96228d5a-bd44-4a50-8e6c-14a5e839f4d8" d="m68.93,48.86v-3.15h-1.12v.45h.67v1.02c-.44-.26-.8-.39-1.23-.39-.4,0-.76.11-1.08.35-.32.23-.48.55-.48.96s.15.71.47.93c.31.22.67.33,1.08.33.44,0,.82-.13,1.24-.4v.36h1.12v-.45h-.67Zm-2.29-1.38c.19-.16.43-.24.71-.24.26,0,.49.07.7.21.21.14.31.34.31.62s-.1.48-.31.63c-.21.15-.44.23-.7.23s-.51-.07-.71-.22c-.19-.15-.29-.35-.29-.62,0-.24.09-.44.29-.6h0Z"/>
        <path id="uuid-18ced61a-89aa-4c47-8461-a60db9340eb1" data-name=" 124357840" class="uuid-96228d5a-bd44-4a50-8e6c-14a5e839f4d8" d="m70.27,49.31v-.14s.59.18.92.18c.36,0,.65-.07.87-.2.23-.13.34-.32.34-.54,0-.16-.05-.29-.15-.4-.11-.12-.23-.2-.39-.25-.15-.05-.39-.09-.69-.13-.32-.04-.53-.08-.62-.11-.1-.04-.15-.1-.15-.19,0-.09.05-.17.16-.22.1-.06.23-.08.4-.08.32,0,.88.3.88.3v.21h.45v-.9h-.67v.1c-.22-.09-.49-.14-.79-.14-.34,0-.61.07-.82.21-.21.13-.31.31-.31.51,0,.2.1.37.29.49.19.13.51.22.95.28.3.04.51.08.61.12.1.05.15.11.15.21s-.06.17-.18.22c-.12.06-.29.08-.49.08-.19,0-.36-.04-.51-.11-.14-.07-.23-.17-.25-.28v-.12h-.45v.9h.45Z"/>
        <path id="uuid-2ce270e9-7811-4ed0-92c9-7a297a865342" data-name=" 124358344" class="uuid-96228d5a-bd44-4a50-8e6c-14a5e839f4d8" d="m74.87,47.11c-.16.12-.24.27-.24.45s.08.32.24.45c.16.12.35.19.58.19s.41-.06.57-.19c.16-.12.24-.27.24-.45,0-.18-.08-.34-.25-.46-.16-.12-.35-.18-.57-.18-.23,0-.42.06-.58.19h0Z"/>
        <path id="uuid-f48d6500-5b34-4ce3-94d0-41c90782bcd8" data-name=" 124357360" class="uuid-96228d5a-bd44-4a50-8e6c-14a5e839f4d8" d="m79.04,49.31v-.26c.34.24.71.35,1.13.35s.76-.1,1.04-.3c.28-.2.41-.45.41-.76,0-.22-.07-.41-.2-.58-.14-.16-.29-.29-.47-.35-.18-.07-.48-.15-.89-.23-.31-.06-.52-.11-.62-.15-.11-.04-.2-.09-.26-.16-.07-.07-.1-.16-.1-.25,0-.13.07-.23.2-.32s.33-.14.58-.14c.41,0,.74.14.98.42v.26h.45v-1.12h-.45v.24c-.32-.18-.66-.27-1.03-.27s-.71.09-.97.26c-.26.18-.39.41-.39.71,0,.19.06.35.18.49.12.14.28.25.47.32.2.08.51.16.92.24.35.07.6.15.73.22.13.07.19.19.19.36,0,.18-.08.32-.24.42-.16.11-.35.16-.58.16-.45,0-.81-.19-1.09-.58v-.33h-.67v1.35h.67Z"/>
        <path id="uuid-0142bbfc-9615-408c-8301-0bdb42ca1520" data-name=" 124357768" class="uuid-96228d5a-bd44-4a50-8e6c-14a5e839f4d8" d="m84.85,47.13c-.35-.24-.72-.36-1.15-.36s-.81.12-1.14.36c-.33.24-.5.55-.5.93s.17.71.51.94c.34.23.75.35,1.23.35.31,0,.61-.05.89-.16.29-.1.51-.26.69-.48l-.55-.19c-.25.27-.59.4-1.02.4-.29,0-.54-.07-.73-.21-.19-.14-.31-.32-.35-.55h2.64c-.01-.47-.19-.82-.53-1.06h0Zm-2.09.83c.04-.2.15-.36.33-.49.17-.13.39-.19.63-.19.27,0,.49.07.68.21.19.14.31.3.35.47h-1.98Z"/>
        <path id="uuid-164c4796-5882-424b-8511-16e9123f4da9" data-name=" 124357624" class="uuid-96228d5a-bd44-4a50-8e6c-14a5e839f4d8" d="m85.78,46.84v.45h.45v1.57h-.45v.45h1.8v-.45h-.67v-1.31c.36-.21.68-.31.97-.31.1,0,.19.03.27.08.08.06.11.18.11.37v1.62h1.12v-.45h-.45v-1.19c0-.21-.02-.37-.06-.48-.04-.11-.13-.2-.24-.27-.13-.08-.29-.11-.48-.11-.31,0-.65.11-1.02.33v-.3h-1.35Z"/>
        <path id="uuid-d08371dd-5161-44d7-9982-0fbecb261b1a" data-name=" 124357408" class="uuid-96228d5a-bd44-4a50-8e6c-14a5e839f4d8" d="m90.16,46.23c.07.06.16.09.27.09.1,0,.19-.03.26-.08.07-.06.11-.13.11-.21,0-.08-.04-.15-.11-.21-.07-.06-.16-.08-.26-.08-.11,0-.2.03-.27.09-.07.06-.11.12-.11.2s.03.15.11.2h0Zm-.56,2.63v.45h1.57v-.45h-.45v-2.02h-1.12v.45s.45,0,.45,0v1.57h-.45,0Z"/>
        <path id="uuid-f7aa9df8-0088-472b-ba89-579af88bca1a" data-name=" 124357528" class="uuid-96228d5a-bd44-4a50-8e6c-14a5e839f4d8" d="m92.11,49.03c.31.24.71.36,1.18.36s.84-.12,1.16-.36c.33-.24.49-.55.49-.94s-.16-.7-.49-.94c-.33-.24-.71-.36-1.16-.36s-.86.12-1.18.36c-.32.24-.48.55-.48.93,0,.38.16.69.48.93h0Zm.46-1.52c.19-.16.43-.24.72-.24.27,0,.51.08.71.23.19.16.29.35.29.6,0,.24-.09.44-.29.6-.19.16-.43.23-.71.23s-.52-.08-.71-.23c-.19-.16-.29-.35-.29-.6s.09-.43.29-.59h0Z"/>
        <path id="uuid-300c9fb9-b827-4ec0-974d-8c3c881b47f0" data-name=" 124357600" class="uuid-96228d5a-bd44-4a50-8e6c-14a5e839f4d8" d="m95.22,48.86v.45h2.02v-.45h-.67v-.62c0-.31.04-.52.12-.64.08-.12.2-.2.36-.25.16-.04.41-.07.73-.07h.13v-.45h-.2s-.43,0-.57.03c-.14.03-.27.09-.39.19-.13.09-.23.21-.19.35v-.35h-1.35v.22h.67v1.57h-.67Z"/>
        <path id="uuid-2872d9bd-51b3-4208-a060-fa3fa4d596aa" data-name=" 124357024" class="uuid-96228d5a-bd44-4a50-8e6c-14a5e839f4d8" d="m102.41,46.84v.19c-.36-.16-.66-.24-1.01-.24-.41,0-.76.12-1.08.36-.31.24-.47.54-.47.91,0,.35.14.65.43.92.29.26.68.4,1.18.4.71,0,1.2-.24,1.48-.73l-.51-.19c-.19.32-.51.48-.94.48-.31,0-.55-.09-.71-.26-.17-.18-.25-.38-.25-.61,0-.25.09-.45.26-.61.17-.15.4-.23.67-.23.21,0,.39.05.55.14.16.1.25.23.28.36h.57v-.9h-.57.12Z"/>
        <path id="uuid-9b875c0b-2fa2-4d8a-aba8-65fab76c64f1" data-name=" 124357216" class="uuid-96228d5a-bd44-4a50-8e6c-14a5e839f4d8" d="m103.82,46.23c.07.06.16.09.27.09.1,0,.19-.03.26-.08.07-.06.11-.13.11-.21,0-.08-.04-.15-.11-.21-.07-.06-.16-.08-.26-.08-.11,0-.2.03-.27.09-.07.06-.11.12-.11.2s.03.15.11.2h0Zm-.51,2.63v.45h1.57v-.45h-.45v-2.02h-1.12v.45h.45v1.57h-.45Z"/>
        <path id="uuid-c77e6acc-c6e6-4140-9cff-bc68f1742d44" data-name=" 124357288" class="uuid-96228d5a-bd44-4a50-8e6c-14a5e839f4d8" d="m105.78,47.29v1.24c0,.23.01.38.04.48.03.09.09.17.21.23.11.06.25.09.43.09.15,0,.29-.02.44-.06v-.41s-.28.05-.4.05c-.11,0-.17-.02-.2-.07-.03-.05-.04-.16-.07-.35v-1.2h.67v-.45h-.67v-.82l-.67.44.22.38h-.45v.45h.45,0Z"/>
        <path id="uuid-a570a07d-105c-4418-a67d-6ef03f14a849" data-name=" 124357432" class="uuid-96228d5a-bd44-4a50-8e6c-14a5e839f4d8" d="m107.77,46.23c.07.06.16.09.27.09.1,0,.19-.03.26-.08.07-.06.11-.13.11-.21,0-.08-.04-.15-.11-.21-.07-.06-.16-.08-.26-.08-.11,0-.2.03-.27.09-.07.06-.11.12-.11.2s.03.15.11.2h0Zm-.41,2.63v.45h1.57v-.45h-.45v-2.02h-1.12v.45h.45v1.57h-.45Z"/>
        <polygon id="uuid-ff0d9a84-2593-4f2b-b522-eb6e421cba09" data-name=" 124357672" class="uuid-96228d5a-bd44-4a50-8e6c-14a5e839f4d8" points="111.85 49.31 111.85 48.42 111.4 48.42 111.4 48.86 109.93 48.86 111.85 47.27 111.85 46.84 109.38 46.84 109.38 47.74 109.83 47.74 109.83 47.29 111.13 47.29 109.16 48.92 109.16 49.31 111.85 49.31"/>
        <path id="uuid-3e826764-f932-43ca-8093-d63e29b4372a" data-name=" 124358632" class="uuid-96228d5a-bd44-4a50-8e6c-14a5e839f4d8" d="m114.93,47.13c-.35-.24-.72-.36-1.15-.36s-.81.12-1.14.36c-.33.24-.5.55-.5.93,0,.39.17.71.51.94.34.23.75.35,1.23.35.31,0,.61-.05.89-.16.29-.1.51-.26.69-.48l-.55-.19c-.25.27-.59.4-1.02.4-.29,0-.54-.07-.72-.21-.19-.14-.31-.32-.35-.55h2.64c-.01-.47-.19-.82-.53-1.06h0Zm-2.09.83c.04-.2.15-.36.33-.49.17-.13.39-.19.63-.19.27,0,.49.07.68.21.19.14.31.3.35.47h-1.98Z"/>
        <path id="uuid-e60a320e-1442-459d-90c1-5df85c34c5a1" data-name=" 124358944" class="uuid-96228d5a-bd44-4a50-8e6c-14a5e839f4d8" d="m115.9,46.84v.45h.45v1.57h-.45v.45h1.8v-.45h-.67v-1.31c.36-.21.68-.31.97-.31.1,0,.19.03.27.08.08.06.11.18.11.37v1.62h1.12v-.45h-.67v-1.19c0-.21-.02-.37-.06-.48-.04-.11-.13-.2-.24-.27-.13-.08-.29-.11-.48-.11-.31,0-.65.11-1.02.33v-.3s-1.12,0-1.12,0h0Z"/>
      </g>
    </g>
  </g>
</svg>