<?xml version="1.0" encoding="UTF-8"?>
<svg id="uuid-662814a0-2536-4dcd-8ce6-a6215bb0c277" data-name="Layer 2" xmlns="http://www.w3.org/2000/svg" viewBox="0 0 135.71 35.76">
  <defs>
    <style>
      .uuid-92460416-f37c-48af-80ca-38fde28da923 {
        fill-rule: evenodd;
      }
    </style>
  </defs>
  <g id="uuid-382baf79-dfca-4b67-8823-1476a19c3e44" data-name="Layer 1">
    <g id="uuid-a1b4caec-b5d7-4f27-8d28-6fe5a1e6d675" data-name="Layer_1">
      <g id="uuid-4b1ec7c1-3a58-456a-9f7d-fb635024f240" data-name=" 123240008">
        <polygon id="uuid-c9090a19-6056-4ba6-9864-891e3e364669" data-name=" 123240200" class="uuid-92460416-f37c-48af-80ca-38fde28da923" points=".21 21.3 4.21 21.3 4.21 9.3 .21 9.3 .21 21.3"/>
        <path id="uuid-5d09fbbd-2bc0-47f8-9554-f71fa70ca213" data-name=" 123240608" class="uuid-92460416-f37c-48af-80ca-38fde28da923" d="m1.92.09C.86.09,0,.96,0,2.02s.86,1.92,1.92,1.92,1.92-.86,1.92-1.92S2.99.09,1.92.09Z"/>
        <path id="uuid-5b0fb686-530d-4a4f-ba03-970dbb63bf68" data-name=" 123239984" class="uuid-92460416-f37c-48af-80ca-38fde28da923" d="m6.21,21.3v-4h4.47c1.04,0,1.8-.11,2.29-.33.9-.43,1.37-1.2,1.37-2.23,0-.92-.37-1.6-1.11-2.03-.5-.28-1.28-.42-2.39-.42h-4.63v-4h4.68c.98-.02,1.67-.1,2.12-.3.91-.43,1.38-1.19,1.38-2.24,0-.91-.39-1.62-1.12-2.04-.5-.28-1.29-.42-2.4-.42h-4.66V.3s4.16,0,4.16,0c1.4,0,2.46.09,3.15.27,1.42.36,2.57,1.16,3.43,2.36.71.98,1.07,2.15,1.07,3.47,0,1.64-.5,3.04-1.48,4.14l-.29.33c.12.14.25.29.38.43.52.54.89,1.17,1.11,1.88.19.62.28,1.26.28,1.9,0,2.14-.82,3.83-2.44,5.03-.72.54-1.58.89-2.55,1.05-.55.09-1.29.14-2.2.14h-4.63Z"/>
        <polygon id="uuid-767401b5-e82a-4ee2-bfe2-46eca1bfa269" data-name=" 123240152" class="uuid-92460416-f37c-48af-80ca-38fde28da923" points="24.21 21.3 24.21 .3 28.21 .3 28.21 21.3 24.21 21.3"/>
        <polygon id="uuid-af1c9de2-f7e4-48e2-8be0-2eb3a806a30b" data-name=" 123239888" class="uuid-92460416-f37c-48af-80ca-38fde28da923" points="30.21 12.3 30.21 8.3 40.21 8.3 40.21 12.3 30.21 12.3"/>
        <polygon id="uuid-aa488897-1b5c-42fe-a012-0160d3830721" data-name=" 123240560" class="uuid-92460416-f37c-48af-80ca-38fde28da923" points="30.21 21.3 30.21 17.3 40.21 17.3 40.21 21.3 30.21 21.3"/>
        <polygon id="uuid-6c416b1b-87e7-4573-b952-4e33b40f3d35" data-name=" 123240104" class="uuid-92460416-f37c-48af-80ca-38fde28da923" points="30.21 4.3 30.21 .3 40.21 .3 40.21 4.3 30.21 4.3"/>
        <path id="uuid-4b334ebd-f2bf-484c-836d-21867f3c871e" data-name=" 123240080" class="uuid-92460416-f37c-48af-80ca-38fde28da923" d="m57.69,21.04c-.35,0-.77-.01-1.24-.06-1.98-.29-3.74-1.01-5.21-2.15-1.29-1-2.31-2.24-3.01-3.69-.69-1.41-1.04-2.93-1.04-4.52,0-2.34.72-4.48,2.15-6.33,1.72-2.25,4.12-3.61,7.13-4.07.01,0,.43-.06,1.11-.06.35,0,.77.02,1.24.06,1.39.18,2.71.6,3.89,1.23,1.11.62,2.08,1.43,2.89,2.42l-2.73,2.16c-.95-1.09-2.18-1.86-3.5-2.18-.54-.13-1.11-.2-1.68-.2-1.74,0-3.45.64-4.68,1.75-.73.66-1.31,1.45-1.71,2.36-.41.9-.62,1.87-.62,2.86s.22,2.02.66,2.93c.43.93,1.04,1.73,1.82,2.38,1.37,1.05,2.94,1.6,4.57,1.6.98,0,1.92-.2,2.79-.59.52-.24,1.02-.54,1.46-.9,0,0,.52-.43.9-.86l2.74,2.11c-1.82,2.15-4.05,3.35-6.81,3.67l-.22.03c-.19.02-.5.04-.9.04h0Z"/>
        <path id="uuid-1827b254-7779-4dba-9c7e-068e9f2d3763" data-name=" 123240296" class="uuid-92460416-f37c-48af-80ca-38fde28da923" d="m80.48,21.04c-.35,0-.77-.01-1.24-.06-1.98-.29-3.74-1.01-5.2-2.15-1.29-1-2.31-2.24-3.01-3.69-.69-1.41-1.04-2.93-1.04-4.52,0-2.35.72-4.48,2.15-6.33.23-.3.48-.6.75-.88.26-.27.54-.54.83-.78.29-.24.59-.47.9-.68.31-.21.64-.4.98-.58.34-.18.69-.33,1.05-.47.37-.14.74-.27,1.12-.37.39-.11.79-.2,1.19-.27.47-.08.94-.11,1.41-.11.35,0,.77.02,1.24.06,1.39.18,2.71.6,3.89,1.23,1.11.62,2.08,1.43,2.89,2.42l-2.73,2.16c-.95-1.09-2.18-1.86-3.5-2.18-.54-.13-1.11-.2-1.68-.2-1.74,0-3.45.64-4.68,1.74-.73.66-1.31,1.45-1.71,2.36-.41.9-.62,1.87-.62,2.86s.22,2.02.66,2.94c.43.93,1.04,1.74,1.82,2.38,1.37,1.05,2.94,1.6,4.57,1.6.98,0,1.92-.2,2.8-.59.52-.24,1.02-.54,1.46-.9,0,0,.52-.43.9-.86.67.52,2.06,1.59,2.74,2.11-1.82,2.15-4.05,3.35-6.81,3.67l-.22.03c-.19.02-.5.04-.9.04h0Z"/>
        <path id="uuid-16b61562-4f98-425f-bf0b-cbb66318aaaf" data-name=" 123240176" class="uuid-92460416-f37c-48af-80ca-38fde28da923" d="m103.14,16.99c-3.39,0-6.18-2.46-6.74-5.69h-3.61c.56,5.24,4.94,9.34,10.33,9.34s9.77-4.1,10.33-9.34h-3.58c-.56,3.23-3.35,5.69-6.74,5.69h0Z"/>
        <path id="uuid-5f4c76b5-f4af-4d44-aca8-f016838ef49e" data-name=" 123240272" class="uuid-92460416-f37c-48af-80ca-38fde28da923" d="m103.14,3.52c3.42,0,6.23,2.51,6.75,5.78h3.57c-.57-5.22-4.95-9.3-10.33-9.3s-9.75,4.08-10.33,9.3h3.6c.52-3.27,3.33-5.78,6.75-5.78Z"/>
        <path id="uuid-d4e8f285-4903-4ab9-b1a5-6ce56d98a764" data-name=" 73466336" class="uuid-92460416-f37c-48af-80ca-38fde28da923" d="m130.3,5.3c-.14-.88-.92-1.65-2.08-2.04V.05c1.07.16,2.05.48,2.91.96,1.78,1,2.75,2.41,2.97,4.29h-3.8Z"/>
        <path id="uuid-a8648887-4b7e-4428-9a58-df118847bfd0" data-name=" 73466096" class="uuid-92460416-f37c-48af-80ca-38fde28da923" d="m126.21,21.39c-1.46-.15-2.78-.56-3.93-1.23-2.02-1.18-3.12-2.78-3.36-4.86h3.7c.32,1.32,1.71,2.37,3.59,2.7v3.39h0Z"/>
        <path id="uuid-d80c3ada-61b2-4c67-a407-5d8092061358" data-name=" 73466816" class="uuid-92460416-f37c-48af-80ca-38fde28da923" d="m126.21,3.25V.09c-1.92.14-3.53.73-4.79,1.77-1.33,1.1-1.98,2.38-1.98,3.93,0,1.68.73,3.02,2.22,4.09.83.59,2.04,1.06,3.61,1.4l.94.15v-2.98c-1.79-.25-3.06-1.31-3.06-2.59s1.27-2.34,3.06-2.59h0Z"/>
        <path id="uuid-e92b8e41-256a-41a7-aae5-dfd0f4dc1950" data-name=" 112873192" class="uuid-92460416-f37c-48af-80ca-38fde28da923" d="m131.28,9.1c-.26-.09-.53-.17-.8-.23-.02,0-.05,0-.07-.01-.67-.13-1.34-.23-2.02-.29-.01,0-.18-.01-.18-.02v2.91s.56.01.59.01c.62.05,1.17.2,1.68.56.3.21.58.46.81.75.36.45.6,1.01.6,1.59,0,1.54-1.53,2.88-3.68,3.26v3.38c2.02-.2,3.73-.87,5.08-2,1.48-1.24,2.24-2.75,2.24-4.47,0-.62-.09-1.24-.3-1.83-.2-.57-.52-1.1-.91-1.56-.44-.51-.96-.94-1.53-1.3-.48-.31-.98-.57-1.51-.76h0Z"/>
        <polygon id="uuid-0e166bcf-8a45-4cfe-9bce-1d00afc4d592" data-name=" 112873888" class="uuid-92460416-f37c-48af-80ca-38fde28da923" points=".21 27.3 1.21 27.3 1.21 30.85 4.12 27.3 5.06 27.3 1.81 30.96 5.39 35.3 4.31 35.3 1.21 31.17 1.21 35.3 .21 35.3 .21 27.3"/>
        <path id="uuid-42afdedb-fec3-4263-aedf-8eb3ac824f00" data-name=" 112873648" class="uuid-92460416-f37c-48af-80ca-38fde28da923" d="m5.21,30.99c0-2.47,1.98-4.15,4.27-4.04s3.93,2.04,3.83,4.22-1.83,3.82-4.05,3.82-4.05-1.77-4.05-3.99h0Zm1-.02h0c0,1.83,1.38,3.25,3.19,3.25s3.18-1.48,3.18-3.25-1.34-3.25-3.19-3.25-3.18,1.45-3.18,3.24h0Z"/>
        <path id="uuid-8c71214c-9229-46d9-8aa1-203cca3d4580" data-name=" 112874296" class="uuid-92460416-f37c-48af-80ca-38fde28da923" d="m15.21,27.3h1.87c1.22-.21,1.78-.07,2.18.19.63.38,1.06,1.21,1.06,2.09.01.53-.14,1.08-.46,1.52-.46.63-1.02.78-1.73.85l1.93,2.35h-.94l-2.19-3h.25s1.3.15,1.72-.23c.41-.4.59-.87.59-1.43s-.28-1.19-.77-1.5c-.39-.25-.87-.28-1.57-.84h-.93v7h-1v-7.21.21Z"/>
        <polygon id="uuid-9fa32c73-b3e5-41cd-ad86-e16b305bb2ca" data-name=" 124561336" class="uuid-92460416-f37c-48af-80ca-38fde28da923" points="21.21 27.3 25.21 27.3 25.21 28.3 22.21 28.3 22.21 30.3 25.21 30.3 25.21 31.3 22.21 31.3 22.21 34.3 25.21 34.3 25.21 35.3 21.21 35.3 21.21 27.3"/>
        <path id="uuid-42deb8fe-9b7a-4eab-a136-0b1626194158" data-name=" 124561288" class="uuid-92460416-f37c-48af-80ca-38fde28da923" d="m27.85,34.3h-.8l2.92-7h.76l2.9,7h-.81l-.83-2h-3.32l-.82,2h0Zm2.47-5.89h0l-1.54,3.89h3.1l-1.55-3.89h0Z"/>
        <polygon id="uuid-a337e3ea-d396-4421-812f-ebcc7b1e6e11" data-name=" 124561216" class="uuid-92460416-f37c-48af-80ca-38fde28da923" points="40.21 33.98 40.2 27.3 41.21 27.3 41.21 35.3 40.44 35.3 36.21 28.57 36.23 35.3 35.21 35.3 35.21 27.3 36.02 27.3 40.21 33.98"/>
        <path id="uuid-4a286a9b-8d9c-4e4b-99e6-1925f25717e2" data-name=" 124561192" class="uuid-92460416-f37c-48af-80ca-38fde28da923" d="m46.21,27.3h2.39c1.14,0,2.35.25,3.15,1.2.65.71.96,1.65.96,2.79,0,2.41-1.37,4.01-4.06,4.01h-2.43v-8h0Zm1,7h1.48c1.92,0,2.92-1.18,2.92-2.98,0-.87-.23-1.64-.73-2.18-.48-.5-1.17-.84-2.19-.84h-1.48v6h0Z"/>
        <polygon id="uuid-fa3c743e-84c7-49c9-9c68-90b931afd426" data-name=" 124561048" class="uuid-92460416-f37c-48af-80ca-38fde28da923" points="54.21 27.3 58.21 27.3 58.21 28.3 55.21 28.3 55.21 30.3 58.21 30.3 58.21 31.3 55.21 31.3 55.21 34.3 58.21 34.3 58.21 35.3 54.21 35.3 54.21 27.3"/>
        <path id="uuid-71dff31e-1507-41dd-a6cf-b8c6fc9267c9" data-name=" 124561024" class="uuid-92460416-f37c-48af-80ca-38fde28da923" d="m60.29,33.3c.13,1.38,1.15,1.67,1.66,1.67.86,0,1.66-.66,1.66-1.58,0-1.17-1-1.43-1.97-1.74-.67-.2-2.12-.63-2.12-2.2-.02-1.47,1.2-2.29,2.47-2.29,1.03,0,2.22.57,2.36,2.15h-.92c-.1-.54-.37-1.36-1.47-1.36-.83,0-1.52.56-1.52,1.43-.01,1.01.81,1.26,2.07,1.69.79.3,2.02.74,2.02,2.27,0,1.36-1.02,2.44-2.57,2.44-1.39,0-2.55-.88-2.61-2.46h.93Z"/>
        <polygon id="uuid-e46808ed-db30-43fa-b8a1-359c5c77dc68" data-name=" 124561360" class="uuid-92460416-f37c-48af-80ca-38fde28da923" points="66.21 27.3 65.21 27.3 65.21 35.3 66.21 35.3 66.21 27.3"/>
        <path id="uuid-90110401-cab9-4f53-949a-bd6733a610fe" data-name=" 124561168" class="uuid-92460416-f37c-48af-80ca-38fde28da923" d="m74.86,29.3c-.26-.36-.57-.66-.93-.9-.54-.37-1.19-.58-1.93-.58-1.82,0-3.4,1.39-3.4,3.47s1.6,3.5,3.42,3.5c.88,0,1.65-.3,2.22-.75.58-.46.99-1.09,1.12-1.74h-4.13v-1h4.67c-.01.43-.11.98-.33,1.44-.64,1.4-2.13,2.21-3.63,2.21-2.17,0-3.89-1.67-3.89-3.87s1.75-3.84,3.9-3.84c1.51,0,2.9.84,3.49,2.06h-.56Z"/>
        <polygon id="uuid-1341f770-0ce9-4c7a-bf06-38cd2eadc6ea" data-name=" 124560544" class="uuid-92460416-f37c-48af-80ca-38fde28da923" points="83.21 33.98 83.2 27.3 83.21 27.3 83.21 35.3 82.44 35.3 78.21 28.57 78.23 35.3 78.21 35.3 78.21 27.3 79.03 27.3 83.21 33.98"/>
        <polygon id="uuid-1a5d7320-0bbe-4599-9660-6a13ac7c4568" data-name=" 124560088" class="uuid-92460416-f37c-48af-80ca-38fde28da923" points="85.21 27.3 89.21 27.3 89.21 28.3 86.21 28.3 86.21 30.3 89.21 30.3 89.21 31.3 86.21 31.3 86.21 34.3 89.21 34.3 89.21 35.3 85.21 35.3 85.21 27.3"/>
        <path id="uuid-93b5a4ac-10c6-469e-8914-61b9147ef35b" data-name=" 124559944" class="uuid-92460416-f37c-48af-80ca-38fde28da923" d="m91.21,27.3h2.17c1.22-.21,1.78-.07,2.18.19.63.38,1.06,1.21,1.06,2.09.01.53-.14,1.08-.46,1.52-.46.63-1.02.78-1.73.85l1.93,2.35h-.94l-2.19-3h.25s1.3.15,1.72-.23c.41-.4.59-.87.59-1.43s-.28-1.19-.77-1.5c-.39-.25-.87-.28-1.57-.84h-1.24v7h-1v-7Z"/>
        <path id="uuid-4245d55e-c321-489f-bd3a-de8ab96896a6" data-name=" 124560016" class="uuid-92460416-f37c-48af-80ca-38fde28da923" d="m101.21,27.3h2.11c.72,0,1.22.13,1.58.38.65.37.86,1.04.86,1.66,0,.94-.53,1.42-1.07,1.7,1.44.44,1.53,1.66,1.53,2.03-.01.86-.41,1.51-1.09,1.87-.48.29-.93.36-1.72.36h-2.21v-8h0Zm1,3h-.32,1.18c.36.15.67.1.91-.01.49-.27.63-.68.63-1.15,0-.57-.3-.96-.63-1.1-.2-.1-.46-.17-.96-.73h-.8v3.15-.15Zm0,4h1.45c.33,0,.68-.03.98-.15.48-.21.83-.62.84-1.33,0-.65-.35-1.13-.86-1.35-.36-.15-.63-.16-1.13-.16h-1.29v3Z"/>
        <path id="uuid-b952a344-9fa1-4d96-b760-9b1e7e40c85e" data-name=" 124559728" class="uuid-92460416-f37c-48af-80ca-38fde28da923" d="m107.21,27.3h2.01c1.22-.21,1.78-.07,2.18.19.63.38,1.06,1.21,1.06,2.09.01.53-.14,1.08-.46,1.52-.46.63-1.02.78-1.73.85l1.93,2.35h-.94l-2.19-3h.25s1.3.15,1.72-.23c.41-.4.59-.87.59-1.43s-.28-1.19-.77-1.5c-.39-.25-.87-.28-1.57-.84h-1.07v7h-1v-7.21.21Z"/>
        <path id="uuid-0e4f7faf-0ffa-4efb-bc5b-496f96825ef9" data-name=" 124559440" class="uuid-92460416-f37c-48af-80ca-38fde28da923" d="m114.11,34.3h-.8l2.92-7h.76l2.89,7h-.81l-.83-2h-3.32l-.82,2h0Zm2.47-5.89h0l-1.54,3.89h3.1l-1.55-3.89h0Z"/>
        <polygon id="uuid-9917caf3-dd40-428b-b8a4-96727c76cbf4" data-name=" 124560040" class="uuid-92460416-f37c-48af-80ca-38fde28da923" points="126.21 33.98 126.2 27.3 127.21 27.3 127.21 35.3 126.44 35.3 122.21 28.57 122.23 35.3 121.21 35.3 121.21 27.3 122.03 27.3 126.21 33.98"/>
        <path id="uuid-3a582de0-cc1d-4e8e-8196-c8ab10883e8d" data-name=" 124559824" class="uuid-92460416-f37c-48af-80ca-38fde28da923" d="m129.21,27.3h2.39c1.14,0,2.35.25,3.15,1.2.65.71.96,1.65.96,2.79,0,2.41-1.37,4.01-4.07,4.01h-2.43v-8h0Zm1,7h1.48c1.92,0,2.92-1.18,2.92-2.98,0-.87-.23-1.64-.73-2.18-.48-.5-1.17-.84-2.19-.84h-1.48v6h0Z"/>
      </g>
    </g>
  </g>
</svg>