<?xml version="1.0" encoding="UTF-8"?>
<svg id="uuid-a4614bb2-de53-4350-87da-3c8101c71aae" data-name="Layer 2" xmlns="http://www.w3.org/2000/svg" viewBox="0 0 164.08 98.23">
  <defs>
    <style>
      .uuid-bd6b29e0-929d-43dc-8e5c-4009d46a822c {
        fill: none;
        stroke: #231f20;
        stroke-miterlimit: 10;
      }

      .uuid-1486e4ca-5f43-4e27-bc9a-fb35f259929f {
        font-family: MyriadPro-Regular, 'Myriad Pro';
        font-size: 12px;
      }

      .uuid-1486e4ca-5f43-4e27-bc9a-fb35f259929f, .uuid-13f8e863-2dc5-4240-a70d-65c674a85e7e {
        fill: #231f20;
      }
    </style>
  </defs>
  <g id="uuid-49c25828-5041-484a-b1e8-5ae42af3d308" data-name="Layer 1">
    <g>
      <path class="uuid-bd6b29e0-929d-43dc-8e5c-4009d46a822c" d="m163.58,15.57c0-7.81-5.95-14.24-13.56-14.99-.32,1.31-.76,2.61-1.18,3.9-.23.7-.25,1.1.63,1.03.91-.07,1.47.47,1.56,1.24.24,1.97.38,3.95.45,5.92.03.95-.18,1.9-.27,2.78-.8-2.79-1.59-5.58-2.43-8.5-1.77,4.09-4.75,7-8.07,9.97.1-.39.11-.56.18-.69,1.68-2.98,3.31-5.99,5.08-8.92.49-.81,1.41-1.36,2.1-2.06.19-.19.3-.45.41-.7.59-1.3.98-2.63,1.27-3.99-.41-.03-.83-.06-1.25-.06h-2.48c-.14.48-.34.95-.81,1.31-.07-.2-.14-.39-.24-.64-1.51,2.24-2.96,4.42-4.44,6.59-.35.51-.59.94.07,1.41.18.13.26.5.28.76.2,4.3-.78,8.37-2.5,12.29-.04.09-.14.15-.11.12.2-3.83.41-7.76.62-11.79-.3.63-.58,1.2-.85,1.78-.04-.01-.08-.02-.12-.04.19-.65.38-1.3.57-1.95-1.54,1.79-3.7,2.32-5.85,2.76-.74.15-1.49.29-2.24.42.3.81.59,1.62.88,2.43.12.33.24.66.37.99.69-.42,1.42-.8,2.2-1.12-.01,0-.02,0-.03,0h.04s0-.01-.01,0c.94-.32,1.59.34,1.97.92.23.36-.05,1.21-.32,1.72,0,.01-.02.03-.03.04.04-.04.08-.08.13-.12.12.26.24.53.34.81.06-.25.11-.51.17-.77,0,0-.01,0-.02-.01l.03-.03s0,.03-.01.05c.99.65,1.13,1.74,1.17,2.73.09,2.36.1,4.74-.01,7.1-.13,2.66-.42,5.32-.82,7.99-.58-3.21-1.24-6.42-1.72-9.65-.17-1.15-.15-2.29.02-3.4-.68.93-1.4,1.84-2.08,2.77-.96,1.32-1.87,2.64-1.96,4.08-.21-1.26.03-2.64.32-4.04.39-1.85,1.02-3.72,2.46-5.46.1-.12.21-.24.31-.36-.54.35-1.12.64-1.7.93-2.15,1.09-4.32,2.15-6.45,3.28-1.59.84-3.14,1.77-4.71,2.66-.06-.08-.12-.15-.18-.23,1.54-1.56,3.03-3.15,4.62-4.66,1.63-1.55,3.24-3.13,5.05-4.43-.09-.1-.17-.19-.26-.29-.96-1.11-1.88-2.25-2.71-3.45-.96.15-1.92.31-2.87.47-.1-.12-.21-.24-.31-.36.21-.09.46-.13.62-.28.53-.46,1.06-.9,1.61-1.31-.52-.87-1-1.76-1.4-2.71-.63-1.49-1.06-2.99-.41-4.63.24-.6.17-1.32.26-2.18-.66.82-1.24,1.53-1.81,2.25-.04.06-.06.15-.05.23.26,2.96-.55,5.75-1.37,8.53-.43,1.46-1.08,2.85-1.71,4.25,0-3.02.54-5.94,1.35-8.88-2.23,3.97-4.42,7.88-6.64,11.82.23-2.59.96-5.01,1.98-7.34,1.09-2.51,2.42-4.88,4.11-7.03.2-.25.44-.55.72-.64,1.36-.45,1.87-1.73,2.74-2.65-.03-.05-.05-.09-.08-.14-.27.09-.56.15-.81.29-.88.48-1.78.94-2.6,1.5-2.01,1.36-4.28,2.08-6.59,2.56-1.99.42-4.06.48-6.09.7l-.08-.61c.41-.26.86-.49,1.23-.79,1.94-1.56,4.21-2.41,6.57-3.05,1.05-.28,2.1-.54,3.15-.82,1.5-.39,3-.37,4.49,0,.6.15,1.08.16,1.52-.39.38-.47.88-.84,1.4-1.32-.23-.08-.36-.13-.57-.21.37-.2.7-.39,1.04-.58.05.01.11.03.12.03.03,0,.17.06.24.09.02.01.06.04.1.06-.49.65-.96,1.32-1.55,1.85-.64.57-.77,1.25-.89,1.99-.02.1.01.2.02.38,1.3-.25,1.76.74,2.27,1.58.79,1.3,1.47,2.66,2.07,4.05,1.53-.84,3.17-1.46,4.98-1.73,1.69-.25,3.41-.28,5.11-.41.67-.96,1.36-1.9,2.01-2.87,1.15-1.72,2.31-3.45,3.46-5.19H15.57C7.25.5.5,7.25.5,15.57v40.26l13.04,2.48-13.04,1.3v2.91c0,8.32,6.75,15.07,15.07,15.07h132.94c8.32,0,15.07-6.75,15.07-15.07V24.45l-15.28-.41,15.28-3.3v-5.16Z"/>
      <g>
        <path class="uuid-13f8e863-2dc5-4240-a70d-65c674a85e7e" d="m35.22,44.21h12.28c.33,0,.78-.48,1.01-.68.12-.1.77-.89.84-.89h-12.28c-.33,0-.78.48-1.01.68-.12.1-.77.89-.84.89h0Z"/>
        <path class="uuid-13f8e863-2dc5-4240-a70d-65c674a85e7e" d="m43.31,42.64c-2.71,1.21-5.41,3.78-5.48,6.91-.04,1.95.81,3.79,2.84,4.25,1.66.37,3.67.25,5.16-.58.47-.27.92-.65,1.3-1.04.08-.08.62-.65.22-.42-1.84,1.04-5.52,1.1-6.87-.82-1.26-1.81-1.14-5.74,1.1-6.74.45-.2.84-.57,1.2-.89.12-.11.61-.7.54-.67h0Z"/>
        <path class="uuid-13f8e863-2dc5-4240-a70d-65c674a85e7e" d="m46.88,41.44h3.04c.33,0,.78-.48,1.01-.68.22-.18.44-.37.63-.58.02-.03.24-.3.21-.3h-1.6c-.33,0-.78.48-1.01.68-.22.18-.44.37-.63.58-.02.03-.24.3-.21.3h1.6c.62-.52,1.24-1.05,1.85-1.57h-3.04c-.33,0-.78.48-1.01.68-.22.18-.44.37-.63.58-.02.03-.24.3-.21.3h0Z"/>
        <path class="uuid-13f8e863-2dc5-4240-a70d-65c674a85e7e" d="m49.66,41.57v12.24s.93-.61,1.01-.68c.2-.17.84-.58.84-.89v-12.24s-.93.61-1.01.68c-.2.17-.84.58-.84.89h0Z"/>
        <path class="uuid-13f8e863-2dc5-4240-a70d-65c674a85e7e" d="m51.5,48.86c.08-1.12.37-2.25,1.61-2.38,1.1-.11,2.23.38,3.03,1.11,1.92,1.75,1.11,4.31-.37,6.06-.31.37.4-.11.45-.14.44-.31.89-.69,1.24-1.11.95-1.13,1.88-2.73,1.72-4.28-.18-1.81-2.19-3.21-3.91-3.23-2.62-.02-5.44,3.04-5.63,5.53,0,0,.92-.61,1.01-.68.22-.19.82-.56.84-.89h0Z"/>
        <path class="uuid-13f8e863-2dc5-4240-a70d-65c674a85e7e" d="m82.22,41.53v12.39s.93-.61,1.01-.68c.2-.17.84-.58.84-.89v-12.39s-.93.61-1.01.68c-.2.17-.84.58-.84.89h0Z"/>
        <path class="uuid-13f8e863-2dc5-4240-a70d-65c674a85e7e" d="m79.25,41.44h3.24c.33,0,.78-.48,1.01-.68.22-.18.44-.37.63-.58.02-.03.24-.3.21-.3h-3.24c-.33,0-.78.48-1.01.68-.22.18-.44.37-.63.58-.02.03-.24.3-.21.3h0Z"/>
        <path class="uuid-13f8e863-2dc5-4240-a70d-65c674a85e7e" d="m32.24,48.5l1.56,1.88c.12.14,1.99-1.41,1.85-1.57l-1.56-1.88c-.12-.14-1.99,1.41-1.85,1.57h0Z"/>
        <path class="uuid-13f8e863-2dc5-4240-a70d-65c674a85e7e" d="m73.27,48.5c.52.63,1.04,1.26,1.56,1.88.12.14,1.99-1.41,1.85-1.57l-1.56-1.88c-.12-.14-1.99,1.41-1.85,1.57h0Z"/>
        <path class="uuid-13f8e863-2dc5-4240-a70d-65c674a85e7e" d="m147.36,47.36l1.56,1.88c.12.14,1.99-1.41,1.85-1.57l-1.56-1.88c-.12-.14-1.99,1.41-1.85,1.57h0Z"/>
        <path class="uuid-13f8e863-2dc5-4240-a70d-65c674a85e7e" d="m64.4,43.92c-2.34,1.72-5.02,4.85-3.24,7.94s5.9,2.08,8.22.19c.22-.18,1.09-.73,1.08-1.04,0-.17-.7.38-.75.42-1.87,1.52-4.72,1.11-6.27-.59-.64-.7-.86-1.58-.89-2.52s.25-2.83,1.07-3.44c.29-.22,1.17-.74,1.24-1.11.06-.32-.19-.05-.45.14h0Z"/>
        <path class="uuid-13f8e863-2dc5-4240-a70d-65c674a85e7e" d="m63.49,44.98c.94-.19,2.75-.5,3.4.54.72,1.15-1.47,1.58-2.23,1.87-.45.17-.85.58-1.2.89-.11.1-.64.7-.54.67,1.62-.49,2.68.05,4.2.47.9.25,1.64.12,2.4-.42.44-.31.99-.66,1.31-1.11.19-.27.29-.44-.12-.14-.92.65-2.13-.08-3.04-.36-1.03-.32-1.98-.31-3,0l-1.74,1.57c1.98-.76,3.81-1.67,5.27-3.25.54-.59,1.08-1.31.34-1.95-.9-.78-2.24-.56-3.3-.34-.42.09-.89.62-1.2.89-.1.09-.66.7-.54.67h0Z"/>
        <path class="uuid-13f8e863-2dc5-4240-a70d-65c674a85e7e" d="m86.7,41.5c.23,1.82-.18,4.25-2.07,5-.45.18-.85.58-1.2.89-.11.1-.62.7-.54.67,3.27-1.3,6.13-4.45,5.67-8.14.03.25-1.93.99-1.85,1.57h0Z"/>
        <path class="uuid-13f8e863-2dc5-4240-a70d-65c674a85e7e" d="m143.62,46.33c-1.91-.87-3.83.76-5.21,1.96-1.12.97-3.4,3.17-2.28,4.83,1.09,1.61,3.83-.36,4.86-1.13,1.76-1.31,3.24-2.89,4.61-4.6.3-.38-.4.11-.45.14-.44.31-.9.69-1.24,1.11-.87,1.08-1.75,2.25-3,2.92-.76.41-1.93.89-2.69.25s-.45-1.89-.03-2.66c.69-1.28,2.23-1.87,3.58-1.25.46.21,1.72-1.63,1.85-1.57h0Z"/>
        <path class="uuid-13f8e863-2dc5-4240-a70d-65c674a85e7e" d="m137.21,44.72c5.87-2.47,5.06,12.06,10.39,8.61.42-.27,1.04-.67,1.31-1.11.17-.27.32-.43-.12-.14-3.94,2.54-4.39-11.22-9.84-8.93-.45.19-.85.57-1.2.89-.12.11-.61.7-.54.67h0Z"/>
        <g>
          <path class="uuid-13f8e863-2dc5-4240-a70d-65c674a85e7e" d="m106.61,44.58v9.36s.93-.61,1.01-.68c.2-.17.84-.58.84-.89v-9.36s-.93.61-1.01.68c-.2.17-.84.58-.84.89h0Z"/>
          <path class="uuid-13f8e863-2dc5-4240-a70d-65c674a85e7e" d="m103.64,44.49h3.24c.33,0,.78-.48,1.01-.68.22-.18.44-.37.63-.58.02-.03.24-.3.21-.3h-3.24c-.33,0-.78.48-1.01.68-.22.18-.44.37-.63.58-.02.03-.24.3-.21.3h0Z"/>
          <path class="uuid-13f8e863-2dc5-4240-a70d-65c674a85e7e" d="m100.3,46.33c-1.91-.87-3.83.76-5.21,1.96-1.12.97-3.4,3.17-2.28,4.83,1.09,1.61,3.83-.36,4.86-1.13,1.76-1.31,3.24-2.89,4.61-4.6.3-.38-.4.11-.45.14-.44.31-.9.69-1.24,1.11-.87,1.08-1.75,2.25-3,2.92-.76.41-1.93.89-2.69.25s-.45-1.89-.03-2.66c.69-1.28,2.23-1.87,3.58-1.25.46.21,1.72-1.63,1.85-1.57h0Z"/>
          <path class="uuid-13f8e863-2dc5-4240-a70d-65c674a85e7e" d="m93.88,44.72c5.87-2.47,5.06,12.06,10.39,8.61.42-.27,1.04-.67,1.31-1.11.17-.27.32-.43-.12-.14-3.94,2.54-4.39-11.22-9.84-8.93-.45.19-.85.57-1.2.89-.12.11-.61.7-.54.67h0Z"/>
          <path class="uuid-13f8e863-2dc5-4240-a70d-65c674a85e7e" d="m108.4,45.47c.02-.75.08-1.31.73-1.34.85-.03,1.64-.18,2.46.15,1.1.45,1.72,1.63,1.64,2.8-.05.77-.32,1.51-1.06,1.77-.65.23-1.41.33-2.08.13-1.61-.49-1.66-2.06-1.64-3.44,0-.01-.93.61-1.01.68-.21.17-.84.58-.84.89-.02,1.26-.04,2.69,1.32,3.32,1,.46,2.2.19,3.14-.28,1.6-.79,3.7-2.44,4-4.3.44-2.71-2.32-3.93-4.58-3.17-1.74.59-3.87,2.43-3.92,4.36,0,0,.93-.61,1.01-.68.21-.18.83-.57.84-.89h0Z"/>
          <path class="uuid-13f8e863-2dc5-4240-a70d-65c674a85e7e" d="m107.43,50.36c2.06,1.37,5.44,4.36,8.07,2.87.47-.27.92-.65,1.3-1.04.08-.08.62-.65.22-.42-2.37,1.34-5.91-1.76-7.73-2.98-.33-.22-1.84,1.58-1.85,1.57h0Z"/>
          <path class="uuid-13f8e863-2dc5-4240-a70d-65c674a85e7e" d="m120.9,44.03c-1.87,1.08-3.34,2.7-3.37,4.97-.04,2.52,2.04,5.29,4.76,4.11.45-.19.85-.57,1.2-.89.12-.11.61-.7.54-.67-1.66.72-3.31-.15-4.11-1.68-.38-.74-.56-1.6-.54-2.43,0-.51.09-1.01.24-1.49.23-.72.88-1.09-.24-.45.47-.27.92-.65,1.3-1.04.08-.08.62-.65.22-.42h0Z"/>
          <path class="uuid-13f8e863-2dc5-4240-a70d-65c674a85e7e" d="m120.54,44.68c.84-.82,3.51-.89,4.47-.08,1.16.98.91,3.43.93,4.77.01,1.09-.46,3.79.51,4.57.81.65,1.76-.41,2.32-.93.1-.09.71-.6.54-.67-.18-.08-1.1.8-1.2.89l-.19.17,1.2-.89c-1.77.51-1.31-3.11-1.32-3.97-.01-1.49.33-4.2-.79-5.37-1.03-1.07-3.08-.74-4.29-.23s-2.3,1.43-3.26,2.35c-.21.2-.55.42-.22.42s1.08-.82,1.3-1.04h0Z"/>
        </g>
        <path class="uuid-13f8e863-2dc5-4240-a70d-65c674a85e7e" d="m127.83,44.65c.34-.82,2.25-.54,3.05-.32,1,.26,1.76.88,2.26,1.78,1.06,1.9.77,5.21-1.1,6.59-.29.22-1.17.74-1.24,1.11-.06.32.19.05.45-.14,2.82-2.1,6.13-6.04,3.43-9.6-2.31-3.06-7.42-1-8.69,2.05-.06.16.7-.38.75-.42.33-.25.91-.63,1.08-1.04h0Z"/>
        <path class="uuid-13f8e863-2dc5-4240-a70d-65c674a85e7e" d="m82.54,48.87c1.68-1.04,2.88.25,3.71,1.6s1.66,2.75,2.67,3.98c.71.86,1.62,1.63,2.79,1.58,1.05-.05,1.87-.81,2.6-1.49,1.25-1.15-.07-.32-.66.22.42-.39.31-.23-.02-.31s-.67-.02-1.01-.13c-.56-.18-1.04-.57-1.44-.99-.9-.92-1.61-2.08-2.3-3.16-1.15-1.8-2.36-4.29-4.83-2.76-.47.29-.91.65-1.3,1.04-.08.08-.61.66-.22.42h0Z"/>
      </g>
      <g>
        <polygon class="uuid-13f8e863-2dc5-4240-a70d-65c674a85e7e" points="35.61 32.45 36.01 32.45 36.01 32.11 35.16 32.11 34.12 34.74 33.05 32.11 32.24 32.11 32.24 32.46 32.66 32.46 32.66 36.9 32.19 37.01 32.19 37.27 33.52 37.27 33.52 37.01 33.04 36.9 33.04 33.43 33.95 35.69 34.11 35.69 35.15 33.33 35.15 36.91 34.72 37.05 34.72 37.27 36.02 37.27 36.02 37.01 35.61 36.89 35.61 32.45"/>
        <path class="uuid-13f8e863-2dc5-4240-a70d-65c674a85e7e" d="m38,32.12h-.2l-1.34,4.86-.26.04v.24h1.33v-.29c-.44,0-.52-.03-.52-.03-.17-.1-.08-.37-.08-.37l.67-2.46h.58s.76,2.73.76,2.73c0,.16-.4.13-.4.13l-.02.29h1.22v-.24l-.3-.06-1.44-4.84Zm-.32,1.69l.21-.77v.05s.21.73.21.73h-.43Z"/>
        <path class="uuid-13f8e863-2dc5-4240-a70d-65c674a85e7e" d="m41.96,32.49h.3s.23,0,.14.19l-.77,1.68s-.06.19-.16.18c0,0-.1,0-.2-.26l-.94-1.66s-.11-.2.07-.16h.3v-.31h-1.41v.3h.35s.17-.03.27.23c.21.5,1.12,1.99,1.12,1.99,0,0,.13.24.13.46,0,0,.09,1.36,0,1.8,0,.05-.05.11-.14.13h-.37v.27h1.66v-.27s-.47-.02-.47-.02c0,0-.17,0-.19-.26-.01-.2-.02-1.73-.02-1.73,0,0-.02-.14.32-.83l.79-1.67c.03-.05.08-.09.14-.09h.27v-.32h-1.18v.34Z"/>
        <path class="uuid-13f8e863-2dc5-4240-a70d-65c674a85e7e" d="m45.33,32.46h.29c.08,0,.15.07.15.15v3.62s.03.69-.6.73c-.64.04-.82-.41-.81-.76v-3.61c0-.07.06-.12.12-.12h.26v-.32h-1.36v.32h.29c.07,0,.12.06.12.12v3.61s-.04,1.11,1.33,1.12c0,0,.83.01,1.02-1.05l.03-3.66c0-.08.07-.15.15-.15h.31v-.32h-1.3v.32Z"/>
        <path class="uuid-13f8e863-2dc5-4240-a70d-65c674a85e7e" d="m49.85,36.41s1.6-.41,1.62-2.05c0,0,.05-2.05-2.12-2.2,0,0-.38-.09-1.43.34v-.29h-.96v.38h.43v4.41h-.43v.33h1.71v-.37h-.74l-.03-.82s.14.28.92.43c0,0,.23.04.54,0,0,0,.67,1.16,2.26.61l.02-.1c-.38.02-1.42.03-1.8-.67Zm-.75-.33c-.86-.1-1.2-.58-1.2-.58l.04-2.56c.73-.56,1.02-.44,1.38-.44,1.5-.02,1.67,1.51,1.67,1.51.07.97-.66,1.62-.66,1.62-.59.5-.9.49-1.23.45Z"/>
      </g>
      <g>
        <path class="uuid-13f8e863-2dc5-4240-a70d-65c674a85e7e" d="m71,59.84v-.42h1.44v.42h-1.44Z"/>
        <path class="uuid-13f8e863-2dc5-4240-a70d-65c674a85e7e" d="m77.44,60.66l.7-2.14h.41l-.94,2.69h-.35l-.72-2.11-.72,2.11h-.35l-.94-2.69h.42l.7,2.14.72-2.16h.33l.72,2.16Z"/>
        <path class="uuid-13f8e863-2dc5-4240-a70d-65c674a85e7e" d="m79.61,61.19h-.4v-3.77h.4v1.57c.09-.14.21-.27.35-.37s.33-.15.56-.15c.16,0,.31.03.43.08.13.05.23.13.32.22.09.09.16.21.2.34.05.13.07.28.07.43v1.66h-.4v-1.56c0-.25-.06-.44-.19-.59-.13-.14-.31-.22-.55-.22-.11,0-.22.02-.32.06s-.18.1-.26.17c-.07.07-.13.16-.17.27s-.06.22-.06.34v1.53Z"/>
        <path class="uuid-13f8e863-2dc5-4240-a70d-65c674a85e7e" d="m82.75,60.38c.05.11.13.21.21.28s.18.14.29.18.22.06.34.06c.19,0,.35-.03.48-.1s.25-.16.36-.27l.25.22c-.13.15-.29.27-.46.36-.17.09-.39.14-.64.14-.18,0-.35-.03-.52-.1-.16-.07-.3-.16-.42-.28-.12-.12-.22-.27-.29-.44s-.11-.36-.11-.57c0-.19.03-.38.1-.55.06-.17.15-.32.27-.44.11-.13.25-.22.41-.3.16-.07.33-.11.51-.11.2,0,.37.04.53.11.15.07.29.17.39.3.11.13.19.28.24.45.06.17.08.36.08.55v.06s0,.04,0,.07h-2.11c.01.15.05.27.1.39Zm1.61-.68c-.01-.12-.03-.24-.07-.35-.04-.11-.09-.21-.16-.29-.07-.08-.16-.15-.26-.2-.1-.05-.22-.07-.35-.07-.12,0-.22.02-.32.07-.1.05-.19.11-.26.19-.08.08-.14.18-.19.29-.05.11-.08.23-.09.36h1.71Z"/>
        <path class="uuid-13f8e863-2dc5-4240-a70d-65c674a85e7e" d="m85.86,61.19h-.4v-2.67h.4v.7c.05-.11.11-.21.18-.31.07-.09.15-.17.25-.24.09-.07.19-.12.31-.15.11-.03.23-.05.36-.05v.43h-.03c-.14,0-.28.03-.41.08-.13.05-.24.13-.34.23-.1.1-.17.23-.23.39-.06.15-.08.33-.08.53v1.06Z"/>
        <path class="uuid-13f8e863-2dc5-4240-a70d-65c674a85e7e" d="m87.79,60.38c.05.11.13.21.21.28s.18.14.29.18.22.06.34.06c.19,0,.35-.03.48-.1s.25-.16.36-.27l.25.22c-.13.15-.29.27-.46.36-.17.09-.39.14-.64.14-.18,0-.35-.03-.52-.1-.16-.07-.3-.16-.42-.28-.12-.12-.22-.27-.29-.44s-.11-.36-.11-.57c0-.19.03-.38.1-.55.06-.17.15-.32.27-.44.11-.13.25-.22.41-.3.16-.07.33-.11.51-.11.2,0,.37.04.53.11.15.07.29.17.39.3.11.13.19.28.24.45.06.17.08.36.08.55v.06s0,.04,0,.07h-2.11c.01.15.05.27.1.39Zm1.61-.68c-.01-.12-.03-.24-.07-.35-.04-.11-.09-.21-.16-.29-.07-.08-.16-.15-.26-.2-.1-.05-.22-.07-.35-.07-.12,0-.22.02-.32.07-.1.05-.19.11-.26.19-.08.08-.14.18-.19.29-.05.11-.08.23-.09.36h1.71Z"/>
        <path class="uuid-13f8e863-2dc5-4240-a70d-65c674a85e7e" d="m94.33,58.78c.06-.07.13-.12.2-.17.08-.05.16-.09.26-.11.09-.03.2-.04.32-.04.31,0,.55.1.73.29.18.19.26.45.26.79v1.65h-.4v-1.56c0-.26-.06-.46-.18-.6-.12-.14-.29-.21-.51-.21-.1,0-.19.02-.28.05-.09.04-.17.09-.24.16s-.12.16-.16.26c-.04.1-.06.22-.06.35v1.54h-.39v-1.57c0-.25-.06-.45-.18-.59-.12-.14-.29-.21-.5-.21-.11,0-.21.02-.29.06-.09.04-.17.1-.24.18s-.12.16-.16.27-.06.21-.06.34v1.52h-.4v-2.67h.4v.45c.04-.07.09-.13.15-.19s.11-.12.18-.16c.07-.05.15-.08.23-.11.09-.03.19-.04.3-.04.22,0,.4.05.54.15s.25.23.32.38c.05-.07.1-.14.16-.21Z"/>
        <path class="uuid-13f8e863-2dc5-4240-a70d-65c674a85e7e" d="m99.48,60.39c-.07.17-.17.32-.29.45-.12.13-.27.23-.44.3-.17.07-.36.11-.56.11s-.38-.04-.55-.11c-.17-.07-.32-.17-.44-.3-.12-.13-.22-.27-.29-.44-.07-.17-.1-.35-.1-.54s.03-.37.1-.54c.07-.17.17-.32.29-.45.12-.13.27-.23.44-.3.17-.07.36-.11.56-.11s.38.04.56.11c.17.07.32.17.44.3.12.13.22.27.29.44.07.17.1.35.1.54s-.04.37-.11.54Zm-.38-.94c-.05-.13-.12-.24-.21-.33-.09-.09-.19-.17-.32-.22-.12-.06-.25-.08-.39-.08s-.28.03-.4.08c-.12.05-.22.13-.31.22-.08.09-.15.2-.2.33-.05.13-.07.26-.07.4s.03.28.07.41c.05.13.12.24.21.33.09.09.19.17.31.22s.25.08.39.08.28-.03.4-.08c.12-.05.22-.13.31-.22.09-.09.15-.2.2-.33.05-.13.07-.26.07-.4s-.03-.28-.07-.41Z"/>
        <path class="uuid-13f8e863-2dc5-4240-a70d-65c674a85e7e" d="m100.84,60.43c0,.17.04.28.12.35.08.07.19.1.33.1.07,0,.13,0,.19-.02.06-.01.13-.04.19-.07v.34c-.07.04-.14.07-.22.09-.08.02-.16.03-.26.03-.11,0-.21-.01-.3-.04-.09-.03-.17-.07-.24-.13-.07-.06-.12-.14-.16-.24-.04-.1-.06-.21-.06-.35v-1.61h-.37v-.35h.37v-.81h.4v.81h.85v.35h-.85v1.56Z"/>
        <path class="uuid-13f8e863-2dc5-4240-a70d-65c674a85e7e" d="m102.79,61.19h-.4v-3.77h.4v1.57c.09-.14.21-.27.35-.37s.33-.15.56-.15c.16,0,.31.03.43.08.13.05.23.13.32.22.09.09.16.21.2.34.05.13.07.28.07.43v1.66h-.4v-1.56c0-.25-.06-.44-.19-.59-.13-.14-.31-.22-.55-.22-.11,0-.22.02-.32.06s-.18.1-.26.17c-.07.07-.13.16-.17.27s-.06.22-.06.34v1.53Z"/>
        <path class="uuid-13f8e863-2dc5-4240-a70d-65c674a85e7e" d="m105.92,60.38c.05.11.13.21.21.28s.18.14.29.18.22.06.34.06c.19,0,.35-.03.48-.1s.25-.16.36-.27l.25.22c-.13.15-.29.27-.46.36-.17.09-.39.14-.64.14-.18,0-.35-.03-.52-.1-.16-.07-.3-.16-.42-.28-.12-.12-.22-.27-.29-.44s-.11-.36-.11-.57c0-.19.03-.38.1-.55.06-.17.15-.32.27-.44.11-.13.25-.22.41-.3.16-.07.33-.11.51-.11.2,0,.37.04.53.11.15.07.29.17.39.3.11.13.19.28.24.45.06.17.08.36.08.55v.06s0,.04,0,.07h-2.11c.01.15.05.27.1.39Zm1.61-.68c-.01-.12-.03-.24-.07-.35-.04-.11-.09-.21-.16-.29-.07-.08-.16-.15-.26-.2-.1-.05-.22-.07-.35-.07-.12,0-.22.02-.32.07-.1.05-.19.11-.26.19-.08.08-.14.18-.19.29-.05.11-.08.23-.09.36h1.71Z"/>
        <path class="uuid-13f8e863-2dc5-4240-a70d-65c674a85e7e" d="m109.03,61.19h-.4v-2.67h.4v.7c.05-.11.11-.21.18-.31.07-.09.15-.17.25-.24.09-.07.19-.12.31-.15.11-.03.23-.05.36-.05v.43h-.03c-.14,0-.28.03-.41.08-.13.05-.24.13-.34.23-.1.1-.17.23-.23.39-.06.15-.08.33-.08.53v1.06Z"/>
        <path class="uuid-13f8e863-2dc5-4240-a70d-65c674a85e7e" d="m112.68,61.19h-.4v-2.67h.4v.47c.09-.14.21-.27.35-.37s.33-.15.56-.15c.16,0,.31.03.43.08.13.05.23.13.32.22.09.09.16.21.2.34.05.13.07.28.07.43v1.66h-.4v-1.56c0-.25-.06-.44-.19-.59-.13-.14-.31-.22-.55-.22-.11,0-.22.02-.32.06s-.18.1-.26.17c-.07.07-.13.16-.17.27s-.06.22-.06.34v1.53Z"/>
        <path class="uuid-13f8e863-2dc5-4240-a70d-65c674a85e7e" d="m116,58.88c-.13.04-.26.08-.38.14l-.12-.33c.15-.07.3-.12.45-.16.15-.04.33-.06.52-.06.37,0,.65.09.84.27s.29.45.29.8v1.63h-.38v-.4c-.09.12-.22.23-.37.32-.16.09-.35.14-.59.14-.12,0-.25-.02-.36-.05-.12-.03-.23-.09-.32-.16s-.17-.16-.23-.26c-.06-.1-.09-.23-.09-.37s.03-.27.08-.37c.05-.11.13-.2.23-.27s.22-.13.36-.17.29-.06.46-.06.32.01.45.03c.13.02.25.05.37.08v-.09c0-.24-.07-.42-.21-.55-.14-.12-.34-.18-.59-.18-.16,0-.3.02-.43.05Zm-.13,1.1c-.13.1-.2.24-.2.41,0,.09.02.16.05.23.04.07.08.12.15.17.06.05.13.08.21.11s.17.04.26.04c.12,0,.24-.02.35-.05.11-.04.2-.09.28-.15s.14-.14.19-.23c.05-.09.07-.18.07-.29v-.26c-.1-.03-.21-.05-.34-.08-.13-.02-.28-.04-.44-.04-.25,0-.44.05-.58.15Z"/>
        <path class="uuid-13f8e863-2dc5-4240-a70d-65c674a85e7e" d="m118.97,60.43c0,.17.04.28.12.35.08.07.19.1.33.1.07,0,.13,0,.19-.02.06-.01.13-.04.19-.07v.34c-.07.04-.14.07-.22.09-.08.02-.16.03-.26.03-.11,0-.21-.01-.3-.04-.09-.03-.17-.07-.24-.13-.07-.06-.12-.14-.16-.24-.04-.1-.06-.21-.06-.35v-1.61h-.37v-.35h.37v-.81h.4v.81h.85v.35h-.85v1.56Z"/>
        <path class="uuid-13f8e863-2dc5-4240-a70d-65c674a85e7e" d="m122.42,58.51h.39v2.67h-.39v-.47c-.09.14-.21.27-.35.37-.14.1-.33.15-.56.15-.16,0-.31-.03-.43-.08-.13-.05-.23-.12-.32-.22s-.15-.21-.2-.34c-.05-.13-.07-.28-.07-.43v-1.66h.4v1.56c0,.25.06.44.19.59.13.14.31.22.55.22.11,0,.22-.02.32-.06s.18-.1.25-.17c.07-.07.13-.16.17-.27.04-.1.06-.22.06-.34v-1.53Z"/>
        <path class="uuid-13f8e863-2dc5-4240-a70d-65c674a85e7e" d="m124.1,61.19h-.4v-2.67h.4v.7c.05-.11.11-.21.18-.31.07-.09.15-.17.25-.24.09-.07.19-.12.31-.15.11-.03.23-.05.36-.05v.43h-.03c-.14,0-.28.03-.41.08-.13.05-.24.13-.34.23-.1.1-.17.23-.23.39-.06.15-.08.33-.08.53v1.06Z"/>
        <path class="uuid-13f8e863-2dc5-4240-a70d-65c674a85e7e" d="m126.03,60.38c.05.11.13.21.21.28s.18.14.29.18.22.06.34.06c.19,0,.35-.03.48-.1s.25-.16.36-.27l.25.22c-.13.15-.29.27-.46.36-.17.09-.39.14-.64.14-.18,0-.35-.03-.52-.1-.16-.07-.3-.16-.42-.28-.12-.12-.22-.27-.29-.44s-.11-.36-.11-.57c0-.19.03-.38.1-.55.06-.17.15-.32.27-.44.11-.13.25-.22.41-.3.16-.07.33-.11.51-.11.2,0,.37.04.53.11.15.07.29.17.39.3.11.13.19.28.24.45.06.17.08.36.08.55v.06s0,.04,0,.07h-2.11c.01.15.05.27.1.39Zm1.61-.68c-.01-.12-.03-.24-.07-.35-.04-.11-.09-.21-.16-.29-.07-.08-.16-.15-.26-.2-.1-.05-.22-.07-.35-.07-.12,0-.22.02-.32.07-.1.05-.19.11-.26.19-.08.08-.14.18-.19.29-.05.11-.08.23-.09.36h1.71Z"/>
        <path class="uuid-13f8e863-2dc5-4240-a70d-65c674a85e7e" d="m130.69,61.19h-.4v-2.67h.4v.7c.05-.11.11-.21.18-.31.07-.09.15-.17.25-.24.09-.07.19-.12.31-.15.11-.03.23-.05.36-.05v.43h-.03c-.14,0-.28.03-.41.08-.13.05-.24.13-.34.23-.1.1-.17.23-.23.39-.06.15-.08.33-.08.53v1.06Z"/>
        <path class="uuid-13f8e863-2dc5-4240-a70d-65c674a85e7e" d="m132.62,60.38c.05.11.13.21.21.28s.18.14.29.18.22.06.34.06c.19,0,.35-.03.48-.1s.25-.16.36-.27l.25.22c-.13.15-.29.27-.46.36-.17.09-.39.14-.64.14-.18,0-.35-.03-.52-.1-.16-.07-.3-.16-.42-.28-.12-.12-.22-.27-.29-.44s-.11-.36-.11-.57c0-.19.03-.38.1-.55.06-.17.15-.32.27-.44.11-.13.25-.22.41-.3.16-.07.33-.11.51-.11.2,0,.37.04.53.11.15.07.29.17.39.3.11.13.19.28.24.45.06.17.08.36.08.55v.06s0,.04,0,.07h-2.11c.01.15.05.27.1.39Zm1.61-.68c-.01-.12-.03-.24-.07-.35-.04-.11-.09-.21-.16-.29-.07-.08-.16-.15-.26-.2-.1-.05-.22-.07-.35-.07-.12,0-.22.02-.32.07-.1.05-.19.11-.26.19-.08.08-.14.18-.19.29-.05.11-.08.23-.09.36h1.71Z"/>
        <path class="uuid-13f8e863-2dc5-4240-a70d-65c674a85e7e" d="m137.09,60.77c-.05.1-.12.18-.2.25-.08.07-.18.12-.3.16-.12.04-.24.05-.37.05-.19,0-.39-.04-.58-.11s-.37-.17-.52-.29l.2-.28c.14.11.3.19.45.25.16.06.31.09.47.09s.29-.04.4-.11c.1-.08.15-.18.15-.31h0c0-.08-.02-.13-.05-.18-.04-.05-.09-.09-.15-.13-.06-.04-.13-.07-.21-.1-.08-.03-.16-.05-.25-.08-.1-.03-.21-.06-.31-.1-.11-.04-.2-.08-.28-.14-.08-.06-.15-.12-.21-.21-.05-.08-.08-.19-.08-.31h0c0-.12.02-.23.07-.32s.11-.18.19-.24c.08-.07.18-.12.29-.16.11-.04.23-.05.36-.05.17,0,.33.03.5.08.17.05.32.13.46.22l-.18.3c-.12-.08-.25-.14-.39-.19-.14-.05-.27-.07-.4-.07-.16,0-.28.04-.38.11-.09.07-.14.17-.14.28h0c0,.07.02.13.06.17.04.05.09.09.15.12.06.03.14.07.22.09.08.03.17.06.26.08.1.03.21.07.31.1.1.04.19.09.28.14.08.06.15.13.2.21.05.08.07.18.07.31h0c0,.14-.02.25-.07.35Z"/>
        <path class="uuid-13f8e863-2dc5-4240-a70d-65c674a85e7e" d="m137.92,57.93v-.44h.46v.44h-.46Zm.03,3.26v-2.67h.4v2.67h-.4Z"/>
        <path class="uuid-13f8e863-2dc5-4240-a70d-65c674a85e7e" d="m141.41,61.19v-.54c-.06.08-.12.15-.18.23-.07.07-.14.14-.22.19s-.17.1-.28.13-.21.05-.34.05c-.16,0-.32-.03-.47-.09-.15-.06-.29-.15-.41-.27-.12-.12-.22-.26-.29-.44s-.11-.37-.11-.59.04-.42.11-.59.17-.32.29-.44c.12-.12.26-.21.41-.27.15-.06.31-.1.47-.1.12,0,.24.02.34.05s.2.07.28.12c.08.05.16.11.22.18.07.07.13.14.18.22v-1.61h.4v3.77h-.4Zm-.06-1.76c-.05-.13-.13-.23-.22-.32s-.19-.16-.31-.21c-.12-.05-.24-.07-.36-.07-.13,0-.25.02-.37.07-.11.05-.21.11-.3.2-.08.09-.15.2-.2.32-.05.13-.07.27-.07.43s.02.3.07.43.12.24.2.33c.09.09.19.16.3.21.11.05.23.07.36.07s.24-.02.36-.07c.12-.05.22-.12.31-.21s.16-.2.22-.33c.05-.13.08-.27.08-.42s-.03-.29-.08-.42Z"/>
        <path class="uuid-13f8e863-2dc5-4240-a70d-65c674a85e7e" d="m143.04,60.38c.05.11.13.21.21.28s.18.14.29.18.22.06.34.06c.19,0,.35-.03.48-.1s.25-.16.36-.27l.25.22c-.13.15-.29.27-.46.36-.17.09-.39.14-.64.14-.18,0-.35-.03-.52-.1-.16-.07-.3-.16-.42-.28-.12-.12-.22-.27-.29-.44s-.11-.36-.11-.57c0-.19.03-.38.1-.55.06-.17.15-.32.27-.44.11-.13.25-.22.41-.3.16-.07.33-.11.51-.11.2,0,.37.04.53.11.15.07.29.17.39.3.11.13.19.28.24.45.06.17.08.36.08.55v.06s0,.04,0,.07h-2.11c.01.15.05.27.1.39Zm1.61-.68c-.01-.12-.03-.24-.07-.35-.04-.11-.09-.21-.16-.29-.07-.08-.16-.15-.26-.2-.1-.05-.22-.07-.35-.07-.12,0-.22.02-.32.07-.1.05-.19.11-.26.19-.08.08-.14.18-.19.29-.05.11-.08.23-.09.36h1.71Z"/>
        <path class="uuid-13f8e863-2dc5-4240-a70d-65c674a85e7e" d="m147.52,60.77c-.05.1-.12.18-.2.25-.08.07-.18.12-.3.16-.12.04-.24.05-.37.05-.19,0-.39-.04-.58-.11s-.37-.17-.52-.29l.2-.28c.14.11.3.19.45.25.16.06.31.09.47.09s.29-.04.4-.11c.1-.08.15-.18.15-.31h0c0-.08-.02-.13-.05-.18-.04-.05-.09-.09-.15-.13-.06-.04-.13-.07-.21-.1-.08-.03-.16-.05-.25-.08-.1-.03-.21-.06-.31-.1-.11-.04-.2-.08-.28-.14-.08-.06-.15-.12-.21-.21-.05-.08-.08-.19-.08-.31h0c0-.12.02-.23.07-.32s.11-.18.19-.24c.08-.07.18-.12.29-.16.11-.04.23-.05.36-.05.17,0,.33.03.5.08.17.05.32.13.46.22l-.18.3c-.12-.08-.25-.14-.39-.19-.14-.05-.27-.07-.4-.07-.16,0-.28.04-.38.11-.09.07-.14.17-.14.28h0c0,.07.02.13.06.17.04.05.09.09.15.12.06.03.14.07.22.09.08.03.17.06.26.08.1.03.21.07.31.1.1.04.19.09.28.14.08.06.15.13.2.21.05.08.07.18.07.31h0c0,.14-.02.25-.07.35Z"/>
        <path class="uuid-13f8e863-2dc5-4240-a70d-65c674a85e7e" d="m148.28,61.19v-.54h.48v.54h-.48Z"/>
        <path class="uuid-13f8e863-2dc5-4240-a70d-65c674a85e7e" d="m149.55,61.19v-.54h.48v.54h-.48Z"/>
        <path class="uuid-13f8e863-2dc5-4240-a70d-65c674a85e7e" d="m150.82,61.19v-.54h.48v.54h-.48Z"/>
      </g>
      <path class="uuid-13f8e863-2dc5-4240-a70d-65c674a85e7e" d="m28.02,43.71l.35-27.44s.19-1.25-.88-1.66c-1.07-.41-4.35-1.74-4.35-1.74l2.4,22.12-2.91-19.75h-4.16l5.53,20.32-5.37-17.2-3.87.11,8.25,19.29-6.03-12.77-4.7.43,9.13,13.58-6.19-8.12-4.75,1.14,9.42,9.05-5.71-4.75-3.28,1.77,8.01,5-4.62-2.01-2.3,2.42,6.03,1.3h-3.18l-1.12,2.53,4.35-.38-2.14.6-.64,1.96,4.13-1.41-2.1,1.25-.08,2.58,2.96-2.12-1.39,1.49.16,2.39,2.51-2.15-.67.84.35,2.55,1.04-1.14,1.68,1.44.24-1.68,2.32.79-.05-.62s3.23-.11,3.66-3.4c0,0,.45-3.8-3.23-4.37l-.03-.98-1.39-.03.03,1.17s-.35,1.01-1.52.65c0,0,.35.52,1.17.35,0,0,.77.73,1.55-.08,0,0,1.28.19,1.31,1.87,0,0,0,1.98-2.3,1.98,0,0-2.91-.03-2.75-3.23,0,0-.19-1.58,1.52-3.31,0,0,1.79-1.2,3.6-.62Z"/>
    </g>
    <text class="uuid-1486e4ca-5f43-4e27-bc9a-fb35f259929f" transform="translate(32.18 95.23)"><tspan x="0" y="0">Pench National Park</tspan></text>
  </g>
</svg>