<?xml version="1.0" encoding="UTF-8"?>
<svg id="uuid-22639b3f-fec3-4c13-b2a1-610110f0e56e" data-name="Layer 2" xmlns="http://www.w3.org/2000/svg" viewBox="0 0 290.89 170.78">
  <g id="uuid-5d2b30e3-dca4-4a53-93e8-ffee327f7d97" data-name="Layer 1">
    <g>
      <g id="uuid-da2ea885-ef48-45bd-beac-bb5d4bbbc69c" data-name=" 113082032">
        <path d="m145.45,9.41c-26.53,0-48.04,21.51-48.04,48.04s21.51,48.04,48.04,48.04,48.04-21.51,48.04-48.04-21.51-48.04-48.04-48.04Zm0,92.07c-24.32,0-44.03-19.71-44.03-44.03s19.71-44.03,44.03-44.03,44.03,19.71,44.03,44.03-19.71,44.03-44.03,44.03Z"/>
        <path id="uuid-167a7841-2bec-41d4-9bc6-03651ab7c7a3" data-name=" 113083208" d="m183.34,127.7c.74-1.54,1.14-3.17,1.24-4.84,6.06,1.54,13.24-1.39,14.89-13.58,4.27,12.28-6.36,19.68-16.13,18.42h0Z"/>
        <path id="uuid-534ffd31-7854-4237-90de-49ec723e54f6" data-name=" 113083448" d="m201.53,13.24c-.16-5.03-8.62-7.5-11.74-1.79-.35.64-.64,1.25-.88,1.86-.88.53-1.66,1.32-2.25,2.4-9.77,17.87,24.13,20.45,19.92,50,2.32-11.19,1.33-20.03-5.77-27.27-5.05-6.51-15.52-12.13-12.74-19.83,1.27,12.1,25.21,17.73,21.64,42.85,2.32-11.19,1.33-20.03-5.77-27.27-4.77-6.16-14.41-11.52-13.08-18.6.37-1.98,3.37-1.11,4.6-.51,1.04.5,1.97,1.46,2.93,2.44-.1-2.97-3.08-5.05-6.15-5.08,2.19-2.8,4.1-2.71,6.35-1.61,1.04.5,1.97,1.46,2.93,2.44h0Z"/>
        <path d="m210.9,83.51c12.25-2.43,14.05-12.43,24.79-15.69-2.7-.1-5.13.58-7.46,1.72,3.09-4.07,5.49-12.77,1.95-15.37-5.95-4.38-11.28,7.45-5.37,7.78,2.88.16,2.46-5.04-1.1-3.4.96-2.1,1.83-3.2,3.22-3.38,6.67-.84,1.53,13.34-2.51,16.81-2.45,2.11-4.88,3.86-7.27,5.38,2.4-3.04,2.81-6.67.32-10.96-3.4,6.48-8.34,11.1-14.7,14.01,1.12-2.64,1.34-4.79.88-6.56-1.28,4.59-3.68,9.17-8.44,13.76.56-.13,1.11-.26,1.66-.39-5.5,2.55-10.91,5.57-16.31,10.62,5.57-4.55,10.33-6.1,14.58-5.74,10.75.05,17.01-3.56,21.63-8.52h0c-1.96-.15-3.92-.17-5.86-.05Zm6.08-12.07c-.06,4.48-2.65,7.13-7.52,8.13,3.24-2.44,5.66-5.18,7.52-8.13Zm-20.46,17.82c4.29-2.67,8.91-3.87,13.86-3.62-3.3,2.85-7.81,4.2-13.86,3.62Z"/>
        <path id="uuid-35cbe690-1dca-48fc-a24c-77785d511d69" data-name=" 113083064" d="m274.21,119.92c-16.13,5.72-31.3,8.91-51.8,1.94-5.7-1.94-13.2-5.92-21.22-9.66.26,1.66.27,3.33-.02,4.93,1.67.82,3.31,1.67,4.89,2.53,24.52,15.53,46.51,10.64,68.15.26h0Z"/>
        <path id="uuid-02c8e8f0-fb20-45c6-a2e1-7d48ec1d6e1e" data-name=" 113082968" d="m290.89,109.63c-16.13,5.72-31.21,11.91-51.72,4.94-15.19-5.16-43.1-24.79-59.62-15.83-2.6,1.06-4.83,2.8-6.49,4.97-3.72-.04-7.2.63-10.28,2.31-5.61,2.3-9.55,7.71-9.55,14.02,0,.79.06,1.56.18,2.32.14,1.36.51,2.7,1.16,3.96.16.31.33.6.5.89,8.16,14.84,33.87,7.32,27.62-10.67-1.92,14.23-11.39,15.84-17.8,12.46-.13-.2-5.53-2.62-5.53-8.71,0-2.12.71-4.07,1.92-5.65.67-.72,1.49-1.42,2.47-2.1,1.96-1.34,4.16-2.2,6.53-2.66-.18.93-.28,1.89-.28,2.88,0,.79.06,1.56.18,2.32.14,1.36.51,2.7,1.16,3.96.16.31.33.6.5.89,1.55,2.83,3.75,4.84,6.23,6.13,1.19-1.42,2.03-3.15,2.63-4.95-1.58-1.06-4.57-3.56-4.57-8.1,0-1.24.24-2.42.69-3.51,6.37.39,13.41,2.67,20.16,5.66.58-1.39.98-2.87,1.27-4.32-5.62-2.52-11.41-4.8-16.96-6.07,10.68-6.44,27.88.22,41.54,7.6,24.52,15.53,46.43,7.63,68.06-2.75h0Z"/>
        <path id="uuid-be8e999b-c0cf-4f85-ad04-e73910fe22eb" data-name=" 113082920" d="m196.45,40.62c9.69,14.22,8.16,28.32-.77,42.34,6.3-15.73,6.74-29.89.77-42.34Z"/>
        <path id="uuid-bfd099a8-8664-4446-8f15-00df3697a6d3" data-name=" 113082872" d="m145.41,0c1.2,0,2.17.97,2.17,2.17s-.97,2.17-2.17,2.17-2.17-.97-2.17-2.17.97-2.17,2.17-2.17Z"/>
        <path d="m175.94,59.11c-1.22-1.04-3.36-1.92-6.39-2.66,2.82-.73,4.79-1.72,5.91-2.95,1.12-1.24,1.68-2.66,1.68-4.25,0-1.5-.44-2.93-1.31-4.26-.88-1.34-2.07-2.34-3.59-3.01-1.52-.67-4.1-1.01-7.75-1.01h-15.25v.85c1.46,0,2.45.14,2.98.41.53.28.9.66,1.11,1.12.22.46.32,1.59.32,3.39v21.46c0,1.8-.1,2.93-.32,3.39-.21.46-.58.83-1.1,1.11-.52.29-1.52.43-2.99.43v.85h16.16c4.5,0,7.93-.98,10.29-2.95,1.93-1.63,2.89-3.68,2.89-6.16s-.88-4.27-2.64-5.75Zm-14.9-16.33c2.31-.02,3.99.22,5.03.71,1.05.49,1.85,1.2,2.42,2.13.56.93.84,2.13.84,3.59s-.29,2.67-.86,3.6c-.57.95-1.39,1.68-2.46,2.19-1.07.52-2.73.78-4.98.78h0v-13Zm8.32,25.98c-.55,1.1-1.35,1.93-2.39,2.5-1.04.57-2.17.86-3.41.86-.83,0-1.46-.22-1.89-.67-.43-.44-.63-1.1-.63-1.98v-11.8h0c2.42-.02,4.24.22,5.46.72,1.22.5,2.13,1.36,2.76,2.58.62,1.22.93,2.6.93,4.13,0,1.34-.28,2.56-.83,3.64Z"/>
        <path id="uuid-f89c6425-a52e-411d-bca6-bc6d72b46d0c" data-name=" 113082584" d="m111.03,12.06c1.2,0,2.17.97,2.17,2.17s-.97,2.17-2.17,2.17-2.17-.97-2.17-2.17.97-2.17,2.17-2.17Z"/>
        <path id="uuid-f2d49021-6ffb-4358-bf17-774ab21fa093" data-name=" 113083136" d="m118.47,6.79c1.2,0,2.17.97,2.17,2.17s-.97,2.17-2.17,2.17-2.17-.97-2.17-2.17.97-2.17,2.17-2.17Z"/>
        <path id="uuid-aad865b8-d8af-48ce-862a-57b16c978a83" data-name=" 113082464" d="m127.06,2.74c1.2,0,2.17.97,2.17,2.17s-.97,2.17-2.17,2.17-2.17-.97-2.17-2.17.97-2.17,2.17-2.17Z"/>
        <path id="uuid-d7550a5f-9a7a-4b39-966b-2fcd3b6339c6" data-name=" 113082440" d="m136.2.94c1.2,0,2.17.97,2.17,2.17s-.97,2.17-2.17,2.17-2.17-.97-2.17-2.17.97-2.17,2.17-2.17Z"/>
        <path id="uuid-e9b51c72-b64c-4196-810d-c29c7f2e7f7c" data-name=" 113082416" d="m179.83,12.06c-1.2,0-2.17.97-2.17,2.17s.97,2.17,2.17,2.17,2.17-.97,2.17-2.17-.97-2.17-2.17-2.17Z"/>
        <path id="uuid-cb196f4c-2679-46f1-8845-a96711f0eada" data-name=" 113083160" d="m172.39,6.79c-1.2,0-2.17.97-2.17,2.17s.97,2.17,2.17,2.17,2.17-.97,2.17-2.17-.97-2.17-2.17-2.17Z"/>
        <path id="uuid-0af32443-a212-419b-b786-80b7585ffd76" data-name=" 113081792" d="m163.8,2.74c-1.2,0-2.17.97-2.17,2.17s.97,2.17,2.17,2.17,2.17-.97,2.17-2.17-.97-2.17-2.17-2.17Z"/>
        <path id="uuid-7076bdd7-c721-4f16-8d9f-f3afeb2a2700" data-name=" 113081744" d="m154.65.94c-1.2,0-2.17.97-2.17,2.17s.97,2.17,2.17,2.17,2.17-.97,2.17-2.17-.97-2.17-2.17-2.17Z"/>
        <path id="uuid-00727aaa-974f-4df9-a7f8-be05f8567e13" data-name=" 113082248" d="m150.64,111.29c1.2,0,2.17.97,2.17,2.17s-.97,2.17-2.17,2.17-2.17-.97-2.17-2.17.97-2.17,2.17-2.17Z"/>
        <path id="uuid-930539d3-d84e-43ac-9c05-8e930909bff1" data-name=" 113082200" d="m140.79,111.29c-1.2,0-2.17.97-2.17,2.17s.97,2.17,2.17,2.17,2.17-.97,2.17-2.17-.97-2.17-2.17-2.17Z"/>
        <path id="uuid-d53d11f7-ae5a-4475-a20b-4469a836b839" data-name=" 113081960" d="m107.56,127.7c-.74-1.54-1.14-3.17-1.24-4.84-6.06,1.54-13.24-1.39-14.89-13.58-4.27,12.28,6.36,19.68,16.13,18.42h0Z"/>
        <path id="uuid-3f10b5f3-7956-40ac-bad8-eadb5c755970" data-name=" 113082176" d="m89.37,13.24c.16-5.03,8.62-7.5,11.74-1.79.35.64.64,1.25.88,1.86.88.53,1.66,1.32,2.25,2.4,9.77,17.87-24.13,20.45-19.92,50-2.32-11.19-1.33-20.03,5.77-27.27,5.05-6.51,15.52-12.13,12.74-19.83-1.27,12.1-25.21,17.73-21.64,42.85-2.32-11.19-1.33-20.03,5.77-27.27,4.77-6.16,14.41-11.52,13.08-18.6-.37-1.98-3.37-1.11-4.6-.51-1.04.5-1.97,1.46-2.93,2.44.1-2.97,3.08-5.05,6.15-5.08-2.19-2.8-4.1-2.71-6.35-1.61-1.04.5-1.97,1.46-2.93,2.44h0Z"/>
        <path d="m94.03,87.2c.55.13,1.1.26,1.66.39-4.76-4.59-7.16-9.17-8.44-13.76-.46,1.77-.25,3.92.88,6.56-6.36-2.9-11.31-7.52-14.7-14.01-2.49,4.3-2.07,7.92.32,10.96-2.4-1.52-4.82-3.27-7.27-5.38-4.04-3.47-9.18-17.65-2.51-16.81,1.4.18,2.26,1.28,3.22,3.38-3.56-1.65-3.98,3.56-1.1,3.4,5.92-.33.59-12.16-5.37-7.78-3.54,2.6-1.13,11.3,1.95,15.37-2.33-1.15-4.75-1.82-7.46-1.72,10.74,3.26,12.54,13.26,24.79,15.69-1.95-.12-3.9-.1-5.86.05h0c4.61,4.96,10.87,8.58,21.63,8.52,4.24-.35,9,1.19,14.58,5.74-5.39-5.05-10.81-8.08-16.31-10.62Zm-20.11-15.76c1.86,2.95,4.28,5.69,7.52,8.13-4.87-1-7.46-3.65-7.52-8.13Zm6.6,14.19c4.95-.25,9.58.96,13.86,3.62-6.06.57-10.57-.77-13.86-3.62Z"/>
        <path id="uuid-a895ae59-2383-4b9b-8818-6d4a4f54dc90" data-name=" 113082104" d="m16.69,119.92c16.13,5.72,31.3,8.91,51.8,1.94,5.7-1.94,13.2-5.92,21.22-9.66-.26,1.66-.27,3.33.02,4.93-1.67.82-3.31,1.67-4.89,2.53-24.52,15.53-46.51,10.64-68.15.26h0Z"/>
        <path id="uuid-c07bef21-abde-4ffd-a64f-49df5f4e1a01" data-name=" 113082368" d="m0,109.63c16.13,5.72,31.21,11.91,51.72,4.94,15.19-5.16,43.1-24.79,59.62-15.83,2.6,1.06,4.83,2.8,6.49,4.97,3.72-.04,7.2.63,10.28,2.31,5.61,2.3,9.55,7.71,9.55,14.02,0,.79-.06,1.56-.18,2.32-.14,1.36-.51,2.7-1.16,3.96-.16.31-.33.6-.5.89-8.16,14.84-33.87,7.32-27.62-10.67,1.92,14.23,11.39,15.84,17.8,12.46.13-.2,5.53-2.62,5.53-8.71,0-2.12-.71-4.07-1.92-5.65-.67-.72-1.49-1.42-2.47-2.1-1.96-1.34-4.16-2.2-6.53-2.66.18.93.28,1.89.28,2.88,0,.79-.06,1.56-.18,2.32-.14,1.36-.51,2.7-1.16,3.96-.16.31-.33.6-.5.89-1.55,2.83-3.75,4.84-6.23,6.13-1.19-1.42-2.03-3.15-2.63-4.95,1.58-1.06,4.57-3.56,4.57-8.1,0-1.24-.24-2.42-.69-3.51-6.37.39-13.41,2.67-20.16,5.66-.58-1.39-.98-2.87-1.27-4.32,5.62-2.52,11.41-4.8,16.96-6.07-10.68-6.44-27.88.22-41.54,7.6-24.52,15.53-46.43,7.63-68.06-2.75h0Z"/>
        <path id="uuid-12535c21-2f56-4365-bdff-8d431ae8a381" data-name=" 113081816" d="m94.45,40.62c-9.69,14.22-8.16,28.32.77,42.34-6.3-15.73-6.74-29.89-.77-42.34Z"/>
        <path d="m144.26,72.25c-.42-.36-1.15-1.25-2.16-2.69l-7.64-11.18c1.95-.5,3.46-1.25,4.54-2.26,1.69-1.59,2.54-3.61,2.54-6.04,0-2-.56-3.74-1.69-5.23-1.13-1.49-2.59-2.51-4.38-3.06-1.79-.56-4.6-.83-8.46-.83h-14.81v.82c1.46,0,2.45.14,2.98.42.53.27.9.64,1.11,1.1.22.46.32,1.58.32,3.36v21.57c0,1.78-.1,2.9-.32,3.35-.21.45-.58.82-1.1,1.1-.52.28-1.52.42-2.99.42v.85h16.3v-.85c-1.46,0-2.45-.14-2.98-.41-.53-.27-.9-.64-1.11-1.1-.22-.46-.32-1.58-.32-3.36v-9.3h0s2.09,0,2.09,0l10.27,15.02h10.05v-.9c-.85-.05-1.6-.32-2.24-.82Zm-11.38-17.91c-.62,1.07-1.47,1.82-2.55,2.23-1.08.41-2.72.61-4.9.61h-1.34v-14.37h2.52c2.52,0,4.35.6,5.49,1.79,1.14,1.19,1.71,3.04,1.71,5.55,0,1.72-.31,3.13-.93,4.19Z"/>
      </g>
      <g>
        <path d="m24.05,170.78v-23.85h10.21c1.05,0,2.02.22,2.89.65.87.44,1.63,1.02,2.28,1.75.65.73,1.15,1.55,1.51,2.45.36.91.54,1.83.54,2.77,0,1.1-.21,2.14-.62,3.12-.41.99-1,1.83-1.75,2.52s-1.63,1.18-2.64,1.44l5.78,9.14h-3.43l-5.44-8.57h-6.32v8.57h-3.02Zm3.02-11.25h7.22c.83,0,1.55-.23,2.17-.69.62-.46,1.1-1.07,1.44-1.83.35-.76.52-1.58.52-2.45s-.2-1.72-.6-2.47c-.4-.75-.93-1.35-1.58-1.8-.65-.45-1.37-.67-2.15-.67h-7.02v9.91Z"/>
        <path d="m53.38,146.93h2.55l9.74,23.85h-3.22l-2.68-6.99h-10.26l-2.69,6.99h-3.22l9.77-23.85Zm5.49,14.51l-4.22-11.02-4.24,11.02h8.45Z"/>
        <path d="m89.49,170.78v-18.21l-7.86,14.01h-1.85l-7.89-14.01v18.21h-3.02v-23.85h3.19l8.63,15.49,8.67-15.49h3.16v23.85h-3.02Z"/>
        <path d="m125.02,164.63c0,1.23-.31,2.31-.94,3.22-.63.92-1.47,1.64-2.54,2.15-1.06.51-2.23.77-3.51.77h-11.32v-23.85h11.86c1.12,0,2.09.3,2.91.89.82.59,1.44,1.36,1.88,2.28.44.93.66,1.9.66,2.91,0,1.16-.3,2.26-.89,3.27-.59,1.02-1.44,1.78-2.54,2.27,1.37.4,2.45,1.15,3.24,2.23.79,1.09,1.19,2.37,1.19,3.85Zm-15.28-15.08v7.96h7.59c.72,0,1.35-.18,1.9-.54.55-.36.99-.84,1.31-1.44.32-.6.49-1.27.49-1.98,0-.76-.15-1.44-.45-2.03-.3-.59-.72-1.07-1.24-1.43-.53-.36-1.13-.54-1.8-.54h-7.79Zm12.23,14.54c0-.74-.16-1.42-.49-2.05-.32-.63-.76-1.13-1.31-1.51-.55-.38-1.18-.57-1.9-.57h-8.53v8.2h8.3c.74,0,1.41-.19,2-.57s1.06-.88,1.41-1.5c.35-.62.52-1.28.52-2Z"/>
        <path d="m148.44,146.93v23.85h-3.02v-10.85h-13.13v10.85h-3.02v-23.85h3.02v10.31h13.13v-10.31h3.02Z"/>
        <path d="m161.4,146.93h2.55l9.74,23.85h-3.22l-2.68-6.99h-10.26l-2.69,6.99h-3.22l9.78-23.85Zm5.49,14.51l-4.22-11.02-4.24,11.02h8.45Z"/>
        <path d="m179.91,152.5v18.27h-3.02v-23.85h2.55l14.58,18.64v-18.61h3.02v23.82h-2.75l-14.38-18.27Z"/>
        <path d="m202.75,170.78v-23.85h8.26c2.55,0,4.69.53,6.4,1.6,1.71,1.06,2.99,2.5,3.85,4.3.85,1.8,1.28,3.8,1.28,6,0,2.42-.47,4.52-1.41,6.32-.94,1.79-2.27,3.18-4,4.16-1.72.99-3.76,1.48-6.11,1.48h-8.26Zm16.73-11.96c0-1.79-.33-3.38-.99-4.77-.66-1.39-1.62-2.47-2.87-3.26-1.25-.78-2.79-1.18-4.6-1.18h-5.24v18.48h5.24c1.84,0,3.38-.41,4.64-1.23s2.21-1.93,2.86-3.33c.65-1.4.97-2.97.97-4.72Z"/>
        <path d="m233.15,146.93h2.55l9.74,23.85h-3.22l-2.68-6.99h-10.26l-2.69,6.99h-3.22l9.78-23.85Zm5.49,14.51l-4.22-11.02-4.24,11.02h8.45Z"/>
        <path d="m248.64,170.78v-23.85h10.21c1.05,0,2.02.22,2.89.65.87.44,1.63,1.02,2.28,1.75.65.73,1.15,1.55,1.51,2.45s.54,1.83.54,2.77c0,1.1-.21,2.14-.62,3.12-.41.99-1,1.83-1.75,2.52-.75.69-1.63,1.18-2.64,1.44l5.78,9.14h-3.43l-5.44-8.57h-6.32v8.57h-3.02Zm3.02-11.25h7.22c.83,0,1.55-.23,2.17-.69.62-.46,1.1-1.07,1.44-1.83.35-.76.52-1.58.52-2.45s-.2-1.72-.6-2.47c-.4-.75-.93-1.35-1.58-1.8-.65-.45-1.37-.67-2.15-.67h-7.02v9.91Z"/>
      </g>
    </g>
  </g>
</svg>