<?xml version="1.0" encoding="UTF-8"?>
<!DOCTYPE svg PUBLIC "-//W3C//DTD SVG 1.1//EN" "http://www.w3.org/Graphics/SVG/1.1/DTD/svg11.dtd">
<!-- Creator: CorelDRAW -->
<svg xmlns="http://www.w3.org/2000/svg" xml:space="preserve" width="215.9mm" height="279.4mm" style="shape-rendering:geometricPrecision; text-rendering:geometricPrecision; image-rendering:optimizeQuality; fill-rule:evenodd; clip-rule:evenodd"
viewBox="0 0 215.9 279.4"
 xmlns:xlink="http://www.w3.org/1999/xlink">
 <defs>
  <style type="text/css">
   <![CDATA[
    .fil0 {fill:#1F1A17}
   ]]>
  </style>
 </defs>
 <g id="Layer_x0020_1">
  <metadata id="CorelCorpID_0Corel-Layer"/>
  <path class="fil0" d="M-21.8558 178.038c0.0394,0 0.0732,0.0395 0.0834,0.0749 0.019,0.063 0.1039,0.0838 0.1353,0.1026 0.0927,0.0568 0.2225,0.1134 0.3164,0.1601 0.2373,0.119 0.3607,0.1891 0.5694,0.2645 0.4851,0.1766 0.8765,0.2505 1.5357,0.2505 -0.3697,-1.5845 -1.8183,-1.8216 -3.4541,-1.7853l0 -0.4761c0,-2.2443 2.2634,-5.3116 3.5799,-6.1357l3.2093 -0.4089c-1.4375,2.7133 -3.5596,5.3745 -2.6203,9.4012 -0.6377,0.951 -0.953,0.5526 -0.953,2.3799 0.923,-0.2149 1.5237,-0.5528 1.5487,-1.6663 0.6061,0.4442 0.4863,1.5471 1.5481,1.5471l0.3573 0c-0.4805,-2.0603 -0.2125,-0.8508 -1.0722,-2.023 0.2678,0.0619 0.2737,0.1194 0.5957,0.1194l0.8342 0c0.5119,0 0.6455,-0.1391 1.0718,-0.2383 -0.0546,-0.649 -0.6939,-1.0497 -1.3574,-1.1523 -0.789,-0.1231 -1.3917,0.4204 -1.9775,0.557l0 -1.4277c0,-1.2768 0.6983,-3.2931 1.1489,-4.2072 0.3399,-0.6901 1.7298,-3.1047 1.8344,-3.504l1.6721 -0.3735 -0.4869 0.706 0 1.0716c0.247,-0.1657 0.7533,-0.7138 1.072,-0.7138l0.5952 0c0.9809,0 2.1459,0.9517 3.2159,0.9517 0.6536,0 0.9404,-0.2435 1.4289,-0.3567 -0.1389,0.5207 -1.164,0.9517 -1.7864,0.9517 -0.8577,0 -1.4948,-0.3571 -2.144,-0.3571l-0.1187 0c-1.307,0 -3.0965,1.0799 -3.0965,2.2618l0 0.7131c0,0.8632 0.7527,1.0421 1.3099,1.3097 0,-1.7254 0.4964,-1.5074 2.0157,-1.6759 0.3126,-0.0336 1.2648,-0.0966 1.6104,-0.1753 0.6313,-0.1435 0.913,-0.4058 1.3764,-0.5294 -1.0023,1.4961 -5.1215,1.8724 -5.1215,4.1652 0,1.0233 1.0817,2.0641 2.0243,2.1413l0 -0.9515c0,-1.8737 3.2241,-4.4013 4.764,-4.7602 -0.159,1.9169 -3.8109,3.4873 -3.8109,5.9503l0 0.4756c0,1.5748 1.6961,2.4995 3.3353,2.4995 -0.4491,-0.6693 -0.8343,-1.8682 -0.8343,-2.9751l0 -0.2386c0,-1.7665 1.2471,-3.8023 2.7394,-3.9259 -0.0172,0.7794 -1.3094,2.0515 -1.3094,3.808l0 0.4759c0,1.1151 1.1217,3.4505 1.7864,3.4505 1.0352,0 1.833,-2.5042 2.0022,-3.5978 0.2657,-1.7225 -1.3422,-3.4775 -1.407,-4.2563 1.3851,0.3226 2.7396,1.8503 2.7396,3.5706l0 1.309c0,1.1602 -0.5048,1.5945 -0.7144,2.3797 1.6688,-0.0374 3.3344,-1.0123 3.3344,-2.7374 0,-2.879 -3.7693,-4.3255 -3.8116,-6.188 1.6323,0.3801 4.7642,2.9426 4.7642,4.8794l0 0.8323c0.7841,-0.1818 1.9062,-0.9767 1.9062,-1.9036l0 -0.5948c0,-1.7802 -4.1258,-2.4988 -5.0025,-3.8081 1.185,0.2755 0.9577,0.4695 2.7403,0.5944 0.9837,0.0688 2.2622,0.1481 2.2622,1.1914l0 0.4751c0.8272,-0.0685 1.3102,-0.6611 1.3102,-1.5464l0 -0.1197c0,-1.0363 -0.9676,-1.8644 -1.702,-2.2264 -1.5051,-0.7421 -1.8742,-0.034 -3.1814,-0.034l-0.7146 0c-0.7563,0 -1.505,-0.3441 -1.6675,-0.9524 0.3428,0.1813 0.6654,0.3569 1.191,0.3569l0.5954 0c0.9044,0 2.2691,-0.9519 2.9778,-0.9519 0.9503,0 1.0726,0.5554 1.6672,0.7144l0 -0.595c0,-0.4924 -0.2956,-0.8708 -0.6154,-1.0914l0.1393 -0.0991c0.0206,-0.0201 0.058,0.015 0.0699,0.0495 0.0376,0.1104 0.071,0.0533 0.1521,0.0858 0.1688,0.0677 0.1438,0.0511 0.3706,0.1055 0.0796,0.019 0.6108,0.136 0.666,0.1676 0.1497,0.088 0.5712,0.8807 0.6864,1.0998 0.3995,0.7611 0.8404,1.4391 1.19,2.2621 0.867,2.0409 1.1529,2.8833 1.1529,5.7501 -0.6105,-0.3228 -0.8194,-0.5955 -1.7868,-0.5955 -0.94,0 -1.2907,0.5095 -1.6675,1.0715 0.358,0.0832 0.9827,0.418 1.4329,0.3784l1.1876 -0.1404c-0.3635,0.3155 -0.7746,0.5335 -0.911,1.1139 -0.2711,1.1527 -0.1022,0.7901 0.7907,0.7899l0.9541 -1.4282c0.0754,0.9112 0.5836,1.5259 1.5481,1.5476 0,-0.9893 -0.1758,-1.935 -0.9526,-2.142 0.096,-1.1557 0.4272,-1.1228 0.2496,-2.6297 -0.1306,-1.1034 -0.2892,-1.6977 -0.622,-2.5915 -0.2613,-0.7027 -2.1187,-4.1833 -2.1337,-4.2664l3.3397 0.4431c1.0262,1.5306 3.3349,2.9815 3.3349,5.8308l0 0.5953 -0.953 0c-1.2909,0 -2.0434,0.9211 -2.5009,1.7853l0.0429 0.151 2.5015 -0.7127 -0.0228 -0.1727 0.0984 0.1389c0.0401,0.04 -0.0884,0.1017 -0.1105,0.1276 -0.0223,0.0265 -0.0783,0.094 -0.1084,0.1302 -0.0902,0.1081 -0.122,0.1333 -0.2113,0.2642 -0.1542,0.2263 -0.2842,0.469 -0.2842,0.7874l0 0.7136c0.9818,-0.2284 1.4437,-1.1836 1.6675,-2.1415 0.6266,0.9001 0.1304,0.9519 1.4292,0.9519l0.4726 0.0004 -0.2733 -1.1814 0.1103 0.1289 1.8342 -0.9711c-0.4925,0.9291 -0.366,0.7248 -0.119,1.7853 0.913,-0.0759 0.8336,-0.8237 0.8336,-1.7853 0.3587,0.2622 0.5446,0.7142 1.1907,0.7142 0.322,0 0.3288,-0.0571 0.5964,-0.1192 -0.1802,-0.7706 -0.6941,-1.3088 -1.6679,-1.3088 0,-1.4308 -1.0627,-2.5486 -1.8156,-3.3035 -0.6189,-0.622 -2.5326,-1.8852 -2.8292,-2.2894l1.9054 0c1.215,0.8128 2.4365,1.7656 3.6444,2.6651 0.9398,0.699 2.3573,2.8798 1.4773,4.7129 1.9646,-0.5245 8.9537,-6.4827 10.3396,-8.1141 1.4605,-1.7185 2.8201,-3.0196 4.2401,-4.9274 1.3539,-1.8189 2.5179,-3.6006 3.6823,-5.603 4.6629,-8.0206 8.7748,-15.5856 8.7748,-28.2428 0,-15.4646 -6.8133,-28.0494 -14.5605,-35.79 -7.6067,-7.6014 -20.0049,-15.3811 -35.1069,-15.3811l-3.2152 0c-7.4793,0 -15.5292,2.0818 -20.5636,4.5643 -3.1518,1.5542 -5.1788,2.6436 -7.9726,4.5291 -2.7889,1.8819 -4.465,3.5987 -6.8849,5.7353 -3.4078,3.0098 -8.5306,10.1935 -10.3316,14.7869 -0.561,1.4311 -1.3161,2.7987 -1.8441,4.3458 -0.5612,1.6454 -1.0123,3.1193 -1.451,4.8569 -0.7936,3.1385 -1.4529,7.3151 -1.4529,11.1628l0 2.1419c0,5.7073 1.2177,10.8493 2.6649,15.1874 1.6092,4.8232 3.8182,7.845 5.9907,11.9841 1.7355,3.3072 5.0454,7.7609 7.5723,10.2847 1.6237,1.6217 7.9348,7.5279 9.9752,8.0029 -0.383,-0.5709 -2.3823,-1.8541 -2.3823,-2.3801l0.0042 -3.1381 2.9734 0.2824 0 0.8327c0,0.8694 -0.3571,1.2723 -0.3571,2.1422l-0.023 1.0742 0.1501 1.5215 0.3677 0.1393 -0.1377 -1.5452c-0.2523,-2.3522 3.871,-4.8351 5.3603,-5.8306l1.7859 0c-0.2565,0.3832 -2.2733,1.7324 -2.8878,2.35 -0.7708,0.7739 -1.9955,1.9029 -1.9955,3.3614 -1.1308,0.2636 -2.215,1.4287 -1.3099,1.4287l0.3573 0c0.6116,0 0.7896,-0.3905 1.0722,-0.7143 0,1.0868 -0.0814,1.6909 0.8334,1.9041 0.0418,-0.5013 0.2381,-0.6315 0.2381,-1.0711 0,-0.3071 -0.2083,-0.5433 -0.3768,-0.7339l0.1188 -0.1192 -0.0451 0.1581 1.9493 0.8075 -0.3356 1.0773c0.2671,0.0619 0.2737,0.1192 0.5957,0.1192l0.2379 0c0.6233,0 0.9043,-0.3659 0.9532,-0.9515 0.9028,0.661 -0.1172,1.1352 1.7857,2.1418 0,-1.2659 -0.0519,-1.6197 -0.8532,-2.1617l0.1191 -0.1191zm266.845 -29.506c0.9347,-1.4578 1.7289,-2.5791 2.383,-3.3641 0.3272,-0.3646 0.6262,-0.5514 0.9066,-0.5514 0.486,0 0.7383,0.2244 0.7383,0.6543 0,0.2989 -0.1309,0.5979 -0.3832,0.9063 -2.3363,3.0651 -4.2052,6.4946 -5.6164,10.2981 -0.2335,0.5795 -0.5327,0.8692 -0.8971,0.8692 -0.4391,0 -0.6635,-0.2523 -0.6635,-0.7664 0,-0.2709 0.4767,-1.6073 1.4297,-4.0184 0.1964,-0.4953 0.2992,-0.8504 0.2992,-1.0746 0,-1.1494 -1.0094,-1.7194 -3.0092,-1.7194 -3.4576,0 -7.3357,1.5792 -11.6437,4.7379 -3.2239,2.3922 -6.0741,5.4014 -8.5413,9.0365 -2.6072,3.8687 -3.9155,7.2703 -3.9155,10.2045 0,1.514 0.3739,2.7103 1.1027,3.5885 0.8504,1.0561 2.0093,1.5888 3.4764,1.5888 1.9157,0 4.2425,-0.8038 6.9806,-2.4111 2.1119,-1.2429 4.1212,-2.6445 6.0181,-4.2145 1.1867,-0.9813 1.8877,-1.4766 2.1119,-1.4766 0.4579,0 0.6824,0.2245 0.6824,0.6822 0,0.5514 -1.1215,1.6915 -3.3643,3.4202 -5.9153,4.5698 -10.7934,6.8499 -14.6249,6.8499 -2.0557,0 -3.6444,-0.7663 -4.7564,-2.2989 -0.8599,-1.1679 -1.2898,-2.7474 -1.2898,-4.7379 0,-4.2332 1.8318,-8.6533 5.5043,-13.251 4.1959,-5.2612 9.27,-9.1768 15.2229,-11.7466 2.7193,-1.1867 5.3734,-1.7755 7.9618,-1.7755 1.355,0 2.6447,0.1868 3.8874,0.57zm-28.5859 1.0934c-4.1959,5.4014 -7.8684,10.8026 -11.027,16.1855 -3.4484,5.8779 -5.177,9.3636 -5.177,10.4568 0,0.5327 0.2896,0.7945 0.8782,0.7945 0.1216,0 0.9159,-0.0843 2.383,-0.2523 0.7664,-0.0843 1.4392,-0.1309 2.0186,-0.1309 0.7664,0 1.1493,0.2616 1.1493,0.7942 0,0.458 -0.4298,0.7195 -1.3081,0.7943 -4.6352,0.4767 -8.6067,1.4019 -11.9148,2.7942 -1.327,0.5608 -2.1121,0.8411 -2.3549,0.8411 -0.4487,0 -0.6822,-0.2337 -0.6822,-0.7102 0,-0.3458 0.1681,-0.6169 0.4951,-0.8223 0.5796,-0.3458 2.0933,-1.0094 4.5137,-2 0.1121,-0.2523 0.5233,-1.2148 1.2336,-2.8968 2.6633,-6.1864 6.8685,-13.2606 12.597,-21.2223 0.9063,-1.2336 1.3642,-1.9624 1.3642,-2.1588 0,-0.2897 -0.1587,-0.4391 -0.486,-0.4391 -0.4577,0 -1.4109,0.3551 -2.8502,1.0653 -0.4391,0.2242 -0.7754,0.3082 -1.0184,0.2523 -0.2711,-0.0935 -0.402,-0.2897 -0.402,-0.5793 0,-0.4394 0.2337,-0.7945 0.7102,-1.0654 2.3737,-1.3364 5.3174,-2.4203 8.8405,-3.2614 2.3548,-0.5608 4.1116,-0.8504 5.2798,-0.8504 1.0465,0 1.5606,0.2803 1.5606,0.8223 0,0.402 -0.2149,0.6636 -0.6543,0.7664 -0.1494,0.0374 -0.9344,0.1307 -2.3549,0.2804 -0.8409,0.084 -1.766,0.2708 -2.794,0.5419zm-16.7553 0.0281c-3.682,4.9528 -7.2143,10.1393 -10.5972,15.5779 -3.6071,6.1023 -6.233,11.2512 -7.8777,15.4659 -0.2992,0.785 -0.5327,1.2803 -0.7102,1.4857 -0.2057,0.2337 -0.458,0.3551 -0.7664,0.3551 -0.4953,0 -0.8504,-0.2989 -1.0746,-0.9063 -0.2523,-0.7291 -0.5046,-2.2428 -0.7664,-4.5418 -0.5606,-5.1677 -0.8504,-10.0738 -0.8504,-14.7274 0,-2.1588 0.0749,-4.2802 0.2244,-6.3827 0,-0.1122 0,-0.2055 0,-0.299 0,-0.4765 -0.1868,-0.6541 -0.5515,-0.5234 -0.2708,0.0936 -0.9625,0.9252 -2.0745,2.4951 -3.7846,5.3079 -6.8404,10.2235 -9.1767,14.7557 -0.9999,1.9717 -1.5045,3.252 -1.5045,3.8594 0,0.6729 0.3458,1.0094 1.0372,1.0094 0.1683,0 1.1868,-0.1123 3.0652,-0.3551 1.0279,-0.1216 1.9624,-0.1871 2.8221,-0.1871 0.7475,0 1.1215,0.2525 1.1215,0.7664 0,0.3832 -0.215,0.6262 -0.6541,0.7383 -0.1776,0.0374 -1.514,0.1961 -3.9998,0.4953 -3.0089,0.4299 -6.2611,1.4017 -9.7468,2.8969 -0.327,0.1309 -0.5886,0.1961 -0.7942,0.1961 -0.4484,0 -0.6822,-0.2054 -0.6822,-0.6074 0,-0.3644 0.1776,-0.6634 0.5234,-0.9064 1.0558,-0.6728 2.5232,-1.3176 4.4013,-1.9438 0.9347,-2.9156 2.7007,-6.616 5.2894,-11.083 1.3642,-2.3923 3.8874,-6.2238 7.5599,-11.5036 1.5326,-2.1492 2.3363,-3.2895 2.4018,-3.4202 0.0747,-0.1402 0.1121,-0.2897 0.1121,-0.4394 0,-0.4672 -0.243,-0.71 -0.7383,-0.71 -0.3085,0 -1.1587,0.2335 -2.5513,0.6822 -1.1774,0.383 -1.9436,0.5793 -2.2706,0.5793 -0.402,0 -0.5981,-0.243 -0.5981,-0.7383 0,-0.4579 0.897,-0.9532 2.6819,-1.4764 3.1586,-0.972 5.2519,-1.4578 6.2985,-1.4578 0.9439,0 1.4204,0.6167 1.4204,1.841 0,0.6541 -0.0373,1.5699 -0.1121,2.7379 -0.1775,3.2614 -0.2711,6.5322 -0.2711,9.7936 0,5.1677 0.243,8.9712 0.7383,11.4194 0.0748,0.3458 0.2057,0.5233 0.3832,0.5233 0.1869,0 0.3832,-0.243 0.6074,-0.7102 1.1682,-2.6819 3.2334,-6.4294 6.2143,-11.2325 1.3457,-2.1868 3.7006,-5.7658 7.0649,-10.7281 0.2335,-0.3644 0.3551,-0.654 0.3551,-0.8783 0,-0.3272 -0.1964,-0.486 -0.5793,-0.486 -0.6355,0 -2,0.4111 -4.0745,1.2522 -0.2616,0.0935 -0.4485,0.1402 -0.5794,0.1402 -0.6167,0 -0.9251,-0.2149 -0.9251,-0.6541 0,-0.4579 0.3363,-0.8411 1.0092,-1.1495 1.4392,-0.6634 3.6725,-1.3831 6.7097,-2.1681 2.6819,-0.6914 4.9995,-1.112 6.9526,-1.2615 0.9251,-0.0466 1.3924,0.2057 1.3924,0.7662 0,0.3646 -0.1869,0.6169 -0.5701,0.7476 -0.1495,0.0469 -1.0372,0.1871 -2.6538,0.402 -0.701,0.1121 -1.5702,0.2804 -2.6353,0.4953zm-52.4251 0.0559c-2.3175,2.9438 -4.6069,6.1398 -6.8685,9.6067 -0.8785,1.355 -1.3176,2.1492 -1.3176,2.3829 0,0.299 0.1775,0.4392 0.5233,0.4392 0.215,0 1.9905,-0.2055 5.336,-0.626 4.8219,-0.5327 7.887,-0.785 9.1954,-0.7664 1.2614,-1.9158 2.9156,-4.2799 4.962,-7.0928 0.2523,-0.3458 0.3832,-0.6166 0.3832,-0.8223 0,-0.327 -0.1775,-0.4953 -0.5234,-0.4953 -0.2708,0 -1.4202,0.3925 -3.448,1.1775 -0.3832,0.1494 -0.6729,0.2242 -0.8505,0.2242 -0.4767,0 -0.7102,-0.1681 -0.7102,-0.4953 0,-0.4951 0.2616,-0.869 0.7943,-1.1213 2.495,-1.2803 5.448,-2.3175 8.8402,-3.1213 2.7754,-0.654 4.8968,-0.9906 6.3827,-0.9906 0.7662,0 1.1494,0.2711 1.1494,0.7945 0,0.4391 -0.3739,0.7102 -1.1215,0.7942 -1.7754,0.2057 -3.2986,0.4487 -4.5789,0.7383 -1.4578,1.7382 -3.5697,4.6724 -6.3451,8.8217 -4.1681,6.1862 -7.1863,11.3634 -9.0647,15.5219 -0.5515,1.2055 -0.8223,1.981 -0.8223,2.3268 0,0.5327 0.3363,0.7943 1.0092,0.7943 0.243,0 0.9718,-0.0748 2.1961,-0.2243 0.8223,-0.084 1.5699,-0.1309 2.2428,-0.1309 0.6167,0 0.9344,0.2523 0.9344,0.7664 0,0.4953 -0.4206,0.785 -1.2615,0.8785 -5.4014,0.5979 -9.8962,1.7194 -13.4755,3.3641 -0.3831,0.1683 -0.654,0.243 -0.813,0.243 -0.2989,0 -0.5046,-0.1121 -0.6355,-0.3551 -0.0747,-0.159 -0.0747,-0.3458 0,-0.542 0.2711,-0.6821 1.9253,-1.5325 4.953,-2.5793 0.8597,-2.8128 2.794,-6.775 5.8125,-11.9053 1.196,-2.0467 1.8503,-3.1494 1.9436,-3.3174 0.1216,-0.2711 0.1871,-0.5234 0.1871,-0.7664 0,-0.4018 -0.2711,-0.5981 -0.8224,-0.5981 -0.9439,0 -3.355,0.1963 -7.2236,0.5981 -2.4858,0.2804 -4.7752,0.57 -6.8778,0.8785 -1.8225,2.7566 -3.5138,5.7844 -5.0651,9.0925 -0.6915,1.4952 -1.0373,2.467 -1.0373,2.9249 0,0.5888 0.327,0.8785 0.9906,0.8785 0.2149,0 0.9906,-0.0747 2.3268,-0.2149 0.785,-0.0936 1.4952,-0.1402 2.1307,-0.1402 0.7664,0 1.1494,0.2523 1.1494,0.7664 0,0.4577 -0.4204,0.7288 -1.2615,0.8223 -3.1213,0.3644 -5.4574,0.7381 -7.0087,1.1213 -1.654,0.4394 -3.8594,1.2336 -6.5975,2.383 -0.3644,0.1589 -0.6447,0.243 -0.8504,0.243 -0.4298,0 -0.654,-0.1964 -0.654,-0.5981 0,-0.4018 0.1961,-0.7196 0.5793,-0.9626 0.7476,-0.4579 2.2147,-1.1308 4.4013,-2.0278 0.9532,-2.8783 2.6821,-6.5227 5.2053,-10.9243 1.7006,-2.9342 4.8407,-7.8122 9.4195,-14.6153 0.2338,-0.3646 0.3552,-0.6355 0.3552,-0.8223 0,-0.2899 -0.215,-0.4394 -0.626,-0.4394 -0.2618,0 -0.8973,0.243 -1.9251,0.7102 -0.9251,0.4206 -1.5232,0.6355 -1.7755,0.6355 -0.4768,0 -0.6729,-0.2335 -0.5981,-0.6821 0.0466,-0.3832 0.3084,-0.701 0.7661,-0.9345 2.0186,-1.0748 4.3642,-1.9904 7.0368,-2.738 3.3362,-0.9345 5.8872,-1.3924 7.6628,-1.3924 0.7476,0 1.1215,0.2616 1.1215,0.785 0,0.4765 -0.3832,0.7568 -1.1494,0.8223 -1.7008,0.1495 -3.2614,0.4484 -4.6819,0.9063zm-23.3529 -0.3551c-4.8874,6.3733 -8.7377,11.8775 -11.5224,16.5406 -2.0838,3.5138 -3.5978,6.4573 -4.551,8.8122 -0.2897,0.729 -0.4391,1.2336 -0.4391,1.5047 0,0.57 0.2803,0.8504 0.8223,0.8504 0.1121,0 0.243,-0.0095 0.3832,-0.0281 1.3923,-0.1495 2.6726,-0.2242 3.8408,-0.2242 0.7942,0 1.196,0.2523 1.196,0.7476 0,0.3829 -0.1869,0.626 -0.5701,0.7381 -0.2242,0.0654 -0.9718,0.1401 -2.2427,0.2149 -3.3267,0.1683 -6.7469,1.0372 -10.27,2.626 -1.2243,0.57 -2.0186,0.8504 -2.383,0.8504 -0.3084,0 -0.4672,-0.1402 -0.4672,-0.4392 0,-0.5233 0.2523,-0.9251 0.7381,-1.2055 0.7664,-0.402 2.0467,-0.9906 3.8408,-1.7756l0.2711 -0.1121c1.2802,-2.8597 2.467,-5.3733 3.5604,-7.5228 2.0278,-3.9248 4.1304,-7.5411 6.3266,-10.8493 1.0558,-1.6168 3.121,-4.5883 6.2142,-8.8963 0.1964,-0.2711 0.2992,-0.4768 0.2992,-0.6262 0,-0.3271 -0.159,-0.4953 -0.4672,-0.4953 -0.3273,0 -1.4019,0.1589 -3.2334,0.4672 -2.5886,0.4205 -4.5325,0.7944 -5.8313,1.1215 -1.3643,1.841 -2.4858,3.6725 -3.3643,5.4761 -0.2335,0.4953 -0.5605,0.7662 -0.9625,0.8224 -0.5979,0.0933 -0.8409,-0.2245 -0.7381,-0.9345 0.1307,-0.8692 1.112,-2.6633 2.9623,-5.364 1.4578,-2.1307 2.9437,-3.9903 4.4575,-5.5602 0.7664,-0.7664 1.2991,-1.1496 1.5887,-1.1496 0.5327,0 0.7943,0.2523 0.7943,0.7383 0,0.3832 -0.4206,0.9906 -1.2615,1.8129 -0.6917,0.6729 -1.0375,1.1682 -1.0375,1.4767 0,0.2335 0.1497,0.3551 0.4394,0.3551 0.2335,0 1.1586,-0.1497 2.7659,-0.4394 6.6258,-1.0934 12.6905,-1.6727 18.2041,-1.7194 0.6914,-1.028 1.1774,-1.7194 1.4485,-2.084 0.57,-0.785 1.0558,-1.1775 1.4576,-1.1775 0.402,0 0.5981,0.2804 0.5981,0.8505 0,0.1216 -0.7102,1.2521 -2.1399,3.3642 -0.8317,1.2241 -1.6914,2.8034 -2.5699,4.7379 -0.2337,0.5512 -0.7942,1.9436 -1.6727,4.1864 -0.1963,0.5141 -0.4672,0.7664 -0.813,0.7664 -0.5139,0 -0.7757,-0.243 -0.7757,-0.7383 0,-0.6355 0.8504,-2.8595 2.5512,-6.6536 0.0936,-0.215 0.1402,-0.4299 0.1402,-0.626 0,-0.5515 -0.5515,-0.8223 -1.6447,-0.8223 -2.0652,0 -4.0464,0.1306 -5.9433,0.3829zm-36.1368 26.2313l0.2989 -0.4392c2.2616,-3.2148 3.6725,-4.8221 4.2145,-4.8221 0.5327,0 0.7945,0.243 0.7945,0.7383 0,0.2804 -0.159,0.6074 -0.4953,0.9906 -2.5698,2.9904 -4.8595,6.4854 -6.8686,10.4849 -0.3084,0.5981 -0.5981,0.8973 -0.8785,0.8973 -0.6914,0 -0.9532,-0.3273 -0.7942,-0.9813 0.1121,-0.4206 0.4579,-1.1867 1.0465,-2.299 0.7103,-1.355 1.0654,-2.1026 1.0654,-2.2427 0,-0.2428 -0.1121,-0.3925 -0.3271,-0.4673 -0.1309,-0.0373 -0.4391,-0.0559 -0.9344,-0.0559 -3.1398,0 -7.0649,0.4484 -11.7746,1.3457 -2.5513,0.4858 -4.523,0.9718 -5.9061,1.4483l-5.6163 1.9439c-0.2335,0.0747 -0.4577,0.1121 -0.6541,0.1121 -0.3644,0 -0.5512,-0.2711 -0.5512,-0.7943 0,-0.3365 0.2523,-0.6169 0.7381,-0.8504 0.6916,-0.3458 1.8784,-0.813 3.5604,-1.4019 1.4392,-3.7379 3.2522,-7.5692 5.4202,-11.494 0.6726,-1.1496 2.2802,-3.7194 4.8219,-7.6909 2.6445,-4.2054 4.3827,-6.7191 5.1958,-7.5602 0.1494,-0.1868 0.2242,-0.327 0.2242,-0.4391 0,-0.4579 -0.2242,-0.6448 -0.6822,-0.5701 -0.6262,0.1029 -1.7382,0.3832 -3.3454,0.8224 -0.2335,0.0654 -0.4766,0.1028 -0.7103,0.1028 -0.4205,0 -0.626,-0.2242 -0.626,-0.6821 0,-0.3459 0.3552,-0.6543 1.0652,-0.9347 2.5045,-0.9252 6.3453,-1.7006 11.5223,-2.3268 4.2707,-0.486 8.3452,-0.7383 12.2138,-0.7383 0.9345,-1.3643 1.514,-2.2147 1.757,-2.5417 0.5979,-0.785 1.112,-1.1775 1.5326,-1.1775 0.411,0 0.6259,0.2523 0.6259,0.7662 0,0.1775 -0.6447,1.2243 -1.9436,3.1213 -1.2429,1.9343 -2.57,4.5883 -3.9997,7.9619 -0.2523,0.626 -0.5701,0.9344 -0.9533,0.9344 -0.4765,0 -0.7195,-0.2242 -0.7195,-0.6821 0,-0.4953 0.7383,-2.383 2.1961,-5.6725 0.0936,-0.2149 0.1402,-0.383 0.1402,-0.4858 0,-0.3365 -0.159,-0.5234 -0.4672,-0.5793 -0.1121,-0.0188 -0.3551,-0.0281 -0.7383,-0.0281 -1.4112,0 -3.4483,0.1214 -6.1116,0.3551 -2.3923,0.2054 -4.2052,0.4298 -5.4481,0.6821 -0.9252,1.1213 -2.6258,3.3829 -5.093,6.7938 -1.5325,2.1212 -2.2987,3.3641 -2.2987,3.7473 0,0.2242 0.1214,0.3644 0.3551,0.4391 0.1868,0.0374 0.9811,-0.0466 2.383,-0.243 2.1773,-0.327 4.4106,-0.5139 6.7095,-0.5512 1.5699,-2.4951 2.7007,-3.7473 3.3922,-3.7473 0.4019,0 0.6074,0.2523 0.6074,0.7662 0,0.1775 -0.0933,0.402 -0.2802,0.6543 -1.271,1.7379 -2.2896,3.2331 -3.0372,4.4948 -0.6355,1.112 -1.4859,2.7567 -2.5418,4.9247 -0.3084,0.6169 -0.6074,0.9345 -0.8785,0.9345 -0.5512,0 -0.8223,-0.215 -0.8223,-0.6353 0,-0.5422 0.327,-1.4205 0.9906,-2.626 0.6914,-1.2617 1.0373,-2.0559 1.0373,-2.383 0,-0.4391 -0.2897,-0.654 -0.8785,-0.654 -1.1868,0 -2.9904,0.1868 -5.42,0.57 -1.6073,0.2428 -2.7381,0.4299 -3.3922,0.5793 -1.4578,1.9532 -3.3828,5.3546 -5.7751,10.2141 -0.729,1.4952 -1.1027,2.4577 -1.1027,2.8968 0,0.6636 0.299,0.9906 0.8783,0.9906 0.2896,0 1.1027,-0.1402 2.4391,-0.4113 5.0368,-0.9903 9.9803,-1.4856 14.8398,-1.5044zm147.967 -56.8452c0.4484,-0.7288 1.0746,-1.5885 1.8595,-2.5979 1.4391,-1.8035 2.439,-2.71 2.9809,-2.71 0.4206,0 0.6262,0.2242 0.6262,0.6821 0,0.2804 -0.1961,0.6355 -0.5981,1.0746 -2.5698,2.6634 -4.8966,6.2145 -6.9806,10.6439 -0.215,0.4953 -0.5327,0.7383 -0.9345,0.7383 -0.4205,0 -0.6262,-0.2242 -0.6262,-0.6821 0,-0.4018 0.6355,-1.7942 1.9158,-4.1867 0.2056,-0.3644 0.2991,-0.6447 0.2991,-0.8223 0,-0.2709 -0.187,-0.411 -0.57,-0.411 -2.4858,0 -5.6632,0.2803 -9.5319,0.8504 -5.1117,0.7476 -9.5692,1.8876 -13.3819,3.4202 -0.3551,0.1495 -0.6541,0.2149 -0.9066,0.2149 -0.327,0 -0.4951,-0.2896 -0.4951,-0.8692 0,-0.2801 0.2523,-0.5419 0.7381,-0.7942 0.243,-0.1309 1.6261,-0.6822 4.1678,-1.6447l0.1871 -0.4391c1.897,-4.2147 3.6071,-7.719 5.1208,-10.5132 1.2617,-2.2428 2.8036,-4.766 4.6258,-7.56 1.9719,-3.0091 3.6539,-5.4295 5.037,-7.2517 0.2242,-0.3085 0.327,-0.5608 0.327,-0.7662 0,-0.2899 -0.1587,-0.4393 -0.486,-0.4393 -0.3363,0 -0.9811,0.2244 -1.9436,0.6635 -0.9532,0.4111 -1.5794,0.6262 -1.8969,0.6262 -0.402,0 -0.5889,-0.187 -0.5703,-0.5514 0.0188,-0.458 0.243,-0.8038 0.6824,-1.0373 1.8034,-1.0187 4.2051,-1.9531 7.2048,-2.7942 3.2615,-0.9252 5.8313,-1.3924 7.6909,-1.3924 0.7664,0 1.1493,0.2523 1.1493,0.7664 0,0.3832 -0.2054,0.626 -0.6074,0.7383 -0.1402,0.0374 -0.9999,0.1495 -2.5698,0.3551 -0.785,0.1121 -1.6261,0.2709 -2.5136,0.4951 -1.7382,2.0747 -3.9717,5.1398 -6.7098,9.1675 -3.196,4.7659 -5.8499,9.1953 -7.9712,13.2791 -1.2615,2.4484 -1.8877,4.0276 -1.8877,4.7379 0,0.3644 0.243,0.5419 0.7383,0.5419 0.1495,0 1.5138,-0.2054 4.1116,-0.626 3.4857,-0.5326 7.392,-0.8318 11.7188,-0.9065zm-29.8478 -13.5781c1.9531,-0.3458 3.2519,-0.5141 3.8874,-0.5141 0.6262,0 0.9344,0.243 0.9344,0.7383 0,0.4206 -0.2523,0.6916 -0.738,0.8223 -0.2245,0.0655 -0.8973,0.1683 -2.0279,0.2992 -1.3364,0.1588 -2.1214,0.3737 -2.3549,0.626 -0.2711,0.3084 -0.5981,2.3829 -0.9813,6.2144 -0.3739,3.6911 -0.486,5.8687 -0.3644,6.5415 0.1307,0.5886 0.4484,0.8783 0.9625,0.8783 0.1121,0 0.243,-0.0093 0.4111,-0.0281 1.056,-0.084 2.1494,-0.1307 3.2895,-0.1307 1.1306,0 1.6913,0.2616 1.6913,0.7943 0,0.4672 -0.3832,0.7383 -1.1493,0.7942 -2.5886,0.159 -4.8407,0.4673 -6.7657,0.9252 -1.3831,0.3458 -2.4951,0.6916 -3.3362,1.0373l-3.0932 1.2616c-0.2897,0.1121 -0.5794,0.1683 -0.8504,0.1683 -0.4018,0 -0.5979,-0.2056 -0.5979,-0.6074 0,-0.4486 0.2427,-0.8225 0.738,-1.0934 1.4393,-0.7664 3.2801,-1.4952 5.5324,-2.1869 0.0373,-3.5416 0.4298,-8.2609 1.1774,-14.1574 -6.0088,1.112 -10.1486,2.0184 -12.4287,2.71 -1.0468,1.2056 -2.6074,3.2613 -4.6819,6.1583 -0.9533,1.3363 -1.4298,2.1493 -1.4298,2.439 0,0.402 0.2616,0.6074 0.7664,0.6074 0.1681,0 0.9438,-0.0653 2.3268,-0.1962 0.7103,-0.0561 1.3643,-0.084 1.9436,-0.084 0.7664,0 1.1496,0.2523 1.1496,0.7381 0,0.4767 -0.4112,0.7383 -1.2336,0.7945 -2.5698,0.168 -4.7471,0.4672 -6.5415,0.9063 -1.4952,0.3644 -2.6072,0.7102 -3.336,1.0373l-3.0932 1.3176c-0.3644,0.1683 -0.7009,0.243 -1.0186,0.243 -0.3271,0 -0.486,-0.2149 -0.486,-0.654 0,-0.3832 0.2898,-0.7384 0.8692,-1.0654 1.5325,-0.8037 3.2614,-1.514 5.177,-2.1399l0.3272 -0.4394c3.0651,-4.3735 5.1956,-7.3262 6.3825,-8.8402 -0.327,0.0561 -1.4859,0.3644 -3.4764,0.9344 -0.2896,0.0843 -0.5512,0.1309 -0.7661,0.1309 -0.402,0 -0.6074,-0.2523 -0.6074,-0.7664 0,-0.3829 0.5326,-0.7476 1.5885,-1.0932 0.897,-0.2896 1.8783,-0.5795 2.9623,-0.8785 1.0748,-0.2711 1.7755,-0.4486 2.1025,-0.5419l0.4113 -0.4394c5.7471,-6.5508 10.8495,-11.9334 15.307,-16.1572 1.514,-1.4392 2.6541,-2.4298 3.4202,-2.981 0.4765,-0.3459 0.8785,-0.5234 1.2056,-0.5234 0.5981,0 0.9063,0.2991 0.9063,0.8785 0,0.243 -0.1121,0.6355 -0.327,1.1774 -2.0091,5.1865 -3.2708,9.971 -3.7846,14.3445zm-3.4203 0.5793c0.1309,-1.1308 0.4858,-2.9904 1.0654,-5.5602 0.4765,-2.0466 0.8504,-3.5323 1.1213,-4.4575 0.0373,-0.1309 0.0561,-0.2337 0.0561,-0.3084 0,-0.3458 -0.159,-0.458 -0.486,-0.3551 -0.3832,0.1121 -2.7193,2.4203 -7.0087,6.9247 -3.037,3.1772 -4.551,4.9059 -4.551,5.177 0,0.3084 0.1216,0.4672 0.3551,0.4672 0.2056,0 1.7943,-0.3271 4.7659,-0.9906 1.2617,-0.2709 2.8223,-0.5701 4.6819,-0.8971zm-37.3423 -12.9521c-2.3175,2.9437 -4.6069,6.1397 -6.8685,9.6066 -0.8785,1.355 -1.3176,2.1493 -1.3176,2.383 0,0.2989 0.1775,0.4391 0.5233,0.4391 0.215,0 1.9905,-0.2054 5.336,-0.626 4.8219,-0.5326 7.887,-0.7849 9.1953,-0.7663 1.2615,-1.9158 2.9157,-4.28 4.9621,-7.0928 0.2523,-0.3458 0.3832,-0.6167 0.3832,-0.8223 0,-0.3271 -0.1775,-0.4953 -0.5234,-0.4953 -0.2708,0 -1.4202,0.3925 -3.4481,1.1774 -0.3832,0.1495 -0.6728,0.2242 -0.8504,0.2242 -0.4767,0 -0.7102,-0.168 -0.7102,-0.4953 0,-0.495 0.2616,-0.869 0.7943,-1.1212 2.495,-1.2803 5.448,-2.3176 8.8402,-3.1213 2.7754,-0.6541 4.8968,-0.9906 6.3827,-0.9906 0.7662,0 1.1494,0.2711 1.1494,0.7944 0,0.4392 -0.3739,0.7103 -1.1215,0.7943 -1.7754,0.2056 -3.2986,0.4486 -4.5789,0.7383 -1.4578,1.7382 -3.5697,4.6724 -6.3451,8.8217 -4.1681,6.1861 -7.1863,11.3633 -9.0647,15.5219 -0.5515,1.2055 -0.8223,1.9809 -0.8223,2.3268 0,0.5326 0.3363,0.7942 1.0091,0.7942 0.243,0 0.9718,-0.0747 2.1962,-0.2242 0.8223,-0.084 1.5699,-0.1309 2.2427,-0.1309 0.6167,0 0.9345,0.2523 0.9345,0.7664 0,0.4953 -0.4206,0.785 -1.2615,0.8785 -5.4014,0.5979 -9.8963,1.7194 -13.4755,3.364 -0.3832,0.1683 -0.654,0.2431 -0.813,0.2431 -0.299,0 -0.5046,-0.1122 -0.6355,-0.3552 -0.0747,-0.1589 -0.0747,-0.3458 0,-0.5419 0.2711,-0.6822 1.9253,-1.5326 4.953,-2.5793 0.8597,-2.8129 2.794,-6.775 5.8125,-11.9054 1.196,-2.0466 1.8503,-3.1493 1.9436,-3.3174 0.1216,-0.2711 0.1871,-0.5234 0.1871,-0.7664 0,-0.4017 -0.2711,-0.5981 -0.8224,-0.5981 -0.9439,0 -3.355,0.1964 -7.2236,0.5981 -2.4858,0.2804 -4.7752,0.5701 -6.8778,0.8785 -1.8225,2.7567 -3.5138,5.7844 -5.0651,9.0925 -0.6915,1.4952 -1.0373,2.467 -1.0373,2.925 0,0.5888 0.327,0.8785 0.9906,0.8785 0.2149,0 0.9906,-0.0748 2.3268,-0.215 0.785,-0.0935 1.4952,-0.1401 2.1307,-0.1401 0.7664,0 1.1493,0.2522 1.1493,0.7663 0,0.4578 -0.4203,0.7288 -1.2614,0.8224 -3.1213,0.3644 -5.4574,0.7381 -7.0087,1.1213 -1.654,0.4393 -3.8594,1.2336 -6.5975,2.3829 -0.3644,0.159 -0.6448,0.243 -0.8504,0.243 -0.4298,0 -0.6541,-0.1963 -0.6541,-0.5981 0,-0.4018 0.1962,-0.7195 0.5794,-0.9625 0.7476,-0.4579 2.2147,-1.1308 4.4013,-2.0279 0.9532,-2.8782 2.6821,-6.5227 5.2053,-10.9242 1.7006,-2.9342 4.8407,-7.8123 9.4195,-14.6153 0.2337,-0.3647 0.3551,-0.6355 0.3551,-0.8224 0,-0.2899 -0.2149,-0.4393 -0.6259,-0.4393 -0.2618,0 -0.8973,0.243 -1.9251,0.7102 -0.9251,0.4206 -1.5232,0.6355 -1.7755,0.6355 -0.4768,0 -0.6729,-0.2335 -0.5982,-0.6822 0.0467,-0.3832 0.3085,-0.7009 0.7662,-0.9344 2.0186,-1.0748 4.3642,-1.9905 7.0368,-2.7381 3.3362,-0.9344 5.8872,-1.3923 7.6628,-1.3923 0.7476,0 1.1215,0.2615 1.1215,0.7849 0,0.4765 -0.3832,0.7569 -1.1494,0.8223 -1.7008,0.1495 -3.2614,0.4485 -4.6819,0.9064zm-18.4002 -1.2895l0.3832 -0.5982c0.7103,-1.1308 1.2896,-1.9905 1.7289,-2.5698 0.3644,-0.4579 0.7288,-0.6914 1.0932,-0.6914 0.3832,0 0.5796,0.2523 0.5796,0.7381 0,0.2056 -0.0843,0.4486 -0.2523,0.7383 -0.0374,0.0747 -0.7571,1.2522 -2.1588,3.5323 -0.9718,1.5233 -2.0652,3.7849 -3.2893,6.7938 -0.2711,0.6729 -0.5422,1.0094 -0.8225,1.0094 -0.5979,0 -0.8971,-0.2151 -0.8971,-0.6543 0,-0.5793 0.5141,-2.009 1.5606,-4.2706 0.215,-0.4953 0.3271,-0.8878 0.3271,-1.1775 0,-0.9998 -1.57,-1.5044 -4.7098,-1.5044 -3.4295,0 -6.3171,0.8035 -8.6534,2.411 -1.7008,1.168 -2.5417,2.4204 -2.5417,3.7473 0,1.0558 0.4577,2.1866 1.3923,3.3921 0.6167,0.7664 1.981,2.1588 4.0836,4.1678 1.2336,1.187 2.2242,2.299 2.953,3.3362 0.8224,1.1868 1.2336,2.5232 1.2336,3.9996 0,2.4298 -1.0465,4.635 -3.1493,6.6255 -1.6633,1.5887 -3.738,2.7476 -6.2424,3.4764 -1.682,0.4953 -3.4483,0.7383 -5.3079,0.7383 -2.4669,0 -4.7192,-0.4953 -6.7657,-1.4766 -0.57,-0.2616 -1.2336,-0.626 -1.9997,-1.0932 -0.7103,1.2522 -1.3365,2.5417 -1.8877,3.8593 -0.2056,0.4861 -0.5234,0.7384 -0.9625,0.7384 -0.3832,0 -0.5701,-0.2245 -0.5701,-0.6636 0,-0.4299 0.383,-1.4485 1.1494,-3.037 1.4952,-3.1025 3.3921,-5.8875 5.6911,-8.3452 0.7102,-0.7662 1.2429,-1.1494 1.5887,-1.1494 0.4577,0 0.6821,0.2243 0.6821,0.6822 0,0.2149 -0.0561,0.4113 -0.1775,0.57 -0.1121,0.1683 -0.5327,0.6543 -1.2429,1.4578 -1.187,1.2896 -1.7756,2.2428 -1.7756,2.8409 0,0.458 0.1962,0.8505 0.5982,1.1775 0.4953,0.4018 1.196,0.7942 2.1118,1.1774 1.7289,0.7195 3.7568,1.0747 6.0743,1.0747 2.3175,0 4.2707,-0.5232 5.8592,-1.5607 2.168,-1.4483 3.2614,-3.336 3.2614,-5.6723 0,-1.3643 -0.4486,-2.6445 -1.3457,-3.8312 -0.6167,-0.8226 -1.7194,-2 -3.3081,-3.5326 -2.3361,-2.2802 -3.8034,-3.906 -4.3828,-4.8685 -0.654,-1.0654 -0.9906,-2.0933 -0.9906,-3.0932 0,-2.14 1.2244,-4.0372 3.6726,-5.7004 3.1586,-2.1121 7.4759,-3.1774 12.9521,-3.1774 1.5699,0 3.0558,0.1309 4.4574,0.3832zm-27.7635 1.2055c-4.1959,5.4014 -7.8684,10.8026 -11.0271,16.1855 -3.4483,5.8779 -5.177,9.3636 -5.177,10.4568 0,0.5326 0.2897,0.7944 0.8783,0.7944 0.1216,0 0.9159,-0.0842 2.383,-0.2523 0.7663,-0.0842 1.4392,-0.1309 2.0185,-0.1309 0.7664,0 1.1494,0.2616 1.1494,0.7943 0,0.4579 -0.4299,0.7195 -1.3081,0.7942 -4.6353,0.4768 -8.6068,1.4019 -11.9149,2.7943 -1.3269,0.5607 -2.1121,0.8411 -2.3549,0.8411 -0.4486,0 -0.6821,-0.2337 -0.6821,-0.7102 0,-0.3458 0.168,-0.6169 0.4951,-0.8223 0.5795,-0.3459 2.0933,-1.0094 4.5136,-2 0.1121,-0.2523 0.5234,-1.2149 1.2336,-2.8969 2.6634,-6.1864 6.8686,-13.2605 12.597,-21.2223 0.9064,-1.2336 1.3643,-1.9624 1.3643,-2.1587 0,-0.2897 -0.1588,-0.4392 -0.486,-0.4392 -0.4577,0 -1.411,0.3551 -2.8502,1.0654 -0.4391,0.2242 -0.7755,0.3082 -1.0185,0.2523 -0.2711,-0.0936 -0.402,-0.2897 -0.402,-0.5794 0,-0.4393 0.2338,-0.7944 0.7103,-1.0653 2.3737,-1.3364 5.3174,-2.4203 8.8404,-3.2615 2.3549,-0.5607 4.1117,-0.8504 5.2798,-0.8504 1.0466,0 1.5607,0.2804 1.5607,0.8224 0,0.4019 -0.215,0.6635 -0.6543,0.7663 -0.1495,0.0374 -0.9345,0.1307 -2.3549,0.2804 -0.8409,0.084 -1.7661,0.2709 -2.794,0.542zm-17.3256 0.0281c-1.1867,0.168 -2.224,0.3644 -3.121,0.6074 -1.6076,0.4017 -2.5513,0.5981 -2.8224,0.5981 -0.5045,0 -0.7661,-0.2899 -0.7661,-0.8785 0,-0.327 0.2242,-0.5793 0.654,-0.7664 1.2056,-0.4858 3.4857,-1.028 6.8219,-1.6166 2.7567,-0.486 5.42,-0.7383 7.9898,-0.7383 0.9345,0 1.4019,0.2711 1.4019,0.7945 0,0.4018 -0.2056,0.6633 -0.6076,0.7662 -0.1962,0.0561 -0.7288,0.084 -1.5885,0.084 -2.2616,-0.0186 -3.8875,0.3084 -4.8688,0.9906 -1.3362,0.8318 -4.6165,3.9436 -9.8589,9.3355 -6.6255,6.7283 -12.7465,14.2324 -18.3721,22.5028 -0.411,0.6167 -0.8411,0.9251 -1.2803,0.9251 -0.57,0 -0.9251,-0.2711 -1.0653,-0.813 -0.0747,-0.2804 -0.1121,-2.1026 -0.1121,-5.4762 0,-2.7193 0.3177,-6.2611 0.9532,-10.6253 0.8224,-5.4947 1.9532,-10.7186 3.4015,-15.6621 -1.6073,0.458 -3.2427,1.0842 -4.9059,1.8879 -0.3273,0.1495 -0.5796,0.2242 -0.7664,0.2242 -0.5046,0 -0.7662,-0.243 -0.7662,-0.7102 0,-0.3832 0.2335,-0.7195 0.6821,-0.9906 1.6259,-0.9625 3.9808,-1.8689 7.0647,-2.71 1.9343,-0.5141 3.897,-0.8878 5.8872,-1.1215 1.1496,-0.1495 1.8879,-0.1868 2.2149,-0.1121 0.4018,0.0747 0.6075,0.3177 0.6075,0.7383 0,0.3458 -0.1776,0.5888 -0.5234,0.7102 -0.1588,0.0748 -0.8412,0.1869 -2.0279,0.3363 -1.5792,0.1776 -2.5605,0.3739 -2.9249,0.5701 -0.4579,0.2523 -0.8597,0.8037 -1.2055,1.6449 -0.9811,2.4482 -1.9624,6.4665 -2.925,12.0736 -0.3832,2.168 -0.6916,4.3173 -0.9065,6.4291 -0.3271,3.1587 -0.4951,5.4481 -0.4951,6.8781 0,0.2708 0.0093,0.7102 0.0278,1.3081 2.5046,-3.6444 5.7754,-7.803 9.8309,-12.4568 2.738,-3.1025 5.6258,-6.1862 8.6814,-9.2513 2.3644,-2.3925 4.2707,-4.2147 5.6911,-5.4761zm-117.736 71.518c0,-1.118 1.4278,-4.4953 1.8614,-5.4499 0.3626,-0.798 0.7805,-1.6477 1.1166,-2.4809 0.2322,-0.5747 0.2413,-0.8166 0.7175,-1.1396 0.4452,-0.3012 0.7916,-0.3111 0.8412,-0.9013 -0.7363,0.1957 -3.3117,2.042 -3.3734,2.7823l0.9093 -0.6076c0.0095,0.561 -2.5079,6.2861 -2.9292,7.7539 -0.3372,1.1721 -1.2046,0.9923 -1.2046,1.4461 0,0.4502 1.1529,-0.4299 1.5571,-0.6307 0.6622,-0.3283 2.9906,-1.5694 3.6449,-1.5843l-0.5261 1.7201 0.1579 0.0582 1.7846 -4.4372c-1.0304,0.666 -0.2803,1.5753 -1.8045,2.2724 -0.7487,0.3428 -2.0471,1.0349 -2.7527,1.1985zm-5.5829 -3.1308c0.0484,-0.5731 2.1008,-3.3568 2.5587,-3.4786l-0.5167 3.0065 -2.042 0.4721zm3.6008 -5.3349c-0.7606,0.0648 -2.2715,2.6147 -2.7666,3.2679 -0.4513,0.5959 -0.8115,1.1461 -1.267,1.751 -0.7867,1.0439 -1.6882,0.4345 -1.7775,1.2434l0.9271 -0.1356c-0.0725,0.3467 -0.7955,1.5432 -1.0175,1.9007 -0.6672,1.0736 -1.4632,0.3551 -1.5375,1.2498 0.8314,-0.0188 1.4276,-0.4641 2.6751,-0.4641l0.5818 0c-0.2152,-0.804 -1.2794,0.0272 -1.2794,-0.5796 0,-0.2762 1.0058,-2.0077 1.1907,-2.1758 0.2432,-0.2206 2.1755,-0.6834 2.6474,-0.7228l-0.251 3.9407c-0.4431,0.2446 -1.2068,0.3927 -1.2612,1.0453l3.2183 -1.1525 0.039 -0.2388 -0.582 0c-0.3635,0 -0.6981,0.3016 -0.6981,-0.2322l0 -0.8117 0.2034 -2.7854c0.5878,-0.1276 1.0282,-0.1179 1.0767,-0.6936l-1.049 0.2089 0.9273 -4.6156zm-11.0449 2.9002c0.0143,-0.6519 1.4925,-3.0147 1.8609,-3.0147l0.3491 0 0.7014 0.0146 -0.0033 -0.1305c-0.2191,-0.2983 -0.6448,-0.3482 -1.1631,-0.3482l-0.4652 0c-0.7295,0 -1.703,-0.0115 -1.8618,0.5797l0.582 0.029 0.4654 -0.029c-0.0469,0.563 -1.345,2.4834 -1.6981,3.0609 -0.6736,1.0997 -0.9097,2.0934 -1.4424,3.2003 -0.6324,0 -0.9105,-0.0451 -1.047,0.4636l0.3516 0.1097c0.2583,-0.0537 0.2651,-0.1097 0.5793,-0.1097 0.9922,0 1.5894,0.3481 2.4425,0.3481 -0.0591,-0.5356 -0.7403,-0.5703 -1.2796,-0.6954l0 -0.4644c0,-0.4871 0.9307,-2.229 1.163,-2.6666l3.2734 0.6171c-0.1603,0.6921 -0.8855,1.9065 -1.1798,2.6293 -0.0732,0.1818 -0.4436,1.2385 -0.5119,1.345 -0.3438,0.5316 -0.6565,-0.0586 -1.1164,0.6267l1.745 0 1.6257 0.1393c-0.0973,-0.9351 -1.277,-0.1572 -1.277,-0.9513 0,-0.7071 1.428,-3.2566 1.7847,-3.9024 0.3632,-0.6561 0.6483,-1.1839 1.0038,-1.7829 0.4803,-0.8095 0.4482,-1.0397 1.7477,-1.0397l0 -0.3474 -0.8141 0c-0.9132,0 -2.6054,0.0861 -2.6755,0.9272l1.0461 -0.2346 0.0008 0.3505c0,0.1368 -0.9039,1.5854 -1.0469,1.8553l-3.1403 -0.5795zm-6.5137 -4.9857l0 0.3476c0,1.1947 3.8072,6.6085 1.047,6.6085 -0.8851,0 -2.792,-1.7822 -2.792,-2.4348 0,-0.4302 0.3379,-0.7159 0.6983,-0.8114 -0.1243,-1.4809 -1.8609,1.1845 -1.8609,1.7395 0,0.4431 -0.0361,0.042 0.1558,0.371l0.5402 -0.905 0.1181 0.0703c0.2205,0.8234 2.0893,2.4347 3.1405,2.4347 0.934,0 1.6285,-0.7743 1.6285,-1.7397 0,-1.6748 -3.5635,-6.1449 -1.163,-6.1449l0.3489 0c0.6306,0 2.0935,0.6647 2.0935,1.1598 0,0.7171 -0.3328,0.8783 -0.3491,1.623l0.2527 -0.0453 1.317 -2.8268 -0.1648 -0.1178 -0.5906 0.7869c-0.842,-0.1955 -1.8105,-1.1595 -3.14,-1.1595 -0.7262,0 -1.2801,0.3317 -1.2801,1.0439zm-3.6057 -3.363c0.3096,0.0069 0.9311,0.0865 0.9311,0.3478 0,0.2388 -1.4693,1.8466 -1.7225,2.2256 -0.2945,0.4391 -0.4785,0.7345 -0.7679,1.2061 -0.163,0.2656 -0.6023,1.3223 -0.7668,1.3223 -0.3395,0 -0.603,-0.1556 -0.9309,-0.2319 0.0601,0.7177 0.9446,0.7383 1.5913,1.0803 0.5212,0.276 1.2902,0.8927 1.782,1.0068 -0.1964,-0.7332 -1.3955,-1.0187 -1.3955,-1.3913 0,-0.9061 3.0439,-4.9857 3.489,-4.9857 0.2656,0 0.7578,0.3693 1.1633,0.4635 -0.1884,-0.8047 -2.3232,-1.5074 -3.3731,-1.5074l0 0.4639zm-6.3971 -6.9567l-0.9364 5.7786 0.1225 0.0186 0 1.8554c0,0.2682 0.1295,0.6958 0.3487,0.6958 0.036,0 4.7584,-3.1308 6.0484,-3.1308 0.3555,0 1.1126,0.6227 1.3952,0.8115 -0.0699,-0.8426 -3.1575,-2.5357 -3.3729,-2.4345 -0.1725,0.3638 0.821,0.9214 1.2796,1.0435 -0.0022,0.002 -4.4214,2.2793 -5.001,2.6664 0,-1.2601 0.3458,-6.6089 1.0463,-6.6089 0.2676,0 0.9247,0.6529 1.1631,0.8117 -0.0168,-0.7502 -2.591,-2.7177 -3.3729,-2.7827 0.201,0.8625 1.3369,0.9019 1.2794,1.2754zm54.3123 12.8559c-0.9548,-0.0745 -1.8996,-0.1097 -2.7076,-0.0546 -0.5357,0.032 -2.2405,-0.1608 -2.0081,0.5583 0.417,0.1008 0.5459,-0.0953 0.886,-0.0193 0.0734,0.0109 0.1397,0.06 0.1545,0.1415 0.0113,0.0575 -1.0034,2.7762 -1.1067,3.1525 -0.2363,0.8144 -0.7602,2.5585 -0.7564,3.5613 -0.1585,-0.0239 -0.8159,0.1362 -0.7973,0.2782 0.0256,0.1357 0.0291,0.0736 0.0886,0.2503 0.3797,0.12 1.5129,-0.2017 2.1106,-0.1851 0.7197,-0.0276 1.5502,-0.1117 2.4654,0.0736 0.0889,0.0164 0.1769,0.0319 0.266,0.0431 0.073,0.0087 0.1396,0.0493 0.1544,0.134 0.0745,0.4113 -0.2548,0.7899 -0.2475,1.455 0.0449,0.0053 0.0858,0.0163 0.1296,0.0163 0.1479,0.0215 0.5756,-1.3651 0.6421,-1.6053 0.0779,-0.2613 0.5871,-1.4136 0.5643,-1.5504 -0.0068,-0.0482 -0.1251,-0.1902 -0.1618,-0.1933 -0.2143,-0.0217 -0.5942,1.0846 -0.6758,1.3247 -1.4279,-0.2401 -2.321,-0.03 -3.4653,-0.1828 -0.0807,-0.0845 -0.1468,-0.1172 -0.1769,-0.278 -0.0033,-0.019 -0.0073,-0.0413 -0.0108,-0.0626 -0.0852,-0.4798 0.3684,-2.0384 0.457,-2.4466 0.1037,-0.4414 0.1188,-0.8069 0.561,-0.8175 0.421,-0.0161 0.8455,-0.0488 1.3141,0.0381 0.059,0.0112 0.1183,0.0221 0.1771,0.03 0.103,0.019 0.1402,0.0657 0.1663,0.2046 0.0811,0.4605 -0.2881,0.823 -0.0847,1.4335 0.3429,0.0568 0.4427,-0.9623 0.5198,-1.3135 0.1219,-0.5534 0.3359,-0.9676 0.4432,-1.4494 -0.0222,-0.0632 -0.0513,-0.1229 -0.0737,-0.1833 -0.048,-0.0051 -0.0928,-0.0075 -0.1331,-0.0164 -0.1475,-0.0106 -0.4356,0.7417 -0.4429,0.8993 -0.6386,-0.0462 -1.2767,-0.0948 -1.9115,-0.1415 -0.0518,-0.4338 0.6607,-2.0137 0.8119,-2.3865 0.1804,-0.4553 0.4869,-0.4307 1.0961,-0.3381 0.4946,0.0431 0.9629,-0.0245 1.5133,0.0356 0.0367,0.0352 0.0734,0.0736 0.1141,0.1121 0.0071,0.465 -0.2253,1.3347 -0.155,1.7404 0.0183,0.0845 0.0882,0.1283 0.151,0.1338 0.1915,0.0157 0.3211,-1.3537 0.3836,-1.627 0.0593,-0.2613 0.4471,-1.4359 0.4135,-1.5907 -0.0143,-0.082 -0.0809,-0.1227 -0.1512,-0.1282 -0.2255,-0.0164 -0.3392,0.7761 -0.5172,0.9539zm18.3084 -3.6188c0.0292,0.1066 0.1364,0.1771 0.1884,0.1422 0.1696,-0.0982 0.9446,-1.2754 1.0295,-0.9427 0.0664,0.2882 -0.6868,3.3128 -0.7971,3.8742 -0.1364,0.6727 -0.2293,1.3077 -0.3728,1.9615 -0.0847,0.4003 -0.1616,1.7515 -0.4097,1.9832 -0.2172,-0.7571 -0.4354,-1.5173 -0.653,-2.2748 -0.0674,-0.2782 -0.1296,-0.5586 -0.1957,-0.8392 -0.2286,-1.1334 -0.461,-2.2642 -0.6863,-3.4003 -0.0774,-0.0738 -0.1513,-0.18 -0.2731,-0.1121 -0.3317,0.1667 -1.7278,1.3822 -1.6747,1.6212 0.0247,0.1287 0.0621,0.1121 0.1357,0.1884 0.2249,-0.1742 0.7381,-0.7274 0.9338,-0.8203 0.1028,-0.0511 0.1364,-0.0248 0.17,0.1008 0.0036,0.019 0.0067,0.0383 0.0107,0.0544 0,0.0033 -0.2618,1.0846 -0.5349,2.2154 -0.2733,1.1308 -0.5643,2.3131 -0.6125,2.5607 -0.1594,0.7821 -0.3357,1.6626 -0.4175,2.4989 -0.0513,0.4984 -0.0073,0.8665 -0.3025,1.1526 -0.199,0.1959 -0.6978,0.6399 -0.6383,0.9615 0.0148,0.0796 0.0847,0.0895 0.155,0.0627 0.0152,-0.005 0.03,-0.0075 0.0444,-0.0165 0.048,-0.0162 1.0808,-0.959 1.2544,-1.1142 0.2808,-0.2559 1.1447,-0.8854 1.5317,-1.0652 0.0148,-0.0597 0.0628,-0.185 0.0517,-0.2127 -0.1293,-0.6377 -1.5752,1.0601 -1.6937,0.4661 -0.1252,-0.5998 0.3953,-2.9125 0.5313,-3.5122 0.1406,-0.608 0.5831,-3.0483 0.993,-3.2997 0.1139,0.6324 0.2322,1.2619 0.3499,1.8912 0.1112,0.6505 0.5169,2.278 0.7201,2.7982 0.2028,0.5475 0.5349,2.3702 0.9705,2.136 0.1404,-0.0791 0.3949,-2.7796 0.4677,-3.1524 0.1965,-1.0242 0.3916,-2.0624 0.5802,-3.0976 0.1806,-1.0057 0.4721,-2.0684 0.6901,-3.0705 0.0407,-0.1965 0.31,-1.3877 0.3728,-1.51 0.1879,-0.4084 0.926,-0.7029 1.1071,-1.2389 -0.0851,-0.0849 -0.096,-0.1943 -0.2322,-0.0957 -0.0146,0.0108 -0.0261,0.0188 -0.0411,0.0296 -0.572,0.3954 -2.8451,2.6709 -2.7529,3.0762zm-10.6098 4.3785c0.0186,0.0955 0.0593,0.1714 0.1223,0.1583 0.143,-0.03 0.4756,-0.4798 0.6746,-0.5236 0.0409,-0.0137 0.0887,-0.0219 0.1294,-0.0325 0.0402,0.2181 -0.1909,1.1777 -0.45,2.1606 -0.2603,0.9839 -0.5575,1.9862 -0.6348,2.3135 -0.1699,0.7135 -0.3432,1.5303 -0.4356,2.3376 -0.0553,0.5037 0.0112,0.858 -0.2764,1.0895 -0.1701,0.1364 -0.7346,0.4692 -0.6793,0.7527 0.0073,0.0566 0.0181,0.1167 0.0332,0.1766 0.3582,-0.0493 1.0215,-0.6839 1.4432,-0.8935 0.3427,-0.1857 1.5352,-0.5778 1.6632,-0.8531 -0.0429,-0.0707 -0.1322,-0.229 -0.2279,-0.2178 -0.314,0.117 -0.6274,0.2373 -0.9449,0.3487 -0.1105,-0.046 -0.1877,-0.0139 -0.2249,-0.1937 -0.0037,-0.021 -0.0079,-0.0409 -0.011,-0.0621 -0.1325,-0.6892 0.457,-2.8884 0.612,-3.4768 0.9447,-0.3598 1.8901,-0.7412 2.8385,-1.1775 0.0697,0.0874 0.107,0.0739 0.132,0.2017 0.0042,0.0188 0.0082,0.0385 0.0117,0.0573 0.0034,0.0055 -0.5499,2.733 -0.6014,3.0653 -0.0296,0.166 -0.1919,1.5695 -0.2072,1.5914 -0.195,0.3078 -0.9147,0.5227 -0.8077,1.1389 0.044,-0.0115 0.088,-0.0166 0.1331,-0.0276 0.1289,-0.0352 1.0109,-0.8471 1.3249,-1.0353 0.4721,-0.2938 1.07,-0.662 1.5867,-0.915 0,-0.1642 0.025,-0.1255 0,-0.2456 -0.0148,-0.079 -0.0824,-0.0896 -0.1552,-0.0628 -0.0588,0.0221 -0.1181,0.0435 -0.1769,0.0628 -0.2806,0.1037 -0.9335,0.5097 -0.9965,0.1988 -0.1219,-0.6127 0.5753,-3.6073 0.7345,-4.2362 0.1692,-0.6733 0.3173,-1.3954 0.5203,-2.0471 0.1769,-0.5687 0.4537,-1.4761 0.5831,-2.0157 0.2319,-0.095 1.077,-0.5501 1.0215,-0.7955 -0.1103,-0.4987 -1.6232,0.7843 -1.8368,0.9618 -0.3549,0.2722 -1.4213,1.0432 -1.3143,1.6049 0.3547,-0.008 0.9669,-0.9758 1.0629,-0.5424 0.0407,0.2204 -0.6275,2.0245 -0.6381,2.3843 -0.967,0.4628 -1.9377,0.8962 -2.9013,1.2778 -0.0484,-0.0466 -0.0882,-0.096 -0.1289,-0.1446 0.1665,-0.8964 0.4133,-1.5861 0.6494,-2.4303 0.31,-1.1339 0.3394,-1.3265 1.4539,-1.7957 0.0039,-0.057 0.0115,-0.1169 0.015,-0.1826 -0.0628,-0.0732 -0.0922,-0.1524 -0.2101,-0.115 -0.0298,0.0111 -0.0592,0.0199 -0.0884,0.0307 -0.6908,0.2043 -2.9048,1.564 -2.7978,2.1088zm13.9314 -6.3723c0.0997,0.4135 0.5389,-0.6107 0.7896,-0.8098 0.3357,-0.2589 -0.0258,0.9212 -0.0738,1.1255 -0.0997,0.4741 -0.188,0.8633 -0.2879,1.3404 -0.1844,0.8637 -0.4027,1.8335 -0.5238,2.6862 -0.1365,0.9262 -0.3032,1.7766 -0.3912,2.7248 -0.059,0.5939 0.0148,0.8636 -0.3065,1.2995 -0.2509,0.3378 -0.5939,0.6812 -0.6717,1.1363 0.0548,0.0245 0.1105,0.0464 0.1733,0.0652 0.4429,-0.4358 0.8268,-1.0401 1.3838,-1.6292 0.2003,-0.2096 1.6053,-1.4467 1.565,-1.6455 -0.0294,-0.142 -0.1738,-0.1364 -0.2295,-0.0982 -0.2728,0.1988 -1.0991,1.0466 -1.1653,0.7686 -0.0703,-0.3297 0.1,-1.4737 0.2948,-2.6346 0.1963,-1.1657 0.4285,-2.3628 0.517,-2.7715 0.1917,-0.9262 0.3681,-1.7516 0.583,-2.6454 0.4246,-1.8448 0.2108,-1.0379 1.3798,-2.5041 -0.0256,-0.0949 -0.0511,-0.1825 -0.0699,-0.2775 -0.1103,0.0628 -0.118,0.0376 -0.2361,0.1444 -0.044,0.0382 -0.0882,0.0791 -0.1289,0.114 -0.6054,0.5396 -2.724,3.1173 -2.6017,3.6109zm-14.8539 5.0481c-0.6052,0.1441 -1.535,0.3754 -2.0884,0.5399 -0.4911,0.1437 -1.5868,0.498 -1.9857,0.498 -0.0482,0 -0.0922,0.0029 -0.1329,0.0029 -0.0851,-0.4794 0.3315,-0.5723 0.251,-1.0079 -0.0186,-0.0814 -0.1181,-0.1417 -0.1663,-0.1802 -0.3801,0.3164 -1.3654,2.5884 -1.2177,3.3678 0.0224,0.1331 0.0631,0.18 0.1626,0.18 0.1444,0 0.5233,-1.5396 0.6012,-1.7601 0.5649,-0.1172 1.1257,-0.256 1.6867,-0.425 0.0448,-0.0031 0.0886,-0.0064 0.1328,-0.0112 0.0297,0.1749 -0.2434,1.1062 -0.5428,2.0873 -0.2985,0.9778 -0.6271,1.9779 -0.6972,2.335 -0.1585,0.7684 -0.3838,1.5095 -0.4758,2.3321 -0.0299,0.2919 -0.0997,0.9893 -0.2952,1.1038 -0.1773,0.1004 -0.7567,0.3702 -0.7087,0.6401 0.0071,0.0626 0.0146,0.1254 0.0259,0.1822 0.2921,0.0111 1.0147,-0.4712 1.3501,-0.6074 0.4511,-0.1802 1.1003,-0.3 1.6759,-0.3896 -0.0111,-0.0601 -0.0224,-0.12 -0.0332,-0.1795 -0.0219,-0.1389 -0.0668,-0.1776 -0.1623,-0.1718 -0.1663,0.0081 -0.3286,0.0192 -0.4911,0.0243 -0.1731,0.0135 -0.5975,0.1771 -0.6452,-0.0953 -0.1298,-0.7054 0.281,-2.2667 0.7562,-3.8308 0.4767,-1.5715 1.0295,-3.128 1.2139,-3.7413 0.2141,-0.0374 0.4283,-0.0814 0.6459,-0.1385 0.2322,-0.0356 0.4644,-0.0738 0.7012,-0.1118 0.0849,-0.0162 0.1957,0.0734 0.2105,0.1472 0.0771,0.4002 -0.2364,1.556 -0.1407,2.0681 0.0261,0.1334 0.0666,0.1718 0.1699,0.1552 0.1808,-0.0271 0.2662,-1.6024 0.3206,-1.9018 0.0486,-0.2419 0.4438,-1.8065 0.4365,-1.8419 -0.0266,-0.1309 -0.0591,-0.1225 -0.1369,-0.2206 -0.0186,-0.0111 -0.0365,-0.0246 -0.0518,-0.0354 -0.1213,0.3297 -0.2478,0.6624 -0.369,0.9862zm23.0573 -14.9033c-0.0254,-0.0736 -0.048,-0.1472 -0.0738,-0.2211 -0.0779,0.0518 -0.155,0.0982 -0.2289,0.1444 -0.0849,0.5641 -0.1769,1.1284 -0.2653,1.6836 -1.5136,1.15 -2.886,3.6544 -3.8494,6.1881 -0.9373,2.4661 -1.472,5.076 -1.1253,6.6039 0.0148,0.0769 0.0334,0.1501 0.048,0.2244 0.195,0.8469 0.8117,1.3289 1.439,0.8387 0.1035,-0.0847 0.2072,-0.172 0.31,-0.2598 0.9265,-0.7973 3.0302,-5.2031 2.8893,-5.8406 -0.0214,-0.0924 -0.0658,-0.1412 -0.1289,-0.0787 -0.178,0.1794 -1.4063,3.8713 -2.524,4.8522 -0.0632,0.0542 -0.1218,0.103 -0.1809,0.155 -0.4471,0.3706 -0.9448,0.1857 -1.0739,-0.3834 -0.0445,-0.1665 -0.0812,-0.333 -0.1144,-0.5046 -0.2624,-1.1197 0.152,-3.2073 0.8268,-5.2418 0.6934,-2.0931 1.6495,-4.2014 2.6052,-5.2099 0.4312,-0.4816 0.4977,-0.4387 0.727,-0.234 -0.0186,0.2559 -0.0592,1.512 0,1.7192 0.0219,0.0898 0.0701,0.1356 0.1258,0.0763 0.1802,-0.1939 0.2212,-1.8832 0.2654,-2.2288 0.1072,-0.8637 0.1402,-1.4194 0.3283,-2.2831zm-97.1064 -9.0034c0,-9.2902 2.0218,-15.5657 4.6927,-22.206 2.0192,-5.0205 7.2053,-12.5702 10.8186,-15.9666 5.3127,-4.9954 8.8815,-7.657 15.7739,-11.1338 5.2312,-2.6404 13.8914,-5.0771 21.7163,-5.0771l2.5015 0c16.1837,0 29.287,8.1384 37.4281,16.2733 8.3692,8.3613 15.3552,21.4783 15.582,37.9899 0.2196,16.1088 -7.6079,30.1452 -15.582,38.1121 -8.1161,8.1094 -21.1854,16.2737 -37.3089,16.2737l-2.9774 0c-7.9789,0 -16.1459,-2.5758 -21.6207,-5.1739 -2.9198,-1.3864 -5.9339,-3.1213 -8.3732,-4.9623 -2.2508,-1.6975 -5.4052,-4.0701 -7.1892,-6.1455 -2.0238,-2.3538 -4.3953,-4.7242 -6.0508,-7.4019 -1.6259,-2.6299 -3.5761,-5.563 -4.7498,-8.5826 -2.6065,-6.7067 -4.6611,-12.6392 -4.6611,-21.9993zm-2.2629 -0.1192l0 0.1192c0.0557,0.0878 0.2655,5.809 0.4044,6.6171 0.3617,2.102 0.6364,3.9587 1.0167,5.8868 0.6779,3.4362 2.166,7.5918 3.462,10.4646 2.7907,6.191 6.714,12.0028 11.2256,16.5107 4.7401,4.7361 9.7736,8.6005 16.2072,11.6537 5.5411,2.6302 14.2858,5.3933 22.3535,5.3933l3.8111 0c7.5439,0 16.8862,-2.7571 21.9551,-5.3148 6.4827,-3.2705 11.0731,-6.3239 15.9498,-11.1982 4.7931,-4.7874 7.9913,-9.5655 11.2066,-15.9343 2.4933,-4.9375 5.3198,-14.4762 5.3198,-21.8175l0 -4.6413c0,-7.4867 -2.8645,-16.9244 -5.4001,-21.9756 -3.1982,-6.3719 -6.5216,-11.1776 -11.3043,-15.957 -8.0117,-8.0049 -22.266,-16.3328 -38.2034,-16.3328l-3.2159 0c-8.1136,0 -16.9017,2.7494 -22.4722,5.3933 -6.3739,3.0253 -11.5091,6.9602 -16.2072,11.6537 -4.2846,4.2805 -8.7029,10.5945 -11.2643,16.5927 -1.3486,3.16 -2.6819,6.7828 -3.4421,10.4834 -0.3823,1.8596 -0.7253,3.8883 -1.02,5.8834 -0.111,0.7501 -0.3246,6.4288 -0.3823,6.5196zm30.8746 45.7746l0.3629 0.2282 -0.3629 -0.2282zm24.7471 -3.8852c0,-0.5524 0.3788,-0.9656 0.7156,-1.1905 0.3969,0.2656 0.7137,0.7595 0.7137,1.4284 0,0.6218 -0.4539,1.1746 -0.8331,1.428 -0.2813,-0.419 -0.5962,-0.7224 -0.5962,-1.428l0 -0.2379zm28.4707 -1.6305l0.1433 2.2233 -0.0292 0.9539c0,0.3498 -2.4451,2.281 -2.8581,2.4993l0.2861 -1.6582 -0.0471 -0.6027c0,-0.9553 -0.477,-1.9275 -0.4796,-3.1251l2.9846 -0.2905zm-9.175 3.4156c0,-1.7579 -1.87,-3.6396 -2.6206,-4.76 1.4518,0.1205 5.3395,3.8545 5.7174,5.4742l-0.5955 0c-0.9415,0 -1.6469,0.4924 -1.6681,1.4275l-0.9362 -0.2908c0.0148,-0.3197 0.103,-0.3703 0.103,-0.7803l0 -1.0706zm-40.6153 0.8329c0.3908,-1.673 4.379,-5.2265 5.9554,-5.5929 -0.957,1.4271 -2.8582,2.7949 -2.8582,5.1166l0 0.833c0,0.4106 0.088,0.4608 0.119,0.8331l-0.8449 0.3333c-0.5362,-1.1149 -0.5926,-1.5231 -2.3713,-1.5231zm45.9796 -6.153l-0.0044 0.9165 0.1391 1.7836 -3.2378 -2.2687 3.1031 -0.4314zm-47.8666 0.0854l2.9579 0.3644 -3.0472 2.3184 -0.0756 -1.1406 0.1649 -1.5422zm52.5069 1.7828c0,-0.3677 1.5832,-1.8069 1.9058,-2.0221l2.1416 0.1493 0.3595 -0.031c-0.153,0.5716 -3.8799,4.3819 -4.4069,4.5227l0 -2.6189zm-59.0747 -2.0057l1.8143 1.7399 -0.0292 2.8847 -4.4091 -4.4307 2.624 -0.1939zm5.6929 0.0606c-0.0084,0.2947 -0.0966,0.3451 -0.0966,0.7555l0 0.8332 -3.0926 -0.3905c-0.3489,-0.1973 -1.91,-1.4682 -1.91,-1.8709l0 -0.8325 5.0992 1.5052zm49.5702 0.0413c-0.0252,-0.2368 1.1167,-0.3962 1.3354,-0.4513 0.4844,-0.1216 0.9331,-0.2459 1.3906,-0.3947 0.5587,-0.1817 2.3958,-1.0607 2.3958,-0.463l0 0.4765c0,0.3288 -1.5092,1.7627 -1.7971,1.8936 -0.6129,0.2815 -2.6189,0.205 -3.2048,0.4863l-0.1199 -1.5474zm-31.3244 -1.0706c0.1329,-0.1816 2.9263,-1.5116 3.478,-1.8802 0.4785,-0.321 2.8751,-2.2854 3.0733,-2.2854 0.2098,0 2.587,1.9812 3.0708,2.2872 1.0065,0.6368 2.7248,1.2354 3.4797,1.7592 -1.4529,0 -1.977,0.1247 -2.8588,0.7135 -0.4643,-0.3102 -0.8011,-0.9517 -1.5485,-0.9517l-0.3573 0c-0.9616,0 -1.426,0.988 -1.9053,1.3097 -0.3286,-0.6204 -0.9838,-1.3097 -1.9065,-1.3097 -1.0715,0 -1.3183,0.9517 -1.786,0.9517 -0.0426,0 -1.2955,-0.9302 -2.7394,-0.5943zm37.1608 -0.9519c1.0673,-0.2488 3.1783,-1.4968 4.1209,-2.0708 0.5999,-0.3646 1.3124,-0.8336 1.8548,-1.2407 0.3142,-0.2361 0.5466,-0.4502 0.8612,-0.687 0.1462,-0.1101 0.7558,-0.6724 0.7859,-0.643l0.1388 0.0997 -4.5539 5.9355 -0.111 -0.0852c-0.5158,-0.1198 -3.0967,-0.0427 -3.0967,-0.595l0 -0.7135zm-69.0126 -4.4836c0.3547,0.0427 2.9754,2.0805 3.7037,2.4993 1.4254,0.8201 2.661,1.3479 4.0889,2.1032l-0.1486 0.9473 -3.2011 0.2543 -4.4429 -5.8041zm61.7467 -23.7205c0,0.3215 -0.0561,0.3286 -0.1187,0.5955 -0.2669,0.0619 -0.274,0.1187 -0.5955,0.1187l-0.1192 0c-0.2777,0 -0.5954,-0.3175 -0.5954,-0.595l0 -0.2381c0,-0.3375 0.411,-0.5946 0.7146,-0.5946 0.3034,0 0.7142,0.2571 0.7142,0.5946l0 0.1189zm-46.8078 0c0,-0.4484 0.5468,-0.5766 0.8334,-0.7135 0.2688,0.1413 0.715,0.3191 0.715,0.7135 0,0.4038 -0.4302,0.8332 -0.8336,0.8332 -0.2741,0 -0.7148,-0.477 -0.7148,-0.8332zm-3.8118 4.165c0,-0.4412 2.2839,-8.9599 2.5711,-9.6882 0.9773,-2.4768 4.0889,-4.6992 6.3626,-5.901l-0.2863 2.7328 0.0477 1.5516c0,3.1573 1.3165,6.1008 2.4978,8.0957 0.6841,1.1558 1.3706,2.1123 2.1799,3.177 0.8166,1.074 1.5812,1.7822 2.2302,3.0076 -0.5225,0.9871 -2.9875,1.7782 -4.5258,1.5474l-0.0208 0.1351 -8.7933 -1.3251 -0.1433 -1.9023c-0.1101,-1.5228 1.3486,-3.181 1.9303,-4.0486 2.1758,1.0436 3.4808,-1.0815 4.1685,-2.3801 -0.2673,-0.0622 -0.2744,-0.1186 -0.5957,-0.1186l-0.8336 0c-0.3098,0 -0.2618,-0.0203 -0.53,0.0659 -0.0524,0.0168 -0.1276,0.0593 -0.1625,0.0757 -0.0332,0.015 -0.1002,0.1364 -0.1413,0.0966l-0.1389 -0.0984 0.1659 -0.029 -0.1438 -2.6164 -0.1213 0.0064c-0.6492,0.4342 -1.4649,1.2714 -1.6673,2.1421l-0.2383 0c-0.1665,-0.7142 -1.078,-1.3824 -1.7866,-1.5469 -0.031,0.3719 -0.1194,0.4221 -0.1194,0.8327l0 0.8334c0,1.3161 0.687,2.0436 1.548,2.4986 -0.5811,0.8686 -1.2973,1.1806 -1.7705,2.3963 -0.4367,1.1217 -0.6109,1.8903 -0.6109,3.4352 -0.2335,-0.2686 -1.0724,-2.4844 -1.0724,-2.9755zm11.911 5.2362c2.1367,0 3.9994,-0.6485 4.8865,-1.9009 0.4676,-0.6603 0.6952,-1.6274 0.7102,-2.7416 0.0106,-0.8991 0.4456,-1.985 0.699,-2.6337 1.1177,-2.8573 4.2146,-5.4567 8.1158,-5.4567l2.2627 0c3.787,0 6.8579,2.9355 7.8781,5.8144 0.6435,1.8145 0.366,4.1539 1.5598,5.3435 1.1763,1.1702 2.9205,1.575 5.2124,1.575 2.8707,0 6.8672,-0.6257 9.2906,-1.1894 -1.2035,1.7944 -9.5467,3.9266 -13.1018,3.9266 -6.3575,0 -2.9263,-4.2463 -4.6078,-8.3672 -1.1554,-2.8328 -3.5266,-5.5562 -7.422,-5.5562 -3.857,0 -6.5765,2.5852 -7.6082,5.3693 -1.5712,4.2348 1.4147,8.5541 -4.4214,8.5541l-0.5957 0c-3.3866,0 -11.5348,-2.1585 -12.744,-3.808l8.6732 1.2212 0.021 -0.1504 1.1916 0zm-33.4933 -26.5394l0.2629 0.0017c0,3.1107 3.874,10.5669 5.2884,12.6859 2.4635,3.6931 5.2562,6.5744 8.6141,9.3629 2.3637,1.962 8.262,5.4977 11.6342,6.3454 2.4643,0.62 4.7998,1.1921 7.284,1.7661 1.5943,0.3683 7.2444,0.0957 8.3896,-0.1712l0 -4.9983c0,-2.3544 0.6594,-4.0827 1.6997,-5.4419 0.7989,-1.0434 2.6941,-2.7319 4.3748,-2.769l0 22.8486c0,0.5698 -2.2675,2.5424 -2.8102,2.9041 -1.0198,0.6802 -2.6129,1.2604 -3.9047,1.6918 -1.7054,0.5704 -7.385,1.9009 -9.6919,1.5708 -1.5423,-0.2203 -3.7103,-0.2795 -5.267,-0.4582 -1.3811,-0.1592 -3.342,-0.6746 -4.5466,-1.0505 -2.8922,-0.9039 -5.2219,-2.1687 -7.5106,-3.6823 -7.9538,-5.2625 -14.3874,-17.3669 -14.3874,-30.6075l-0.0971 -3.2228 0.6678 -6.7756zm62.912 30.2281c8.577,0 18.3057,-5.5823 22.6016,-9.9049 2.9092,-2.928 5.1093,-5.1772 7.3423,-8.8486 1.3037,-2.1431 4.5298,-8.5723 4.5968,-11.5916 0.5409,0.7785 0.8339,6.2118 0.8339,7.8543l0 1.071c0,19.7577 -11.5825,36.8908 -31.0859,36.8908l-1.9064 0c-2.902,0 -6.8367,-0.8466 -8.9342,-1.6645 -1.4156,-0.5513 -2.4487,-0.898 -3.6697,-1.6891 -0.4701,-0.3038 -2.5229,-2.2125 -2.5229,-2.7153l0 -22.8486c2.1667,0.048 4.281,2.3672 5.0821,3.967 1.0899,2.1776 0.9928,4.888 0.9928,8.052l0 1.4275 6.6696 0zm16.0554 -10.0199c0.2081,-0.8195 0.4044,-1.6221 0.5961,-2.3792 0.3709,-1.4669 0.7384,-3.4479 0.7384,-5.2122l0.0276 -1.9071 -0.1672 -1.7806c1.57,1.1332 4.1886,6.8053 4.1886,9.7561 -0.402,0.5996 -4.3794,3.7295 -5.1212,3.9272 -0.1079,-1.2962 -0.6561,-0.8482 -0.2623,-2.4042zm-65.7223 -1.523c0.1178,-0.2457 0.4663,-2.4788 0.5941,-2.976 0.2258,-0.8794 0.5844,-1.7615 0.9546,-2.4982 0.4984,-0.9919 1.9781,-3.7747 2.7394,-4.2841l-0.2709 2.9724c-0.0902,1.4198 0.5196,4.4438 0.7741,5.6878 0.1643,0.8044 0.4188,1.69 0.6399,2.5744 0.4356,1.7447 -0.1594,1.0335 -0.1903,2.4509 -1.2328,-0.1022 -4.1928,-3.2256 -5.2409,-3.9272zm45.0221 -10.1148c0,-0.5189 0.3635,-0.5457 0.7142,-0.7144 0.2686,0.1422 0.7149,0.3188 0.7149,0.7144l0 0.2379c0,0.3377 -0.4113,0.5948 -0.7149,0.5948 -0.4548,0 -0.7142,-0.3522 -0.7142,-0.8327zm-19.6522 0.8327c-0.9682,0 -0.7458,-1.4277 0,-1.4277l0.2382 0c0.3376,0 0.595,0.4108 0.595,0.7135 0,0.4551 -0.3529,0.7142 -0.8332,0.7142zm25.6075 16.3036c-1.2239,0 -3.6924,-0.4805 -3.6924,-1.5471 0,-0.7249 6.9083,-7.1408 6.9083,-14.5181l0.0451 -0.8374 -0.3022 -3.0878c3.0739,1.613 5.8898,3.7012 6.8318,7.4712 0.4688,1.876 0.961,3.7239 1.4527,5.6883 0.1805,0.721 0.7246,2.2987 0.5723,2.7997 -0.2218,0.7306 -0.6041,1.9467 -0.9767,2.4841 0,-1.2065 -0.3116,-2.6446 -0.7135,-3.4519 -0.649,-1.2993 -1.1598,-1.4039 -1.7882,-2.2605 0.9523,-0.5032 1.6674,-1.29 1.6674,-2.7367l0 -0.119 -0.1355 -1.3074c-1.1836,0.0981 -1.4527,1.1387 -2.0084,1.5453 -0.167,-0.7175 -1.12,-1.9637 -1.7866,-2.1421 -0.0387,0.4692 -0.3195,1.1834 -0.2382,1.6659l0.1396 0.9481c-0.4708,-0.0334 -0.8151,-0.2339 -1.2115,-0.2339 -1.7079,0 -0.848,0.8479 -0.36,1.5498 0.3998,0.5742 1.1843,1.1871 2.1466,1.1871l0.7146 0c0.3215,0 0.3286,-0.0568 0.5955,-0.1191 0.6269,0.9351 1.7862,2.2012 1.7862,3.6895l0 1.904c0,0.5517 -3.1067,0.7775 -3.7424,0.9011 -1.2524,0.2437 -2.7198,0.5269 -4.1179,0.5269l-1.7866 0zm-17.0321 -22.4922c0,-1.4686 0.5811,-2.7013 1.5485,-3.2128 0.9266,0.4905 1.4286,1.6878 1.4286,3.0945l0 0.5949 -0.5939 4.2847c-0.027,0.157 0.1766,0.2373 0.3557,0.2373 0.2329,0 1.0136,-1.552 2.3828,-1.6663 0,3.0861 -1.0269,5.2364 -3.8116,5.2364 -2.6098,0 -3.6924,-2.3327 -3.6924,-5.2364 1.5252,0.1273 2.0243,1.6663 2.501,1.6663 0.5922,0 0.1643,-1.1982 0.069,-1.7347 -0.1236,-0.6947 -0.1877,-1.3163 -0.1877,-2.0731l0 -1.1908zm-43.2355 -15.3509c0.1492,-1.7895 5.6216,-9.5965 6.8778,-10.9789 3.2931,-3.6219 5.3996,-5.5434 9.341,-8.5167 5.809,-4.3823 16.5853,-8.8268 26.7788,-8.8268l4.4068 0c9.7789,0 20.8579,4.7056 26.4086,8.9577 3.11,2.3825 6.9273,5.4326 9.2039,8.5355 1.2849,1.7521 2.4449,3.1978 3.7154,5.0938 0.6512,0.9712 2.8232,4.6643 3.0731,5.7354 -2.2306,-1.179 -5.3477,-2.8558 -8.6943,-2.8558 0.1307,0.4909 2.1844,2.8597 2.6209,3.4503 0.8694,1.1766 1.6027,2.2342 2.4531,3.499 0.5048,0.7516 4.6925,6.9968 4.6925,7.2117 0,1.3663 -0.741,2.8113 -0.834,3.9274l-0.2382 0c-0.1134,-1.36 -2.1753,-4.8459 -2.9484,-5.7415 -1.5957,-1.8485 -2.6514,-2.7113 -4.3447,-4.3464 -0.9225,-0.8914 -3.9756,-2.6492 -5.2608,-3.4313 -1.6395,-0.997 -0.8855,-1.1147 -0.9054,-3.1425 -0.0135,-1.3506 0.4767,-2.6682 0.4767,-3.8068 0.9181,0.4852 1.6708,1.0709 3.0976,1.0709 1.3201,0 3.3891,-1.4534 3.9297,-2.2609 -0.6072,-0.3213 -1.4815,-0.9521 -2.3819,-0.9521l-1.0722 0c0.1086,-0.4042 0.6251,-1.0742 0.8719,-1.7475 0.1941,-0.5318 0.3872,-1.5653 0.4389,-2.1795 -1.7672,0.0395 -2.9088,1.7264 -3.5732,1.904 -0.0228,-1.0375 -1.0267,-2.6527 -1.7866,-2.8555 -0.263,0.982 -1.1914,1.7486 -1.1914,3.3313l0 0.4765c0,0.9628 1.0821,2.5599 1.0715,2.618l-0.9557 5.453 0.1225 0.0208 0 0.8336c-1.3229,-0.3534 -7.0233,-6.3744 -7.1469,-7.8547 1.0875,-0.2528 2.0252,-1.4928 2.0252,-2.8564l0 -0.3564 -0.2173 -1.551c-0.7501,0.1732 -1.8592,0.9853 -1.9266,1.7889 -0.5572,-0.4078 -1.1003,-1.9509 -2.2631,-2.2614l-0.1462 1.3059 0.0272 0.4796c0,0.4644 0.0913,0.8841 0.2386,1.1901 -0.4268,-0.1 -0.5601,-0.2379 -1.0724,-0.2379l-0.2384 0c-0.5649,0 -0.8599,0.1324 -1.3101,0.2379 0.8942,1.6882 1.4846,2.6178 4.0497,2.6178 1.1669,2.4296 1.4875,3.466 3.3637,5.3264 0.6354,0.6302 4.0106,3.794 4.6166,3.9558l-0.1196 0.0199 1.1445 7.0092c-1.6247,-0.3969 -4.4745,-1.7913 -5.9874,-2.5475 -2.4566,-1.227 -3.0286,-1.6792 -4.5183,-3.9339 -1.8684,-2.827 -4.6929,-7.6802 -4.6929,-12.21l0 -0.9519c0,-1.3389 0.8707,-4.5451 1.5485,-4.9981 0.7104,0.3754 1.4133,0.8329 2.5008,0.8329l0.4767 0c1.3612,0 4.059,-1.6398 4.2877,-2.499 -0.9035,-0.2413 -1.4572,-1.0709 -2.9776,-1.0709l-0.8336 0c0.3133,-1.175 1.4293,-2.0097 1.4293,-4.2841 -1.8014,0.0398 -2.8046,1.389 -3.9306,2.1419 0,-1.2645 -1.0755,-2.7743 -1.9058,-3.2132 -0.6206,0.926 -1.4293,2.3966 -1.4293,3.927l0 0.1192c0,0.633 0.8166,2.4922 1.072,2.9751 -0.513,2.201 -1.4291,3.8383 -1.4291,6.6635l0 0.4765c0,2.6981 0.8398,4.9334 1.5317,6.9194 0.3456,0.9931 0.8993,1.9834 1.367,2.9179 0.2708,0.5408 0.4375,0.8924 0.746,1.3968 0.1632,0.2675 0.2216,0.4347 0.3803,0.6905 0.0759,0.1227 0.0942,0.1555 0.182,0.2941 0.0263,0.042 0.0723,0.1174 0.0918,0.1468 0.0196,0.029 0.1479,0.0896 0.1081,0.13l-0.0993 0.1393c-0.9725,-0.8475 -2.7352,-1.9473 -3.8322,-2.7562 -0.6169,-0.4557 -3.142,-2.742 -3.5721,-2.8572 0.5862,-0.8 2.1437,-0.829 2.1437,-3.0943l0 -0.2382 -0.2377 -1.6656c-0.7296,0.1696 -1.839,0.9813 -1.906,1.785l-0.2381 0c-0.1884,-0.8084 -1.2577,-2.0566 -2.0248,-2.2613l-0.1461 1.0673 0.0272 0.8371 0.1333 1.0689c-0.3204,-0.1448 -0.7403,-0.2361 -1.2055,-0.2361 -0.565,0 -0.8604,0.1335 -1.3102,0.2379 0.8637,1.6318 1.4415,2.6178 3.9304,2.6178 1.1343,2.1419 7.1042,5.8905 9.4332,7.3547 1.7464,1.0972 2.798,2.8248 3.9304,4.5223 0.2748,0.412 3.1036,5.2292 2.9537,5.3784l-0.0991 0.1389c-0.9137,-0.7956 -1.9726,-1.7203 -2.8493,-2.5473 -0.3253,-0.3066 -3.0065,-2.252 -3.0065,-2.3515 0,-0.3538 0.2379,-0.3182 0.2379,-0.8327l0 -0.714c0,-0.9031 -0.8882,-2.1376 -1.4295,-2.4993 -0.3638,0.2667 -0.7144,1.0326 -0.7144,1.6659l0 0.5957 -2.7014 -0.9522 -0.1486 0.182 1.3552 2.3542c-0.5877,0.2756 -1.6307,0.4892 -1.8401,1.2717 0.7173,0.1667 1.343,0.8329 2.5012,0.8329 0.8841,0 1.5996,-0.5877 2.1438,-0.9523 0.5941,0.8104 4.235,3.3289 5.3313,4.432 0.825,0.8312 1.916,1.3048 2.2222,2.6592 0.2926,1.2917 0.5459,2.7064 0.5459,4.2145l0 2.0229 -0.2377 2.8558c-0.0647,-0.0739 -1.3012,-3.2566 -1.6267,-3.8488 -0.658,-1.1995 -1.4813,-2.1393 -2.4528,-3.0233 -1.3276,-1.2082 -4.8816,-3.7577 -6.7596,-4.1944 -0.3447,-4.1357 -5.4783,-9.2756 -7.7112,-11.9314 -2.9472,-3.5056 -5.8668,-7.3747 -5.8668,-13.7738 0,-2.1605 0.3332,-4.2169 0.6863,-5.9781 0.3741,-1.8715 0.4057,-4.137 2.5296,-4.137l0.5954 0c0.5256,0 0.9526,0.9154 0.9526,1.5465l0 0.5956 -0.2355 2.846c1.2613,-0.0853 4.1658,-5.3866 4.1658,-7.1303l0 -0.1192c0,-0.5875 -0.4824,-1.0702 -1.0715,-1.0702l-0.3573 0c-1.1657,0 -1.9036,0.6441 -2.7396,0.714 0.2065,-0.886 0.4767,-1.464 0.4767,-2.6187l0 -0.1187 -0.211 -1.7891c-0.7407,0.381 -1.2933,0.8051 -1.8677,1.3785 -0.4542,0.4537 -1.0693,1.4954 -1.3754,1.7194 -0.1939,-0.8308 -0.9612,-2.3801 -1.9058,-2.3801 -1.5542,0 -3.2154,5.2459 -3.2154,7.1405 0.6332,-0.4244 1.0624,-1.5472 2.3818,-1.5472l0.2384 0c0.7816,0 1.4742,0.4865 1.7862,0.9517 -0.3534,1.5166 -1.1195,3.1531 -1.5492,4.8789 -0.4577,1.8364 -0.5791,3.4264 -0.8247,5.4833 -0.4067,3.406 1.6008,8.0095 2.8495,9.8688 2.4999,3.7212 10.3394,10.1822 10.7204,14.7564l-4.3111 -2.0968c0.2602,-1.0592 0.8734,-1.3139 0.4497,-2.7328 -0.2196,-0.7354 -0.84,-1.5929 -1.3793,-1.9538 -0.425,0.3109 -0.7142,1.1501 -0.7142,1.9041l0 0.3571c-0.4741,-0.1265 -0.8644,-0.4896 -1.5958,-0.6669 -1.108,-0.268 -0.7657,-0.0829 -1.4718,-0.7907 -0.7679,-0.7702 -1.4319,-1.5503 -2.1428,-2.3817 -1.4401,-1.6853 -2.4913,-3.487 -3.7229,-5.324 0.9322,-1.3913 1.5484,-1.8209 1.5484,-4.2841 0,-1.0296 -1.963,0.9996 -2.0252,1.0711 0.052,-0.6209 0.3576,-1.3239 0.3576,-2.0233 0,-1.263 -0.5838,-1.933 -1.4286,-2.3803 -0.7516,0.3971 -1.4296,1.0178 -1.4296,2.1424l0 0.3565c0,0.48 0.0385,0.61 0.109,0.9625 0.052,0.2616 0.0489,0.3244 0.0993,0.4953 0.0257,0.0869 0.0363,0.1037 0.0633,0.1749 0.0135,0.036 0.1267,0.1116 0.0851,0.1528l-0.0988 0.1386c-0.4361,-0.6401 -0.8878,-1.2099 -1.9257,-1.2099l0 0.4762c0,1.3646 0.5777,3.5492 1.5482,3.8077 -0.8889,1.6789 -1.9409,3.0719 -3.0638,4.555 -0.5342,0.7053 -1.1175,1.464 -1.7313,2.078 -0.3222,0.322 -1.5682,1.6559 -1.7552,1.9357l-0.046 -0.1365 -2.3578 0.7859 0.1532 0.021 -0.7363 -2.2534c-0.8455,0.5285 -1.659,1.6542 -1.659,2.8917 0,0.7209 0.3425,1.306 0.5957,1.7856l-4.2351 2.2427c-0.0145,-1.7738 2.2291,-5.062 3.0437,-6.1715 1.3267,-1.8066 3.1867,-3.1472 4.4299,-4.7363 2.6237,-3.3542 5.9329,-6.4969 5.9329,-12.3982l0 -1.7856c0,-2.9733 -1.4087,-7.9688 -2.3816,-9.9964 0.5703,-0.3816 0.9119,-0.9517 1.9054,-0.9517l0.1187 0c1.4602,0 1.6473,1.2 2.5015,1.428 -0.2377,-0.4938 -0.7469,-3.2358 -1.0868,-4.1501 -0.3242,-0.8706 -1.1529,-2.8712 -2.2479,-2.8712 -0.7312,0 -1.7242,1.632 -1.7873,2.3801l-0.2379 0c-0.2091,-0.8958 -2.1269,-2.8942 -3.0967,-2.9749l-0.1459 1.0671 0.0267 1.1938c0,1.0368 0.2919,1.4686 0.477,2.2611 -0.9356,-0.2176 -1.6474,-0.8325 -2.978,-0.8325 -2.3903,0 -0.6897,3.4859 -0.1599,4.4436 0.5039,0.9107 1.9308,3.862 3.0187,3.8863l0 -0.4763c0,-1.5241 -0.7825,-4.522 1.0717,-4.522l0.2377 0c2.0414,0 2.1535,1.8704 2.4936,3.5783 0.323,1.6225 0.7226,3.4454 0.7226,5.3468l0 2.4993c0,4.9892 -3.5629,10.2744 -6.1051,12.8212 -1.946,1.9504 -7.2793,8.2492 -7.3536,11.5747 -0.6671,0.1553 -2.9835,1.4311 -3.6444,1.8331 -1.4351,0.8723 -1.9319,1.4291 -3.1227,2.3538 -0.8369,0.6501 -1.9208,2.0376 -2.4433,3.0328 -0.3947,0.7525 -1.4423,3.5796 -1.6283,3.8468l-0.4018 -3.9231c-0.0468,-1.041 0.3651,-3.789 0.5688,-4.7168 0.4095,-1.8665 1.073,-1.8121 2.1859,-2.9331 1.292,-1.3018 4.1019,-3.5901 5.6279,-4.6114 0.3151,0.471 1.1226,0.9523 1.9053,0.9523l0.119 0c0.9185,0 2.0155,-0.4051 2.3823,-0.9523 -0.3505,-0.5221 -1.0461,-1.0519 -1.9056,-1.0707 0.4798,-0.7168 1.2186,-1.2833 1.3092,-2.3801l-0.3564 0c-0.9714,0 -1.6785,0.4416 -2.2636,0.833 0,-1.2688 -0.2032,-1.6175 -0.7146,-2.3801 -0.6364,0.4254 -1.5481,1.7915 -1.5481,2.8566 0,0.3286 0.2446,1.0746 0.3572,1.3086 -1.0817,0.7235 -2.0973,1.4124 -3.0665,2.2914 -0.5258,0.4774 -2.4506,2.237 -2.8886,2.4687 0.3276,-1.4043 2.1735,-4.3285 2.9534,-5.4978 1.1425,-1.7123 2.1696,-3.416 3.9303,-4.5223 2.8445,-1.7875 7.6776,-4.7349 9.4333,-7.3547 1.6769,0.3909 3.7013,-1.2924 3.8116,-2.6178l-0.0009 -0.1238 -2.5015 0.019c0.1066,-0.3445 0.2393,-0.6393 0.2393,-1.2038l0 -0.12 -0.2174 -1.5498 -0.1192 -0.0858 -2.0913 2.3091c-0.2005,-0.8818 -1.0817,-1.3327 -1.8596,-1.7437 -0.1054,0.4495 -0.2383,0.7438 -0.2383,1.3087l0 0.9522c0,1.4056 1.0834,2.12 2.0243,2.6178 -0.471,0.7038 -2.7341,2.3345 -3.5405,3.0082 -0.6408,0.5356 -1.1839,0.8799 -1.8395,1.3749 -0.1725,0.1298 -1.866,1.3484 -1.885,1.3298l-0.1386 -0.1001c0.7995,-0.9166 2.3595,-4.3615 2.8946,-5.7152 0.7149,-1.8087 1.5317,-4.5141 1.5317,-7.0377 0,-1.2314 -0.2645,-2.5952 -0.5236,-3.6413 -0.144,-0.5822 -0.906,-2.8427 -0.906,-3.1414 0,-0.5371 1.0725,-2.2377 1.0725,-3.0943 0,-2.042 -1.1364,-2.9493 -1.4296,-4.0462 -1.1973,0.3195 -1.5681,2.262 -2.0243,3.2132 -1.0122,-0.6768 -2.1245,-2.0017 -3.8114,-2.1419 0,1.0253 0.2006,1.7859 0.4586,2.516 0.2461,0.6952 0.8476,1.4265 0.9703,1.8873 -1.2559,-0.6028 -3.0764,0.756 -3.8114,0.9517 0.2446,0.9129 2.7713,2.499 4.1678,2.499l0.7156 0c1.2632,0 1.7138,-0.6224 2.501,-0.8329 0.5148,1.925 1.4293,2.7754 1.4293,5.4744 0,4.6217 -2.7118,9.8624 -4.6428,12.6151 -1.3362,1.9042 -2.2859,3.1042 -4.6083,4.0838 -1.1002,0.4632 -5.1241,2.4382 -6.1136,2.4601 0.5039,-1.0487 0.7626,-3.91 1.0249,-5.4027 0.367,-2.0863 -0.3397,-0.9327 1.0319,-2.182 0.5749,-0.5243 1.1014,-0.917 1.6672,-1.4278 1.1625,-1.0496 2.1657,-2.0519 3.216,-3.2126 0.8314,-0.9196 1.6042,-2.8939 2.2317,-4.0782 2.1755,0 3.5374,-0.9329 3.9303,-2.6178 -0.358,-0.0836 -0.8968,-0.2379 -1.3096,-0.2379 -0.2703,0 -0.9279,0.176 -1.1916,0.2379 0.0621,-0.2671 0.2894,-1.1184 0.2388,-1.4286l-0.2225 -1.5496c-1.0193,0.6737 -1.4633,1.1712 -2.0407,2.264 -0.4732,-0.3461 -2.2637,-3.3216 -2.2637,-0.5953l0 1.0716c0,1.4049 1.0836,2.1196 2.0252,2.6178 -0.8182,1.5442 -1.9793,3.1075 -3.1866,4.3137 -0.6761,0.6751 -3.1878,3.242 -3.9597,3.4218 0,-1.6223 -0.4654,-5.1737 -0.9532,-6.1888 0.5585,-0.833 1.1916,-1.5808 1.1916,-2.9745 0,-1.3804 -0.8272,-2.6582 -1.3101,-3.5699 -1.3203,0.8825 -1.1583,1.5465 -1.7871,2.8555 -1.3112,-0.8776 -1.5377,-1.4578 -3.4541,-1.904 0,1.7063 0.6218,2.8994 1.3101,3.927 -1.469,0 -2.8506,0.2483 -3.454,1.0713 0.5426,0.8086 2.5329,2.1417 3.9312,2.1417l0.2379 0c1.4278,0 1.8654,-0.7188 2.739,-0.9521l0.681 4.5114 -0.0855 1.5578c0,0.4186 -3.6268,2.4712 -4.1935,2.8305 -1.4273,0.9048 -2.7637,1.9277 -3.9374,3.0881 -1.2827,1.269 -2.1997,2.2468 -3.2321,3.7924 -0.4977,0.7467 -0.9393,1.4204 -1.278,2.2918 -0.1345,0.3467 -0.8905,2.2063 -1.0558,2.396l-0.9495 -3.9272c1.188,-2.2492 3.3278,-5.1111 4.8084,-7.3302 0.8652,-1.2966 1.5745,-2.3408 2.5015,-3.5693 0.4513,-0.5983 2.4493,-2.9192 2.5724,-3.38 -1.9814,0.4608 -2.8913,0.2512 -4.8135,1.0216 -1.4222,0.5707 -2.6102,1.1626 -3.8814,1.8342zm34.3024 12.0194c0.2777,0 0.5959,0.3175 0.5959,0.5952l0 0.2382c0,0.2775 -0.3182,0.5946 -0.5959,0.5946l-0.2379 0c-0.2782,0 -0.5957,-0.3171 -0.5957,-0.5946l0 -0.2382c0,-0.2777 0.3175,-0.5952 0.5957,-0.5952l0.2379 0zm21.439 0c0.2779,0 0.5961,0.3175 0.5961,0.5952l0 0.1188c0,0.2865 -0.4281,0.714 -0.7151,0.714 -0.4038,0 -0.8345,-0.4295 -0.8345,-0.8328 0,-0.1704 0.287,-0.5952 0.5966,-0.5952l0.3569 0zm8.218 -1.9038c0,-0.3036 0.258,-0.7144 0.5957,-0.7144l0.3573 0c0.3383,0 0.5959,0.4108 0.5959,0.7144 0,0.1873 -0.4027,0.714 -0.7151,0.714 -0.4807,0 -0.8338,-0.2594 -0.8338,-0.714zm-39.6616 0.1189c0,-0.5556 0.2772,-0.8333 0.8336,-0.8333 0.3953,0 0.5727,0.4462 0.7146,0.7144 -0.22,0.4155 -0.1817,0.714 -0.8331,0.714l-0.1197 0c-0.2777,0 -0.5954,-0.3176 -0.5954,-0.5951zm58.1232 18.4455c-0.0973,-1.1705 -2.4334,-4.5764 -3.0967,-5.4746 -0.6424,-0.869 -3.478,-4.1333 -3.6801,-4.7717 -1.6488,-5.2152 -3.3207,-6.987 -5.9677,-10.9359 1.1089,0.2578 4.7512,2.2306 5.5083,2.9457 1.724,1.6281 2.5685,2.3171 3.9489,4.3841 1.6035,2.4015 4.7184,8.2954 5.4313,11.3534l-2.144 2.499zm-77.1804 -2.499c0.7441,-3.1876 3.7493,-8.8926 5.4077,-11.3771 1.2179,-1.8258 2.4064,-3.024 4.0309,-4.4217 0.7724,-0.664 4.4084,-2.6427 5.4496,-2.8844 -2.798,4.1753 -4.1861,5.4934 -6.0271,10.9952 -0.2229,0.6671 -3.0842,3.8883 -3.7411,4.8298 -1.3928,1.9936 -1.9292,3.1558 -3.095,5.3572l-2.025 -2.499zm30.6105 -13.3282c0.3215,-0.4389 1.6999,-1.4477 2.3597,-2.2835 0.6968,-0.8831 1.3993,-1.6681 2.0482,-2.5939 0.6501,-0.9269 3.3564,-4.7903 3.5715,-5.7141 0.2675,0.0624 0.2742,0.119 0.5963,0.119l0.833 0c0.3217,0 0.329,-0.0566 0.5957,-0.119 1.4078,2.1008 5.8722,9.791 7.9801,10.3533l0 0.2382 -0.0708 -0.119 -1.594 0.9557c0.0639,0.7944 1.6289,1.186 2.4988,1.186 0.6003,0 1.3789,-0.4988 1.7862,-0.7139 0.8889,0.4696 1.6827,1.0195 2.6609,1.5066 0.5066,0.2534 2.5798,1.082 2.5798,1.5872l0 1.9047c0,3.3857 -3.1945,8.7067 -5.1213,9.9956 -0.5853,-1.1063 -1.3101,-5.1341 -1.3101,-6.9017 2.0382,-0.475 2.9773,-1.2106 2.9773,-3.6894 -1.544,0.3596 -1.2022,0.3611 -2.2629,1.0709 -0.2178,-0.9346 -0.5178,-2.0482 -1.1916,-2.499l-0.1147 -0.0372 -0.8146 2.5057c-0.393,-0.2282 -0.8292,-0.5641 -1.5711,-0.5641l-0.4765 0c0,1.7413 1.2429,3.2933 2.9769,3.332l0 0.714 0.5614 8.57c-0.386,-0.6072 -0.8415,-1.9062 -1.395,-2.7389 -0.482,-0.7273 -1.2135,-1.6363 -1.9049,-2.1426 -1.4744,-1.0784 -3.2571,-2.3041 -5.5982,-2.4987 1.6937,-1.4715 3.2157,-3.2862 3.2157,-6.4263l0 -0.9516c-1.8479,0.1534 -2.071,0.9799 -3.0968,1.6658l0.5066 -4.9952c0.1351,-1.6055 -0.9676,-4.0059 -2.1733,-4.287l0 -1.0711c0,-0.4137 0.9171,-0.5621 0.9521,-2.1421l-0.7215 0.2204c0.0071,-0.5787 0.1152,-1.4101 -0.4692,-1.4101 -0.7078,0 -0.5137,0.9847 -0.477,1.4278l-0.6969 -0.2837c-0.0171,1.9303 1.0547,1.7205 1.0547,2.1877l0 0.8332c0,0.1866 -2.0252,1.571 -2.0252,4.2843l0 1.3086 0.279 4.0528c-0.1528,-0.0681 -0.9923,-0.9342 -1.4432,-1.2225 -0.2908,-0.1857 -1.8127,-0.9482 -1.8127,-0.2123l0 0.2379c0,1.8402 0.4075,2.9466 1.0302,4.2068 0.775,1.5657 1.2906,1.7123 2.4239,2.6952 -1.8466,0.0415 -4.4602,1.6404 -5.5114,2.587 -0.7053,0.6353 -1.3251,1.3902 -1.8511,2.1948 -0.5447,0.835 -0.9274,2.1325 -1.3327,2.716l0.8062 -9.5133c1.6384,-0.0069 2.8488,-1.6688 2.8862,-3.3389l-0.0398 -0.1311 -2.2368 0.6806 0.1543 0.0024 -0.7622 -2.4846c-0.6065,0.3719 -1.2654,1.6725 -1.2838,2.5273 -0.6556,-0.1749 -0.7635,-0.9523 -2.2631,-0.9523l0 0.3577c0,1.9509 1.16,3.0618 2.9769,3.2131 0,1.6287 -0.79,5.82 -1.3099,6.9017 -0.8606,-0.2296 -2.93,-3.5381 -3.5018,-4.4745 -0.6722,-1.1001 -1.9469,-4.3989 -1.7389,-6.2353l0.1495 -1.4253 5.2396 -2.8042c0.4592,0.2717 0.9495,0.6591 1.7579,0.6591 0.8583,0 2.1527,-0.4778 2.5003,-0.9521l0.0712 -0.1147 -1.8571 -0.9559zm-34.3031 6.9019c0,-0.737 1.4222,-4.6353 1.749,-5.3932 0.7633,-1.7696 1.5094,-2.982 2.5884,-4.4348 2.0124,-2.71 4.5364,-4.8409 7.3351,-6.7133 0,1.6874 -1.0366,4.6477 -1.4735,6.1435 -0.3748,1.2834 -1.9989,3.5343 -2.7434,4.7562 -0.9891,1.6244 -1.8625,3.1938 -2.808,4.8102 -0.4555,0.7785 -0.9043,1.6825 -1.3118,2.4971 -0.2156,0.4307 -0.4089,0.8026 -0.6386,1.2667 -0.2432,0.4905 -0.2329,0.9327 -0.4341,1.3517 -0.3832,-0.2808 -2.2631,-3.6177 -2.2631,-4.2841zm84.3271 4.2841c-0.0381,-1.6902 -4.1902,-8.4134 -5.1253,-9.9929 -0.8553,-1.4445 -2.231,-3.1821 -2.7807,-4.838 -0.3262,-0.9815 -0.6008,-1.9118 -0.8604,-2.9481 -0.1486,-0.5942 -0.4942,-2.7372 -0.643,-3.0464 1.6975,0.4527 6.4062,5.2973 7.5045,6.7826 1.0142,1.3704 1.8852,2.8238 2.5833,4.5587 0.3168,0.7883 1.7039,4.5791 1.7039,5.319 0,0.5773 -1.9717,3.4242 -2.1437,4.1651l-0.2386 0zm5.5977 -19.7547l0 2.2611 -0.1191 1.0711c-1.2372,-1.4218 -6.9882,-7.0784 -7.0267,-8.8059 1.1534,0 3.2347,1.6798 4.0297,2.2808 0.8756,0.6615 3.1161,1.8618 3.1161,3.1929zm-93.1403 3.3322c0,-4.5937 -0.5605,-3.749 2.2304,-5.8636 0.7894,-0.5979 1.5067,-1.1513 2.3436,-1.705 0.1785,-0.1185 2.5727,-1.8215 2.5727,-0.9992 0,0.9952 -6.2012,7.9354 -7.1467,8.5678zm34.4212 -11.5431c0,-0.4038 0.4309,-0.8332 0.8343,-0.8332 0.4035,0 0.8336,0.4294 0.8336,0.8332 0,0.5751 -0.4723,0.7204 -0.9528,0.8325 -0.3173,-0.1674 -0.7151,-0.3346 -0.7151,-0.8325zm22.6308 -0.1192c0,-0.4546 0.3522,-0.714 0.8334,-0.714 0.9393,0 1.1091,1.5471 0,1.5471l-0.2384 0c-0.3854,0 -0.595,-0.432 -0.595,-0.8331zm21.7961 -3.0941c0,-0.4904 0.4004,-1.0709 0.8336,-1.0709l0.4765 0c0.3478,0 0.8336,0.5928 0.8336,0.9522 0,0.6538 -0.4135,1.1902 -1.0718,1.1902 -0.5888,0 -1.0719,-0.4829 -1.0719,-1.0715zm-66.6991 -0.2379c0,-0.3315 0.5018,-0.833 0.8336,-0.833l0.2382 0c0.8197,0 0.8146,0.5349 1.072,1.0709 -0.2574,0.5364 -0.2523,1.0715 -1.072,1.0715l-0.119 0c-0.5762,0 -0.9528,-0.3768 -0.9528,-0.9523l0 -0.3571zm56.0988 -1.5472c0,-0.4546 0.3526,-0.7135 0.8333,-0.7135 0.5836,0 0.645,0.4398 0.8334,0.8329 -0.2191,0.4148 -0.1813,0.7136 -0.8334,0.7136 -0.5556,0 -0.8333,-0.2775 -0.8333,-0.833zm-45.0219 0.2386c0,-0.5097 0.3674,-0.9521 0.8338,-0.9521 0.4982,0 0.6655,0.3967 0.8334,0.7135 -0.121,0.5227 -0.3399,0.9524 -0.953,0.9524 -0.1882,0 -0.7142,-0.4022 -0.7142,-0.7138zm41.0911 -9.1641c0,-0.609 0.6266,-1.1894 1.1909,-1.1894 0.6399,0 1.1912,0.6273 1.1912,1.3092 0,0.6384 -0.6276,1.19 -1.3102,1.19 -0.3725,0 -1.0719,-0.6124 -1.0719,-1.19l0 -0.1198zm-37.8752 0c0,-0.4637 0.4541,-1.0703 0.8336,-1.0703l0.4765 0c0.6713,0 1.0383,0.6625 1.0295,1.1916 -0.0113,0.6932 -0.6956,0.8991 -0.7914,1.1885l-0.3571 0c-0.6693,0 -1.1911,-0.5218 -1.1911,-1.19l0 -0.1198zm13.2205 -2.0228c-1.4518,0 -1.288,-2.3801 0.1187,-2.3801l0.1194 0c0.5887,0 1.0722,0.4831 1.0722,1.0715l0 0.2377c0,0.5886 -0.4835,1.0709 -1.0722,1.0709l-0.2381 0zm13.5779 0c-1.3743,0 -1.5666,-2.3801 -0.1188,-2.3801l0.2375 0c0.5891,0 1.0726,0.4831 1.0726,1.0715l0 0.2377c0,0.5886 -0.4835,1.0709 -1.0726,1.0709l-0.1187 0z"/>
 </g>
</svg>
