<?xml version="1.0" encoding="UTF-8"?>
<svg id="uuid-476681b7-7adc-431d-8ef5-63d136a6958e" data-name="Layer 2" xmlns="http://www.w3.org/2000/svg" viewBox="0 0 744.28 96.33">
  <g id="uuid-fed45642-f893-4ea5-a9b9-2504fd16f476" data-name="Layer 1">
    <g>
      <path d="m17.95,72.02c0,2.39.21,4.28.64,5.67.42,1.39,1.02,2.47,1.79,3.24.77.77,1.7,1.31,2.78,1.62,1.08.31,2.24.54,3.47.69H0c1.31-.15,2.51-.38,3.59-.69,1.08-.31,1.99-.85,2.72-1.62.73-.77,1.31-1.85,1.74-3.24.42-1.39.64-3.28.64-5.67V13.43c0-2.39-.21-4.28-.64-5.67-.42-1.39-1-2.47-1.74-3.24-.74-.77-1.64-1.31-2.72-1.62-1.08-.31-2.28-.54-3.59-.69h26.63c-1.24.16-2.39.39-3.47.69-1.08.31-2.01.85-2.78,1.62-.77.77-1.37,1.85-1.79,3.24-.43,1.39-.64,3.28-.64,5.67v26.63h35.32V13.43c0-2.39-.21-4.28-.64-5.67-.42-1.39-1-2.47-1.74-3.24-.74-.77-1.64-1.31-2.72-1.62-1.08-.31-2.28-.54-3.59-.69h26.63c-1.24.16-2.39.39-3.47.69-1.08.31-1.99.85-2.72,1.62-.74.77-1.31,1.85-1.74,3.24-.42,1.39-.64,3.28-.64,5.67v58.59c0,2.39.21,4.28.64,5.67.42,1.39,1,2.47,1.74,3.24.73.77,1.64,1.31,2.72,1.62,1.08.31,2.24.54,3.47.69h-26.63c1.31-.15,2.51-.38,3.59-.69,1.08-.31,1.99-.85,2.72-1.62.73-.77,1.31-1.85,1.74-3.24.42-1.39.64-3.28.64-5.67v-30.92H17.95v30.92Z"/>
      <path d="m182.6,94.02c-2.39.69-4.96,1.25-7.7,1.68-2.74.42-5.58.64-8.51.64-4.71,0-9.51-.64-14.42-1.91-4.9-1.27-9.61-3.42-14.13-6.43-4.52-3.01-8.67-7.02-12.45-12.04-3.78-5.02-6.83-11.31-9.15-18.87h-25.47l-2.2,6.95c-1.39,4.48-2.18,7.97-2.37,10.48-.19,2.51.06,4.38.75,5.62.7,1.24,1.79,2.03,3.3,2.37,1.51.35,3.22.6,5.15.75h-24.66c2.39-.23,4.38-.6,5.96-1.1,1.58-.5,2.97-1.45,4.17-2.84,1.2-1.39,2.33-3.38,3.42-5.96,1.08-2.59,2.32-6.04,3.71-10.36L107.57.58h.58l17.14,53.84c2.55,8.03,5.65,14.65,9.32,19.86,3.67,5.21,7.6,9.34,11.81,12.39,4.21,3.05,8.51,5.17,12.91,6.37,4.4,1.2,8.53,1.79,12.39,1.79,2.01,0,3.92-.14,5.73-.41,1.81-.27,3.49-.6,5.04-.98l.12.58Zm-91.47-37.98h24.89l-12.27-40.41-12.62,40.41Z"/>
      <path d="m202.86,62.99c0,3.63-.77,6.81-2.32,9.55-1.54,2.74-3.59,5.02-6.14,6.83-2.55,1.81-5.48,3.18-8.8,4.11-3.32.93-6.79,1.39-10.42,1.39-5.02,0-9.94-.87-14.76-2.61-4.83-1.74-8.97-4.46-12.45-8.16l4.28-17.83c-.31,4.71.15,8.78,1.39,12.22,1.23,3.44,2.93,6.27,5.09,8.51,2.16,2.24,4.63,3.9,7.41,4.98,2.78,1.08,5.6,1.62,8.45,1.62,2.39,0,4.71-.39,6.95-1.16,2.24-.77,4.23-1.89,5.96-3.36,1.74-1.47,3.13-3.32,4.17-5.56,1.04-2.24,1.56-4.79,1.56-7.64,0-3.94-1-7.27-3.01-10.02-2.01-2.74-4.54-5.17-7.58-7.29-3.05-2.12-6.33-4.11-9.84-5.96-3.51-1.85-6.79-3.84-9.84-5.96-3.05-2.12-5.58-4.57-7.58-7.35-2.01-2.78-3.01-6.14-3.01-10.07,0-3.24.64-6.04,1.91-8.39,1.27-2.35,2.97-4.28,5.09-5.79,2.12-1.51,4.53-2.6,7.24-3.3,2.7-.69,5.48-1.04,8.34-1.04,3.78,0,7.47.58,11.06,1.74,3.59,1.16,6.54,2.74,8.86,4.75l-1.62,14.59c0-3.47-.5-6.46-1.51-8.97-1-2.51-2.32-4.57-3.94-6.19-1.62-1.62-3.47-2.82-5.56-3.59-2.08-.77-4.21-1.16-6.37-1.16-1.93,0-3.84.31-5.73.93-1.89.62-3.57,1.54-5.04,2.78-1.47,1.24-2.64,2.7-3.53,4.4-.89,1.7-1.33,3.67-1.33,5.91,0,3.32,1.06,6.19,3.18,8.63,2.12,2.43,4.75,4.67,7.87,6.72,3.13,2.05,6.54,4.03,10.25,5.96,3.71,1.93,7.12,4.07,10.25,6.43,3.13,2.36,5.75,5.08,7.87,8.16,2.12,3.09,3.18,6.83,3.18,11.23Z"/>
      <path d="m224.97,72.02c0,2.39.21,4.28.64,5.67.42,1.39,1.02,2.47,1.79,3.24.77.77,1.7,1.31,2.78,1.62,1.08.31,2.24.54,3.47.69h-26.63c1.31-.15,2.51-.38,3.59-.69,1.08-.31,1.99-.85,2.72-1.62.73-.77,1.31-1.85,1.74-3.24.42-1.39.64-3.28.64-5.67V13.43c0-2.39-.21-4.28-.64-5.67-.43-1.39-1-2.47-1.74-3.24-.73-.77-1.64-1.31-2.72-1.62-1.08-.31-2.28-.54-3.59-.69h26.63c-1.24.16-2.39.39-3.47.69-1.08.31-2.01.85-2.78,1.62s-1.37,1.85-1.79,3.24c-.42,1.39-.64,3.28-.64,5.67v26.63h35.32V13.43c0-2.39-.21-4.28-.64-5.67-.43-1.39-1-2.47-1.74-3.24-.73-.77-1.64-1.31-2.72-1.62-1.08-.31-2.28-.54-3.59-.69h26.63c-1.24.16-2.39.39-3.47.69-1.08.31-1.99.85-2.72,1.62-.73.77-1.31,1.85-1.74,3.24-.43,1.39-.64,3.28-.64,5.67v58.59c0,2.39.21,4.28.64,5.67.42,1.39,1,2.47,1.74,3.24.73.77,1.64,1.31,2.72,1.62,1.08.31,2.24.54,3.47.69h-26.63c1.31-.15,2.51-.38,3.59-.69,1.08-.31,1.99-.85,2.72-1.62.73-.77,1.31-1.85,1.74-3.24.42-1.39.64-3.28.64-5.67v-30.92h-35.32v30.92Z"/>
      <path d="m314.25,72.02c0,2.39.21,4.28.64,5.67.42,1.39,1,2.47,1.74,3.24.73.77,1.64,1.31,2.72,1.62,1.08.31,2.24.54,3.47.69h-26.63c1.31-.15,2.51-.38,3.59-.69,1.08-.31,1.99-.85,2.72-1.62.73-.77,1.31-1.85,1.74-3.24.42-1.39.64-3.28.64-5.67V3.24h-.12c-4.48,0-8.03.79-10.65,2.37-2.62,1.58-4.67,3.42-6.14,5.5-1.47,2.08-2.49,4.17-3.07,6.25-.58,2.08-1.02,3.59-1.33,4.52l3.36-19.68h45.16l3.47,19.68c-.31-.93-.77-2.43-1.39-4.52-.62-2.08-1.64-4.17-3.07-6.25-1.43-2.08-3.47-3.92-6.14-5.5-2.66-1.58-6.2-2.37-10.59-2.37h-.12v68.78Z"/>
      <path d="m438.14,94.02c-2.39.69-4.96,1.25-7.7,1.68-2.74.42-5.58.64-8.51.64-4.71,0-9.51-.64-14.42-1.91-4.9-1.27-9.61-3.42-14.13-6.43-4.52-3.01-8.67-7.02-12.45-12.04-3.78-5.02-6.83-11.31-9.15-18.87h-25.47l-2.2,6.95c-1.39,4.48-2.18,7.97-2.37,10.48-.19,2.51.06,4.38.75,5.62.69,1.24,1.79,2.03,3.3,2.37,1.5.35,3.22.6,5.15.75h-24.66c2.39-.23,4.38-.6,5.96-1.1,1.58-.5,2.97-1.45,4.17-2.84,1.2-1.39,2.33-3.38,3.42-5.96,1.08-2.59,2.32-6.04,3.71-10.36L363.11.58h.58l17.14,53.84c2.55,8.03,5.65,14.65,9.32,19.86,3.67,5.21,7.6,9.34,11.81,12.39,4.21,3.05,8.51,5.17,12.91,6.37,4.4,1.2,8.53,1.79,12.39,1.79,2.01,0,3.92-.14,5.73-.41,1.81-.27,3.49-.6,5.04-.98l.12.58Zm-91.47-37.98h24.89l-12.27-40.41-12.62,40.41Z"/>
      <path d="m475.42,71.67c-5.25,4.86-10.75,8.3-16.5,10.3-5.75,2.01-11.52,3.01-17.31,3.01-5.48,0-10.81-.87-15.98-2.61-5.17-1.74-9.75-4.34-13.72-7.82-3.98-3.47-7.16-7.8-9.55-12.97-2.39-5.17-3.59-11.19-3.59-18.06s1.23-13.08,3.71-18.41c2.47-5.33,5.73-9.78,9.78-13.37s8.68-6.31,13.89-8.16c5.21-1.85,10.59-2.78,16.15-2.78,5.09,0,10.13.79,15.11,2.37,4.98,1.58,9.63,3.99,13.95,7.24l-3.59,16.67c.39-3.16.1-6.23-.87-9.21-.97-2.97-2.47-5.62-4.52-7.93-2.05-2.32-4.59-4.19-7.64-5.62-3.05-1.43-6.47-2.14-10.25-2.14-4.79-.15-9.32.56-13.6,2.14-4.28,1.58-8.05,3.98-11.29,7.18-3.24,3.2-5.79,7.18-7.64,11.93-1.85,4.75-2.78,10.25-2.78,16.5,0,7.57,1.08,14.05,3.24,19.45,2.16,5.4,4.92,9.84,8.28,13.32s7.12,6.04,11.29,7.7c4.17,1.66,8.26,2.49,12.27,2.49,2.93,0,5.71-.42,8.34-1.27,2.62-.85,4.94-2.06,6.95-3.65,2.01-1.58,3.61-3.53,4.8-5.85,1.2-2.32,1.79-4.94,1.79-7.87v-8.45c0-2.39-.21-4.28-.64-5.67-.42-1.39-1-2.47-1.74-3.24-.74-.77-1.64-1.31-2.72-1.62-1.08-.31-2.28-.54-3.59-.69h24.43c-2.01.31-3.55,1.18-4.63,2.6-1.08,1.43-1.7,4.3-1.85,8.63v15.86Z"/>
      <path d="m591.21,65.54c-4.48,6.79-9.86,11.73-16.15,14.82-6.29,3.09-12.79,4.63-19.51,4.63-5.33,0-10.54-.97-15.63-2.89-5.09-1.93-9.61-4.69-13.55-8.28-3.94-3.59-7.1-7.99-9.5-13.2-2.39-5.21-3.59-11.1-3.59-17.66s1.2-12.72,3.59-18c2.39-5.29,5.56-9.78,9.5-13.49,3.94-3.71,8.47-6.54,13.6-8.51,5.13-1.97,10.48-2.95,16.04-2.95,4.86,0,9.71.79,14.53,2.37,4.82,1.58,9.44,4.03,13.84,7.35l-3.71,16.9c.54-3.94.23-7.45-.93-10.54-1.16-3.09-2.89-5.69-5.21-7.82-2.32-2.12-5.04-3.74-8.16-4.86-3.13-1.12-6.43-1.68-9.9-1.68-3.94,0-7.86.73-11.75,2.2-3.9,1.47-7.41,3.73-10.54,6.77-3.13,3.05-5.66,6.95-7.58,11.69-1.93,4.75-2.89,10.36-2.89,16.85,0,6.87,1.06,12.87,3.18,18,2.12,5.13,4.92,9.4,8.39,12.79,3.47,3.4,7.43,5.94,11.87,7.64,4.44,1.7,8.97,2.55,13.61,2.55,5.63,0,11.08-1.23,16.33-3.71,5.25-2.47,9.65-6.25,13.2-11.35l.93.35Z"/>
      <path d="m612.05,72.02c0,2.39.21,4.28.64,5.67.42,1.39,1.02,2.47,1.79,3.24.77.77,1.7,1.31,2.78,1.62,1.08.31,2.24.54,3.47.69h-26.63c1.31-.15,2.51-.38,3.59-.69,1.08-.31,1.99-.85,2.72-1.62.73-.77,1.31-1.85,1.74-3.24.42-1.39.64-3.28.64-5.67V13.43c0-2.39-.21-4.28-.64-5.67-.42-1.39-1-2.47-1.74-3.24-.74-.77-1.64-1.31-2.72-1.62-1.08-.31-2.28-.54-3.59-.69h26.63c-1.24.16-2.39.39-3.47.69-1.08.31-2.01.85-2.78,1.62-.77.77-1.37,1.85-1.79,3.24-.43,1.39-.64,3.28-.64,5.67v58.59Z"/>
      <path d="m656.74,72.02c0,2.39.21,4.28.64,5.67.42,1.39,1,2.47,1.74,3.24.73.77,1.64,1.31,2.72,1.62,1.08.31,2.24.54,3.47.69h-26.63c1.31-.15,2.51-.38,3.59-.69,1.08-.31,1.99-.85,2.72-1.62.73-.77,1.31-1.85,1.74-3.24.42-1.39.64-3.28.64-5.67V3.24h-.12c-4.48,0-8.03.79-10.65,2.37-2.62,1.58-4.67,3.42-6.14,5.5-1.47,2.08-2.49,4.17-3.07,6.25-.58,2.08-1.02,3.59-1.33,4.52l3.36-19.68h45.16l3.47,19.68c-.31-.93-.77-2.43-1.39-4.52-.62-2.08-1.64-4.17-3.07-6.25-1.43-2.08-3.47-3.92-6.14-5.5-2.66-1.58-6.19-2.37-10.59-2.37h-.12v68.78Z"/>
      <path d="m715.79,67.62c0,4.79.71,8.36,2.14,10.71,1.43,2.36,3.61,4,6.54,4.92h-26.75c2.93-.93,5.11-2.57,6.54-4.92,1.43-2.35,2.14-5.92,2.14-10.71v-15.75l-13.43-34.27c-1.08-2.78-2.08-5.13-3.01-7.06-.93-1.93-1.89-3.49-2.89-4.69-1-1.2-2.12-2.08-3.36-2.66-1.24-.58-2.74-.91-4.52-.98h26.98c-3.71.16-5.85,1.12-6.43,2.9-.58,1.78-.21,4.4,1.1,7.87l14.47,37.86,13.2-34.39c1.85-4.86,2.55-8.41,2.08-10.65-.46-2.24-2.82-3.43-7.06-3.59h20.73c-1.78.16-3.34.48-4.69.98-1.35.5-2.59,1.29-3.71,2.37-1.12,1.08-2.16,2.49-3.13,4.23-.97,1.74-1.99,3.96-3.07,6.66l-13.89,35.55v15.63Z"/>
    </g>
  </g>
</svg>